G04 EAGLE Gerber RS-274X export*
G75*
%MOMM*%
%FSLAX34Y34*%
%LPD*%
%INSoldermask Bottom*%
%IPPOS*%
%AMOC8*
5,1,8,0,0,1.08239X$1,22.5*%
G01*
%ADD10C,1.203200*%
%ADD11C,2.082800*%
%ADD12C,0.853200*%
%ADD13R,1.473200X0.863600*%
%ADD14C,1.703200*%
%ADD15C,2.078200*%

G36*
X1017335Y805192D02*
X1017335Y805192D01*
X1017401Y805194D01*
X1017444Y805212D01*
X1017491Y805220D01*
X1017548Y805254D01*
X1017608Y805279D01*
X1017643Y805310D01*
X1017684Y805335D01*
X1017726Y805386D01*
X1017774Y805430D01*
X1017796Y805472D01*
X1017825Y805509D01*
X1017846Y805571D01*
X1017877Y805630D01*
X1017885Y805684D01*
X1017897Y805721D01*
X1017896Y805761D01*
X1017904Y805815D01*
X1017904Y809625D01*
X1017893Y809690D01*
X1017891Y809756D01*
X1017873Y809799D01*
X1017865Y809846D01*
X1017831Y809903D01*
X1017806Y809963D01*
X1017775Y809998D01*
X1017750Y810039D01*
X1017699Y810081D01*
X1017655Y810129D01*
X1017613Y810151D01*
X1017576Y810180D01*
X1017514Y810201D01*
X1017455Y810232D01*
X1017401Y810240D01*
X1017364Y810252D01*
X1017324Y810251D01*
X1017270Y810259D01*
X1014730Y810259D01*
X1014665Y810248D01*
X1014599Y810246D01*
X1014556Y810228D01*
X1014509Y810220D01*
X1014452Y810186D01*
X1014392Y810161D01*
X1014357Y810130D01*
X1014316Y810105D01*
X1014275Y810054D01*
X1014226Y810010D01*
X1014204Y809968D01*
X1014175Y809931D01*
X1014154Y809869D01*
X1014123Y809810D01*
X1014115Y809756D01*
X1014103Y809719D01*
X1014103Y809715D01*
X1014103Y809714D01*
X1014104Y809679D01*
X1014096Y809625D01*
X1014096Y805815D01*
X1014107Y805750D01*
X1014109Y805684D01*
X1014127Y805641D01*
X1014135Y805594D01*
X1014169Y805537D01*
X1014194Y805477D01*
X1014225Y805442D01*
X1014250Y805401D01*
X1014301Y805360D01*
X1014345Y805311D01*
X1014387Y805289D01*
X1014424Y805260D01*
X1014486Y805239D01*
X1014545Y805208D01*
X1014599Y805200D01*
X1014636Y805188D01*
X1014676Y805189D01*
X1014730Y805181D01*
X1017270Y805181D01*
X1017335Y805192D01*
G37*
G36*
X651575Y805192D02*
X651575Y805192D01*
X651641Y805194D01*
X651684Y805212D01*
X651731Y805220D01*
X651788Y805254D01*
X651848Y805279D01*
X651883Y805310D01*
X651924Y805335D01*
X651966Y805386D01*
X652014Y805430D01*
X652036Y805472D01*
X652065Y805509D01*
X652086Y805571D01*
X652117Y805630D01*
X652125Y805684D01*
X652137Y805721D01*
X652136Y805761D01*
X652144Y805815D01*
X652144Y809625D01*
X652133Y809690D01*
X652131Y809756D01*
X652113Y809799D01*
X652105Y809846D01*
X652071Y809903D01*
X652046Y809963D01*
X652015Y809998D01*
X651990Y810039D01*
X651939Y810081D01*
X651895Y810129D01*
X651853Y810151D01*
X651816Y810180D01*
X651754Y810201D01*
X651695Y810232D01*
X651641Y810240D01*
X651604Y810252D01*
X651564Y810251D01*
X651510Y810259D01*
X648970Y810259D01*
X648905Y810248D01*
X648839Y810246D01*
X648796Y810228D01*
X648749Y810220D01*
X648692Y810186D01*
X648632Y810161D01*
X648597Y810130D01*
X648556Y810105D01*
X648515Y810054D01*
X648466Y810010D01*
X648444Y809968D01*
X648415Y809931D01*
X648394Y809869D01*
X648363Y809810D01*
X648355Y809756D01*
X648343Y809719D01*
X648343Y809715D01*
X648343Y809714D01*
X648344Y809679D01*
X648336Y809625D01*
X648336Y805815D01*
X648347Y805750D01*
X648349Y805684D01*
X648367Y805641D01*
X648375Y805594D01*
X648409Y805537D01*
X648434Y805477D01*
X648465Y805442D01*
X648490Y805401D01*
X648541Y805360D01*
X648585Y805311D01*
X648627Y805289D01*
X648664Y805260D01*
X648726Y805239D01*
X648785Y805208D01*
X648839Y805200D01*
X648876Y805188D01*
X648916Y805189D01*
X648970Y805181D01*
X651510Y805181D01*
X651575Y805192D01*
G37*
G36*
X468695Y805192D02*
X468695Y805192D01*
X468761Y805194D01*
X468804Y805212D01*
X468851Y805220D01*
X468908Y805254D01*
X468968Y805279D01*
X469003Y805310D01*
X469044Y805335D01*
X469086Y805386D01*
X469134Y805430D01*
X469156Y805472D01*
X469185Y805509D01*
X469206Y805571D01*
X469237Y805630D01*
X469245Y805684D01*
X469257Y805721D01*
X469256Y805761D01*
X469264Y805815D01*
X469264Y809625D01*
X469253Y809690D01*
X469251Y809756D01*
X469233Y809799D01*
X469225Y809846D01*
X469191Y809903D01*
X469166Y809963D01*
X469135Y809998D01*
X469110Y810039D01*
X469059Y810081D01*
X469015Y810129D01*
X468973Y810151D01*
X468936Y810180D01*
X468874Y810201D01*
X468815Y810232D01*
X468761Y810240D01*
X468724Y810252D01*
X468684Y810251D01*
X468630Y810259D01*
X466090Y810259D01*
X466025Y810248D01*
X465959Y810246D01*
X465916Y810228D01*
X465869Y810220D01*
X465812Y810186D01*
X465752Y810161D01*
X465717Y810130D01*
X465676Y810105D01*
X465635Y810054D01*
X465586Y810010D01*
X465564Y809968D01*
X465535Y809931D01*
X465514Y809869D01*
X465483Y809810D01*
X465475Y809756D01*
X465463Y809719D01*
X465463Y809715D01*
X465463Y809714D01*
X465464Y809679D01*
X465456Y809625D01*
X465456Y805815D01*
X465467Y805750D01*
X465469Y805684D01*
X465487Y805641D01*
X465495Y805594D01*
X465529Y805537D01*
X465554Y805477D01*
X465585Y805442D01*
X465610Y805401D01*
X465661Y805360D01*
X465705Y805311D01*
X465747Y805289D01*
X465784Y805260D01*
X465846Y805239D01*
X465905Y805208D01*
X465959Y805200D01*
X465996Y805188D01*
X466036Y805189D01*
X466090Y805181D01*
X468630Y805181D01*
X468695Y805192D01*
G37*
G36*
X285815Y805192D02*
X285815Y805192D01*
X285881Y805194D01*
X285924Y805212D01*
X285971Y805220D01*
X286028Y805254D01*
X286088Y805279D01*
X286123Y805310D01*
X286164Y805335D01*
X286206Y805386D01*
X286254Y805430D01*
X286276Y805472D01*
X286305Y805509D01*
X286326Y805571D01*
X286357Y805630D01*
X286365Y805684D01*
X286377Y805721D01*
X286376Y805761D01*
X286384Y805815D01*
X286384Y809625D01*
X286373Y809690D01*
X286371Y809756D01*
X286353Y809799D01*
X286345Y809846D01*
X286311Y809903D01*
X286286Y809963D01*
X286255Y809998D01*
X286230Y810039D01*
X286179Y810081D01*
X286135Y810129D01*
X286093Y810151D01*
X286056Y810180D01*
X285994Y810201D01*
X285935Y810232D01*
X285881Y810240D01*
X285844Y810252D01*
X285804Y810251D01*
X285750Y810259D01*
X283210Y810259D01*
X283145Y810248D01*
X283079Y810246D01*
X283036Y810228D01*
X282989Y810220D01*
X282932Y810186D01*
X282872Y810161D01*
X282837Y810130D01*
X282796Y810105D01*
X282755Y810054D01*
X282706Y810010D01*
X282684Y809968D01*
X282655Y809931D01*
X282634Y809869D01*
X282603Y809810D01*
X282595Y809756D01*
X282583Y809719D01*
X282583Y809715D01*
X282583Y809714D01*
X282584Y809679D01*
X282576Y809625D01*
X282576Y805815D01*
X282587Y805750D01*
X282589Y805684D01*
X282607Y805641D01*
X282615Y805594D01*
X282649Y805537D01*
X282674Y805477D01*
X282705Y805442D01*
X282730Y805401D01*
X282781Y805360D01*
X282825Y805311D01*
X282867Y805289D01*
X282904Y805260D01*
X282966Y805239D01*
X283025Y805208D01*
X283079Y805200D01*
X283116Y805188D01*
X283156Y805189D01*
X283210Y805181D01*
X285750Y805181D01*
X285815Y805192D01*
G37*
G36*
X834455Y805192D02*
X834455Y805192D01*
X834521Y805194D01*
X834564Y805212D01*
X834611Y805220D01*
X834668Y805254D01*
X834728Y805279D01*
X834763Y805310D01*
X834804Y805335D01*
X834846Y805386D01*
X834894Y805430D01*
X834916Y805472D01*
X834945Y805509D01*
X834966Y805571D01*
X834997Y805630D01*
X835005Y805684D01*
X835017Y805721D01*
X835016Y805761D01*
X835024Y805815D01*
X835024Y809625D01*
X835013Y809690D01*
X835011Y809756D01*
X834993Y809799D01*
X834985Y809846D01*
X834951Y809903D01*
X834926Y809963D01*
X834895Y809998D01*
X834870Y810039D01*
X834819Y810081D01*
X834775Y810129D01*
X834733Y810151D01*
X834696Y810180D01*
X834634Y810201D01*
X834575Y810232D01*
X834521Y810240D01*
X834484Y810252D01*
X834444Y810251D01*
X834390Y810259D01*
X831850Y810259D01*
X831785Y810248D01*
X831719Y810246D01*
X831676Y810228D01*
X831629Y810220D01*
X831572Y810186D01*
X831512Y810161D01*
X831477Y810130D01*
X831436Y810105D01*
X831395Y810054D01*
X831346Y810010D01*
X831324Y809968D01*
X831295Y809931D01*
X831274Y809869D01*
X831243Y809810D01*
X831235Y809756D01*
X831223Y809719D01*
X831223Y809715D01*
X831223Y809714D01*
X831224Y809679D01*
X831216Y809625D01*
X831216Y805815D01*
X831227Y805750D01*
X831229Y805684D01*
X831247Y805641D01*
X831255Y805594D01*
X831289Y805537D01*
X831314Y805477D01*
X831345Y805442D01*
X831370Y805401D01*
X831421Y805360D01*
X831465Y805311D01*
X831507Y805289D01*
X831544Y805260D01*
X831606Y805239D01*
X831665Y805208D01*
X831719Y805200D01*
X831756Y805188D01*
X831796Y805189D01*
X831850Y805181D01*
X834390Y805181D01*
X834455Y805192D01*
G37*
G36*
X1200215Y805192D02*
X1200215Y805192D01*
X1200281Y805194D01*
X1200324Y805212D01*
X1200371Y805220D01*
X1200428Y805254D01*
X1200488Y805279D01*
X1200523Y805310D01*
X1200564Y805335D01*
X1200606Y805386D01*
X1200654Y805430D01*
X1200676Y805472D01*
X1200705Y805509D01*
X1200726Y805571D01*
X1200757Y805630D01*
X1200765Y805684D01*
X1200777Y805721D01*
X1200776Y805761D01*
X1200784Y805815D01*
X1200784Y809625D01*
X1200773Y809690D01*
X1200771Y809756D01*
X1200753Y809799D01*
X1200745Y809846D01*
X1200711Y809903D01*
X1200686Y809963D01*
X1200655Y809998D01*
X1200630Y810039D01*
X1200579Y810081D01*
X1200535Y810129D01*
X1200493Y810151D01*
X1200456Y810180D01*
X1200394Y810201D01*
X1200335Y810232D01*
X1200281Y810240D01*
X1200244Y810252D01*
X1200204Y810251D01*
X1200150Y810259D01*
X1197610Y810259D01*
X1197545Y810248D01*
X1197479Y810246D01*
X1197436Y810228D01*
X1197389Y810220D01*
X1197332Y810186D01*
X1197272Y810161D01*
X1197237Y810130D01*
X1197196Y810105D01*
X1197155Y810054D01*
X1197106Y810010D01*
X1197084Y809968D01*
X1197055Y809931D01*
X1197034Y809869D01*
X1197003Y809810D01*
X1196995Y809756D01*
X1196983Y809719D01*
X1196983Y809715D01*
X1196983Y809714D01*
X1196984Y809679D01*
X1196976Y809625D01*
X1196976Y805815D01*
X1196987Y805750D01*
X1196989Y805684D01*
X1197007Y805641D01*
X1197015Y805594D01*
X1197049Y805537D01*
X1197074Y805477D01*
X1197105Y805442D01*
X1197130Y805401D01*
X1197181Y805360D01*
X1197225Y805311D01*
X1197267Y805289D01*
X1197304Y805260D01*
X1197366Y805239D01*
X1197425Y805208D01*
X1197479Y805200D01*
X1197516Y805188D01*
X1197556Y805189D01*
X1197610Y805181D01*
X1200150Y805181D01*
X1200215Y805192D01*
G37*
G36*
X102935Y805192D02*
X102935Y805192D01*
X103001Y805194D01*
X103044Y805212D01*
X103091Y805220D01*
X103148Y805254D01*
X103208Y805279D01*
X103243Y805310D01*
X103284Y805335D01*
X103326Y805386D01*
X103374Y805430D01*
X103396Y805472D01*
X103425Y805509D01*
X103446Y805571D01*
X103477Y805630D01*
X103485Y805684D01*
X103497Y805721D01*
X103496Y805761D01*
X103504Y805815D01*
X103504Y809625D01*
X103493Y809690D01*
X103491Y809756D01*
X103473Y809799D01*
X103465Y809846D01*
X103431Y809903D01*
X103406Y809963D01*
X103375Y809998D01*
X103350Y810039D01*
X103299Y810081D01*
X103255Y810129D01*
X103213Y810151D01*
X103176Y810180D01*
X103114Y810201D01*
X103055Y810232D01*
X103001Y810240D01*
X102964Y810252D01*
X102924Y810251D01*
X102870Y810259D01*
X100330Y810259D01*
X100265Y810248D01*
X100199Y810246D01*
X100156Y810228D01*
X100109Y810220D01*
X100052Y810186D01*
X99992Y810161D01*
X99957Y810130D01*
X99916Y810105D01*
X99875Y810054D01*
X99826Y810010D01*
X99804Y809968D01*
X99775Y809931D01*
X99754Y809869D01*
X99723Y809810D01*
X99715Y809756D01*
X99703Y809719D01*
X99703Y809715D01*
X99703Y809714D01*
X99704Y809679D01*
X99696Y809625D01*
X99696Y805815D01*
X99707Y805750D01*
X99709Y805684D01*
X99727Y805641D01*
X99735Y805594D01*
X99769Y805537D01*
X99794Y805477D01*
X99825Y805442D01*
X99850Y805401D01*
X99901Y805360D01*
X99945Y805311D01*
X99987Y805289D01*
X100024Y805260D01*
X100086Y805239D01*
X100145Y805208D01*
X100199Y805200D01*
X100236Y805188D01*
X100276Y805189D01*
X100330Y805181D01*
X102870Y805181D01*
X102935Y805192D01*
G37*
G36*
X285815Y795032D02*
X285815Y795032D01*
X285881Y795034D01*
X285924Y795052D01*
X285971Y795060D01*
X286028Y795094D01*
X286088Y795119D01*
X286123Y795150D01*
X286164Y795175D01*
X286206Y795226D01*
X286254Y795270D01*
X286276Y795312D01*
X286305Y795349D01*
X286326Y795411D01*
X286357Y795470D01*
X286365Y795524D01*
X286377Y795561D01*
X286376Y795601D01*
X286384Y795655D01*
X286384Y799465D01*
X286373Y799530D01*
X286371Y799596D01*
X286353Y799639D01*
X286345Y799686D01*
X286311Y799743D01*
X286286Y799803D01*
X286255Y799838D01*
X286230Y799879D01*
X286179Y799921D01*
X286135Y799969D01*
X286093Y799991D01*
X286056Y800020D01*
X285994Y800041D01*
X285935Y800072D01*
X285881Y800080D01*
X285844Y800092D01*
X285804Y800091D01*
X285750Y800099D01*
X283210Y800099D01*
X283145Y800088D01*
X283079Y800086D01*
X283036Y800068D01*
X282989Y800060D01*
X282932Y800026D01*
X282872Y800001D01*
X282837Y799970D01*
X282796Y799945D01*
X282755Y799894D01*
X282706Y799850D01*
X282684Y799808D01*
X282655Y799771D01*
X282634Y799709D01*
X282603Y799650D01*
X282595Y799596D01*
X282583Y799559D01*
X282583Y799555D01*
X282583Y799554D01*
X282584Y799519D01*
X282576Y799465D01*
X282576Y795655D01*
X282587Y795590D01*
X282589Y795524D01*
X282607Y795481D01*
X282615Y795434D01*
X282649Y795377D01*
X282674Y795317D01*
X282705Y795282D01*
X282730Y795241D01*
X282781Y795200D01*
X282825Y795151D01*
X282867Y795129D01*
X282904Y795100D01*
X282966Y795079D01*
X283025Y795048D01*
X283079Y795040D01*
X283116Y795028D01*
X283156Y795029D01*
X283210Y795021D01*
X285750Y795021D01*
X285815Y795032D01*
G37*
G36*
X102935Y795032D02*
X102935Y795032D01*
X103001Y795034D01*
X103044Y795052D01*
X103091Y795060D01*
X103148Y795094D01*
X103208Y795119D01*
X103243Y795150D01*
X103284Y795175D01*
X103326Y795226D01*
X103374Y795270D01*
X103396Y795312D01*
X103425Y795349D01*
X103446Y795411D01*
X103477Y795470D01*
X103485Y795524D01*
X103497Y795561D01*
X103496Y795601D01*
X103504Y795655D01*
X103504Y799465D01*
X103493Y799530D01*
X103491Y799596D01*
X103473Y799639D01*
X103465Y799686D01*
X103431Y799743D01*
X103406Y799803D01*
X103375Y799838D01*
X103350Y799879D01*
X103299Y799921D01*
X103255Y799969D01*
X103213Y799991D01*
X103176Y800020D01*
X103114Y800041D01*
X103055Y800072D01*
X103001Y800080D01*
X102964Y800092D01*
X102924Y800091D01*
X102870Y800099D01*
X100330Y800099D01*
X100265Y800088D01*
X100199Y800086D01*
X100156Y800068D01*
X100109Y800060D01*
X100052Y800026D01*
X99992Y800001D01*
X99957Y799970D01*
X99916Y799945D01*
X99875Y799894D01*
X99826Y799850D01*
X99804Y799808D01*
X99775Y799771D01*
X99754Y799709D01*
X99723Y799650D01*
X99715Y799596D01*
X99703Y799559D01*
X99703Y799555D01*
X99703Y799554D01*
X99704Y799519D01*
X99696Y799465D01*
X99696Y795655D01*
X99707Y795590D01*
X99709Y795524D01*
X99727Y795481D01*
X99735Y795434D01*
X99769Y795377D01*
X99794Y795317D01*
X99825Y795282D01*
X99850Y795241D01*
X99901Y795200D01*
X99945Y795151D01*
X99987Y795129D01*
X100024Y795100D01*
X100086Y795079D01*
X100145Y795048D01*
X100199Y795040D01*
X100236Y795028D01*
X100276Y795029D01*
X100330Y795021D01*
X102870Y795021D01*
X102935Y795032D01*
G37*
G36*
X1017335Y795032D02*
X1017335Y795032D01*
X1017401Y795034D01*
X1017444Y795052D01*
X1017491Y795060D01*
X1017548Y795094D01*
X1017608Y795119D01*
X1017643Y795150D01*
X1017684Y795175D01*
X1017726Y795226D01*
X1017774Y795270D01*
X1017796Y795312D01*
X1017825Y795349D01*
X1017846Y795411D01*
X1017877Y795470D01*
X1017885Y795524D01*
X1017897Y795561D01*
X1017896Y795601D01*
X1017904Y795655D01*
X1017904Y799465D01*
X1017893Y799530D01*
X1017891Y799596D01*
X1017873Y799639D01*
X1017865Y799686D01*
X1017831Y799743D01*
X1017806Y799803D01*
X1017775Y799838D01*
X1017750Y799879D01*
X1017699Y799921D01*
X1017655Y799969D01*
X1017613Y799991D01*
X1017576Y800020D01*
X1017514Y800041D01*
X1017455Y800072D01*
X1017401Y800080D01*
X1017364Y800092D01*
X1017324Y800091D01*
X1017270Y800099D01*
X1014730Y800099D01*
X1014665Y800088D01*
X1014599Y800086D01*
X1014556Y800068D01*
X1014509Y800060D01*
X1014452Y800026D01*
X1014392Y800001D01*
X1014357Y799970D01*
X1014316Y799945D01*
X1014275Y799894D01*
X1014226Y799850D01*
X1014204Y799808D01*
X1014175Y799771D01*
X1014154Y799709D01*
X1014123Y799650D01*
X1014115Y799596D01*
X1014103Y799559D01*
X1014103Y799555D01*
X1014103Y799554D01*
X1014104Y799519D01*
X1014096Y799465D01*
X1014096Y795655D01*
X1014107Y795590D01*
X1014109Y795524D01*
X1014127Y795481D01*
X1014135Y795434D01*
X1014169Y795377D01*
X1014194Y795317D01*
X1014225Y795282D01*
X1014250Y795241D01*
X1014301Y795200D01*
X1014345Y795151D01*
X1014387Y795129D01*
X1014424Y795100D01*
X1014486Y795079D01*
X1014545Y795048D01*
X1014599Y795040D01*
X1014636Y795028D01*
X1014676Y795029D01*
X1014730Y795021D01*
X1017270Y795021D01*
X1017335Y795032D01*
G37*
G36*
X1200215Y795032D02*
X1200215Y795032D01*
X1200281Y795034D01*
X1200324Y795052D01*
X1200371Y795060D01*
X1200428Y795094D01*
X1200488Y795119D01*
X1200523Y795150D01*
X1200564Y795175D01*
X1200606Y795226D01*
X1200654Y795270D01*
X1200676Y795312D01*
X1200705Y795349D01*
X1200726Y795411D01*
X1200757Y795470D01*
X1200765Y795524D01*
X1200777Y795561D01*
X1200776Y795601D01*
X1200784Y795655D01*
X1200784Y799465D01*
X1200773Y799530D01*
X1200771Y799596D01*
X1200753Y799639D01*
X1200745Y799686D01*
X1200711Y799743D01*
X1200686Y799803D01*
X1200655Y799838D01*
X1200630Y799879D01*
X1200579Y799921D01*
X1200535Y799969D01*
X1200493Y799991D01*
X1200456Y800020D01*
X1200394Y800041D01*
X1200335Y800072D01*
X1200281Y800080D01*
X1200244Y800092D01*
X1200204Y800091D01*
X1200150Y800099D01*
X1197610Y800099D01*
X1197545Y800088D01*
X1197479Y800086D01*
X1197436Y800068D01*
X1197389Y800060D01*
X1197332Y800026D01*
X1197272Y800001D01*
X1197237Y799970D01*
X1197196Y799945D01*
X1197155Y799894D01*
X1197106Y799850D01*
X1197084Y799808D01*
X1197055Y799771D01*
X1197034Y799709D01*
X1197003Y799650D01*
X1196995Y799596D01*
X1196983Y799559D01*
X1196983Y799555D01*
X1196983Y799554D01*
X1196984Y799519D01*
X1196976Y799465D01*
X1196976Y795655D01*
X1196987Y795590D01*
X1196989Y795524D01*
X1197007Y795481D01*
X1197015Y795434D01*
X1197049Y795377D01*
X1197074Y795317D01*
X1197105Y795282D01*
X1197130Y795241D01*
X1197181Y795200D01*
X1197225Y795151D01*
X1197267Y795129D01*
X1197304Y795100D01*
X1197366Y795079D01*
X1197425Y795048D01*
X1197479Y795040D01*
X1197516Y795028D01*
X1197556Y795029D01*
X1197610Y795021D01*
X1200150Y795021D01*
X1200215Y795032D01*
G37*
G36*
X834455Y795032D02*
X834455Y795032D01*
X834521Y795034D01*
X834564Y795052D01*
X834611Y795060D01*
X834668Y795094D01*
X834728Y795119D01*
X834763Y795150D01*
X834804Y795175D01*
X834846Y795226D01*
X834894Y795270D01*
X834916Y795312D01*
X834945Y795349D01*
X834966Y795411D01*
X834997Y795470D01*
X835005Y795524D01*
X835017Y795561D01*
X835016Y795601D01*
X835024Y795655D01*
X835024Y799465D01*
X835013Y799530D01*
X835011Y799596D01*
X834993Y799639D01*
X834985Y799686D01*
X834951Y799743D01*
X834926Y799803D01*
X834895Y799838D01*
X834870Y799879D01*
X834819Y799921D01*
X834775Y799969D01*
X834733Y799991D01*
X834696Y800020D01*
X834634Y800041D01*
X834575Y800072D01*
X834521Y800080D01*
X834484Y800092D01*
X834444Y800091D01*
X834390Y800099D01*
X831850Y800099D01*
X831785Y800088D01*
X831719Y800086D01*
X831676Y800068D01*
X831629Y800060D01*
X831572Y800026D01*
X831512Y800001D01*
X831477Y799970D01*
X831436Y799945D01*
X831395Y799894D01*
X831346Y799850D01*
X831324Y799808D01*
X831295Y799771D01*
X831274Y799709D01*
X831243Y799650D01*
X831235Y799596D01*
X831223Y799559D01*
X831223Y799555D01*
X831223Y799554D01*
X831224Y799519D01*
X831216Y799465D01*
X831216Y795655D01*
X831227Y795590D01*
X831229Y795524D01*
X831247Y795481D01*
X831255Y795434D01*
X831289Y795377D01*
X831314Y795317D01*
X831345Y795282D01*
X831370Y795241D01*
X831421Y795200D01*
X831465Y795151D01*
X831507Y795129D01*
X831544Y795100D01*
X831606Y795079D01*
X831665Y795048D01*
X831719Y795040D01*
X831756Y795028D01*
X831796Y795029D01*
X831850Y795021D01*
X834390Y795021D01*
X834455Y795032D01*
G37*
G36*
X468695Y795032D02*
X468695Y795032D01*
X468761Y795034D01*
X468804Y795052D01*
X468851Y795060D01*
X468908Y795094D01*
X468968Y795119D01*
X469003Y795150D01*
X469044Y795175D01*
X469086Y795226D01*
X469134Y795270D01*
X469156Y795312D01*
X469185Y795349D01*
X469206Y795411D01*
X469237Y795470D01*
X469245Y795524D01*
X469257Y795561D01*
X469256Y795601D01*
X469264Y795655D01*
X469264Y799465D01*
X469253Y799530D01*
X469251Y799596D01*
X469233Y799639D01*
X469225Y799686D01*
X469191Y799743D01*
X469166Y799803D01*
X469135Y799838D01*
X469110Y799879D01*
X469059Y799921D01*
X469015Y799969D01*
X468973Y799991D01*
X468936Y800020D01*
X468874Y800041D01*
X468815Y800072D01*
X468761Y800080D01*
X468724Y800092D01*
X468684Y800091D01*
X468630Y800099D01*
X466090Y800099D01*
X466025Y800088D01*
X465959Y800086D01*
X465916Y800068D01*
X465869Y800060D01*
X465812Y800026D01*
X465752Y800001D01*
X465717Y799970D01*
X465676Y799945D01*
X465635Y799894D01*
X465586Y799850D01*
X465564Y799808D01*
X465535Y799771D01*
X465514Y799709D01*
X465483Y799650D01*
X465475Y799596D01*
X465463Y799559D01*
X465463Y799555D01*
X465463Y799554D01*
X465464Y799519D01*
X465456Y799465D01*
X465456Y795655D01*
X465467Y795590D01*
X465469Y795524D01*
X465487Y795481D01*
X465495Y795434D01*
X465529Y795377D01*
X465554Y795317D01*
X465585Y795282D01*
X465610Y795241D01*
X465661Y795200D01*
X465705Y795151D01*
X465747Y795129D01*
X465784Y795100D01*
X465846Y795079D01*
X465905Y795048D01*
X465959Y795040D01*
X465996Y795028D01*
X466036Y795029D01*
X466090Y795021D01*
X468630Y795021D01*
X468695Y795032D01*
G37*
G36*
X651575Y795032D02*
X651575Y795032D01*
X651641Y795034D01*
X651684Y795052D01*
X651731Y795060D01*
X651788Y795094D01*
X651848Y795119D01*
X651883Y795150D01*
X651924Y795175D01*
X651966Y795226D01*
X652014Y795270D01*
X652036Y795312D01*
X652065Y795349D01*
X652086Y795411D01*
X652117Y795470D01*
X652125Y795524D01*
X652137Y795561D01*
X652136Y795601D01*
X652144Y795655D01*
X652144Y799465D01*
X652133Y799530D01*
X652131Y799596D01*
X652113Y799639D01*
X652105Y799686D01*
X652071Y799743D01*
X652046Y799803D01*
X652015Y799838D01*
X651990Y799879D01*
X651939Y799921D01*
X651895Y799969D01*
X651853Y799991D01*
X651816Y800020D01*
X651754Y800041D01*
X651695Y800072D01*
X651641Y800080D01*
X651604Y800092D01*
X651564Y800091D01*
X651510Y800099D01*
X648970Y800099D01*
X648905Y800088D01*
X648839Y800086D01*
X648796Y800068D01*
X648749Y800060D01*
X648692Y800026D01*
X648632Y800001D01*
X648597Y799970D01*
X648556Y799945D01*
X648515Y799894D01*
X648466Y799850D01*
X648444Y799808D01*
X648415Y799771D01*
X648394Y799709D01*
X648363Y799650D01*
X648355Y799596D01*
X648343Y799559D01*
X648343Y799555D01*
X648343Y799554D01*
X648344Y799519D01*
X648336Y799465D01*
X648336Y795655D01*
X648347Y795590D01*
X648349Y795524D01*
X648367Y795481D01*
X648375Y795434D01*
X648409Y795377D01*
X648434Y795317D01*
X648465Y795282D01*
X648490Y795241D01*
X648541Y795200D01*
X648585Y795151D01*
X648627Y795129D01*
X648664Y795100D01*
X648726Y795079D01*
X648785Y795048D01*
X648839Y795040D01*
X648876Y795028D01*
X648916Y795029D01*
X648970Y795021D01*
X651510Y795021D01*
X651575Y795032D01*
G37*
G36*
X1200215Y182892D02*
X1200215Y182892D01*
X1200281Y182894D01*
X1200324Y182912D01*
X1200371Y182920D01*
X1200428Y182954D01*
X1200488Y182979D01*
X1200523Y183010D01*
X1200564Y183035D01*
X1200606Y183086D01*
X1200654Y183130D01*
X1200676Y183172D01*
X1200705Y183209D01*
X1200726Y183271D01*
X1200757Y183330D01*
X1200765Y183384D01*
X1200777Y183421D01*
X1200776Y183461D01*
X1200784Y183515D01*
X1200784Y187325D01*
X1200773Y187390D01*
X1200771Y187456D01*
X1200753Y187499D01*
X1200745Y187546D01*
X1200711Y187603D01*
X1200686Y187663D01*
X1200655Y187698D01*
X1200630Y187739D01*
X1200579Y187781D01*
X1200535Y187829D01*
X1200493Y187851D01*
X1200456Y187880D01*
X1200394Y187901D01*
X1200335Y187932D01*
X1200281Y187940D01*
X1200244Y187952D01*
X1200204Y187951D01*
X1200150Y187959D01*
X1197610Y187959D01*
X1197545Y187948D01*
X1197479Y187946D01*
X1197436Y187928D01*
X1197389Y187920D01*
X1197332Y187886D01*
X1197272Y187861D01*
X1197237Y187830D01*
X1197196Y187805D01*
X1197155Y187754D01*
X1197106Y187710D01*
X1197084Y187668D01*
X1197055Y187631D01*
X1197034Y187569D01*
X1197003Y187510D01*
X1196995Y187456D01*
X1196983Y187419D01*
X1196983Y187415D01*
X1196983Y187414D01*
X1196984Y187379D01*
X1196976Y187325D01*
X1196976Y183515D01*
X1196987Y183450D01*
X1196989Y183384D01*
X1197007Y183341D01*
X1197015Y183294D01*
X1197049Y183237D01*
X1197074Y183177D01*
X1197105Y183142D01*
X1197130Y183101D01*
X1197181Y183060D01*
X1197225Y183011D01*
X1197267Y182989D01*
X1197304Y182960D01*
X1197366Y182939D01*
X1197425Y182908D01*
X1197479Y182900D01*
X1197516Y182888D01*
X1197556Y182889D01*
X1197610Y182881D01*
X1200150Y182881D01*
X1200215Y182892D01*
G37*
G36*
X834455Y182892D02*
X834455Y182892D01*
X834521Y182894D01*
X834564Y182912D01*
X834611Y182920D01*
X834668Y182954D01*
X834728Y182979D01*
X834763Y183010D01*
X834804Y183035D01*
X834846Y183086D01*
X834894Y183130D01*
X834916Y183172D01*
X834945Y183209D01*
X834966Y183271D01*
X834997Y183330D01*
X835005Y183384D01*
X835017Y183421D01*
X835016Y183461D01*
X835024Y183515D01*
X835024Y187325D01*
X835013Y187390D01*
X835011Y187456D01*
X834993Y187499D01*
X834985Y187546D01*
X834951Y187603D01*
X834926Y187663D01*
X834895Y187698D01*
X834870Y187739D01*
X834819Y187781D01*
X834775Y187829D01*
X834733Y187851D01*
X834696Y187880D01*
X834634Y187901D01*
X834575Y187932D01*
X834521Y187940D01*
X834484Y187952D01*
X834444Y187951D01*
X834390Y187959D01*
X831850Y187959D01*
X831785Y187948D01*
X831719Y187946D01*
X831676Y187928D01*
X831629Y187920D01*
X831572Y187886D01*
X831512Y187861D01*
X831477Y187830D01*
X831436Y187805D01*
X831395Y187754D01*
X831346Y187710D01*
X831324Y187668D01*
X831295Y187631D01*
X831274Y187569D01*
X831243Y187510D01*
X831235Y187456D01*
X831223Y187419D01*
X831223Y187415D01*
X831223Y187414D01*
X831224Y187379D01*
X831216Y187325D01*
X831216Y183515D01*
X831227Y183450D01*
X831229Y183384D01*
X831247Y183341D01*
X831255Y183294D01*
X831289Y183237D01*
X831314Y183177D01*
X831345Y183142D01*
X831370Y183101D01*
X831421Y183060D01*
X831465Y183011D01*
X831507Y182989D01*
X831544Y182960D01*
X831606Y182939D01*
X831665Y182908D01*
X831719Y182900D01*
X831756Y182888D01*
X831796Y182889D01*
X831850Y182881D01*
X834390Y182881D01*
X834455Y182892D01*
G37*
G36*
X1017335Y182892D02*
X1017335Y182892D01*
X1017401Y182894D01*
X1017444Y182912D01*
X1017491Y182920D01*
X1017548Y182954D01*
X1017608Y182979D01*
X1017643Y183010D01*
X1017684Y183035D01*
X1017726Y183086D01*
X1017774Y183130D01*
X1017796Y183172D01*
X1017825Y183209D01*
X1017846Y183271D01*
X1017877Y183330D01*
X1017885Y183384D01*
X1017897Y183421D01*
X1017896Y183461D01*
X1017904Y183515D01*
X1017904Y187325D01*
X1017893Y187390D01*
X1017891Y187456D01*
X1017873Y187499D01*
X1017865Y187546D01*
X1017831Y187603D01*
X1017806Y187663D01*
X1017775Y187698D01*
X1017750Y187739D01*
X1017699Y187781D01*
X1017655Y187829D01*
X1017613Y187851D01*
X1017576Y187880D01*
X1017514Y187901D01*
X1017455Y187932D01*
X1017401Y187940D01*
X1017364Y187952D01*
X1017324Y187951D01*
X1017270Y187959D01*
X1014730Y187959D01*
X1014665Y187948D01*
X1014599Y187946D01*
X1014556Y187928D01*
X1014509Y187920D01*
X1014452Y187886D01*
X1014392Y187861D01*
X1014357Y187830D01*
X1014316Y187805D01*
X1014275Y187754D01*
X1014226Y187710D01*
X1014204Y187668D01*
X1014175Y187631D01*
X1014154Y187569D01*
X1014123Y187510D01*
X1014115Y187456D01*
X1014103Y187419D01*
X1014103Y187415D01*
X1014103Y187414D01*
X1014104Y187379D01*
X1014096Y187325D01*
X1014096Y183515D01*
X1014107Y183450D01*
X1014109Y183384D01*
X1014127Y183341D01*
X1014135Y183294D01*
X1014169Y183237D01*
X1014194Y183177D01*
X1014225Y183142D01*
X1014250Y183101D01*
X1014301Y183060D01*
X1014345Y183011D01*
X1014387Y182989D01*
X1014424Y182960D01*
X1014486Y182939D01*
X1014545Y182908D01*
X1014599Y182900D01*
X1014636Y182888D01*
X1014676Y182889D01*
X1014730Y182881D01*
X1017270Y182881D01*
X1017335Y182892D01*
G37*
G36*
X285815Y182892D02*
X285815Y182892D01*
X285881Y182894D01*
X285924Y182912D01*
X285971Y182920D01*
X286028Y182954D01*
X286088Y182979D01*
X286123Y183010D01*
X286164Y183035D01*
X286206Y183086D01*
X286254Y183130D01*
X286276Y183172D01*
X286305Y183209D01*
X286326Y183271D01*
X286357Y183330D01*
X286365Y183384D01*
X286377Y183421D01*
X286376Y183461D01*
X286384Y183515D01*
X286384Y187325D01*
X286373Y187390D01*
X286371Y187456D01*
X286353Y187499D01*
X286345Y187546D01*
X286311Y187603D01*
X286286Y187663D01*
X286255Y187698D01*
X286230Y187739D01*
X286179Y187781D01*
X286135Y187829D01*
X286093Y187851D01*
X286056Y187880D01*
X285994Y187901D01*
X285935Y187932D01*
X285881Y187940D01*
X285844Y187952D01*
X285804Y187951D01*
X285750Y187959D01*
X283210Y187959D01*
X283145Y187948D01*
X283079Y187946D01*
X283036Y187928D01*
X282989Y187920D01*
X282932Y187886D01*
X282872Y187861D01*
X282837Y187830D01*
X282796Y187805D01*
X282755Y187754D01*
X282706Y187710D01*
X282684Y187668D01*
X282655Y187631D01*
X282634Y187569D01*
X282603Y187510D01*
X282595Y187456D01*
X282583Y187419D01*
X282583Y187415D01*
X282583Y187414D01*
X282584Y187379D01*
X282576Y187325D01*
X282576Y183515D01*
X282587Y183450D01*
X282589Y183384D01*
X282607Y183341D01*
X282615Y183294D01*
X282649Y183237D01*
X282674Y183177D01*
X282705Y183142D01*
X282730Y183101D01*
X282781Y183060D01*
X282825Y183011D01*
X282867Y182989D01*
X282904Y182960D01*
X282966Y182939D01*
X283025Y182908D01*
X283079Y182900D01*
X283116Y182888D01*
X283156Y182889D01*
X283210Y182881D01*
X285750Y182881D01*
X285815Y182892D01*
G37*
G36*
X651575Y182892D02*
X651575Y182892D01*
X651641Y182894D01*
X651684Y182912D01*
X651731Y182920D01*
X651788Y182954D01*
X651848Y182979D01*
X651883Y183010D01*
X651924Y183035D01*
X651966Y183086D01*
X652014Y183130D01*
X652036Y183172D01*
X652065Y183209D01*
X652086Y183271D01*
X652117Y183330D01*
X652125Y183384D01*
X652137Y183421D01*
X652136Y183461D01*
X652144Y183515D01*
X652144Y187325D01*
X652133Y187390D01*
X652131Y187456D01*
X652113Y187499D01*
X652105Y187546D01*
X652071Y187603D01*
X652046Y187663D01*
X652015Y187698D01*
X651990Y187739D01*
X651939Y187781D01*
X651895Y187829D01*
X651853Y187851D01*
X651816Y187880D01*
X651754Y187901D01*
X651695Y187932D01*
X651641Y187940D01*
X651604Y187952D01*
X651564Y187951D01*
X651510Y187959D01*
X648970Y187959D01*
X648905Y187948D01*
X648839Y187946D01*
X648796Y187928D01*
X648749Y187920D01*
X648692Y187886D01*
X648632Y187861D01*
X648597Y187830D01*
X648556Y187805D01*
X648515Y187754D01*
X648466Y187710D01*
X648444Y187668D01*
X648415Y187631D01*
X648394Y187569D01*
X648363Y187510D01*
X648355Y187456D01*
X648343Y187419D01*
X648343Y187415D01*
X648343Y187414D01*
X648344Y187379D01*
X648336Y187325D01*
X648336Y183515D01*
X648347Y183450D01*
X648349Y183384D01*
X648367Y183341D01*
X648375Y183294D01*
X648409Y183237D01*
X648434Y183177D01*
X648465Y183142D01*
X648490Y183101D01*
X648541Y183060D01*
X648585Y183011D01*
X648627Y182989D01*
X648664Y182960D01*
X648726Y182939D01*
X648785Y182908D01*
X648839Y182900D01*
X648876Y182888D01*
X648916Y182889D01*
X648970Y182881D01*
X651510Y182881D01*
X651575Y182892D01*
G37*
G36*
X468695Y182892D02*
X468695Y182892D01*
X468761Y182894D01*
X468804Y182912D01*
X468851Y182920D01*
X468908Y182954D01*
X468968Y182979D01*
X469003Y183010D01*
X469044Y183035D01*
X469086Y183086D01*
X469134Y183130D01*
X469156Y183172D01*
X469185Y183209D01*
X469206Y183271D01*
X469237Y183330D01*
X469245Y183384D01*
X469257Y183421D01*
X469256Y183461D01*
X469264Y183515D01*
X469264Y187325D01*
X469253Y187390D01*
X469251Y187456D01*
X469233Y187499D01*
X469225Y187546D01*
X469191Y187603D01*
X469166Y187663D01*
X469135Y187698D01*
X469110Y187739D01*
X469059Y187781D01*
X469015Y187829D01*
X468973Y187851D01*
X468936Y187880D01*
X468874Y187901D01*
X468815Y187932D01*
X468761Y187940D01*
X468724Y187952D01*
X468684Y187951D01*
X468630Y187959D01*
X466090Y187959D01*
X466025Y187948D01*
X465959Y187946D01*
X465916Y187928D01*
X465869Y187920D01*
X465812Y187886D01*
X465752Y187861D01*
X465717Y187830D01*
X465676Y187805D01*
X465635Y187754D01*
X465586Y187710D01*
X465564Y187668D01*
X465535Y187631D01*
X465514Y187569D01*
X465483Y187510D01*
X465475Y187456D01*
X465463Y187419D01*
X465463Y187415D01*
X465463Y187414D01*
X465464Y187379D01*
X465456Y187325D01*
X465456Y183515D01*
X465467Y183450D01*
X465469Y183384D01*
X465487Y183341D01*
X465495Y183294D01*
X465529Y183237D01*
X465554Y183177D01*
X465585Y183142D01*
X465610Y183101D01*
X465661Y183060D01*
X465705Y183011D01*
X465747Y182989D01*
X465784Y182960D01*
X465846Y182939D01*
X465905Y182908D01*
X465959Y182900D01*
X465996Y182888D01*
X466036Y182889D01*
X466090Y182881D01*
X468630Y182881D01*
X468695Y182892D01*
G37*
G36*
X102935Y182892D02*
X102935Y182892D01*
X103001Y182894D01*
X103044Y182912D01*
X103091Y182920D01*
X103148Y182954D01*
X103208Y182979D01*
X103243Y183010D01*
X103284Y183035D01*
X103326Y183086D01*
X103374Y183130D01*
X103396Y183172D01*
X103425Y183209D01*
X103446Y183271D01*
X103477Y183330D01*
X103485Y183384D01*
X103497Y183421D01*
X103496Y183461D01*
X103504Y183515D01*
X103504Y187325D01*
X103493Y187390D01*
X103491Y187456D01*
X103473Y187499D01*
X103465Y187546D01*
X103431Y187603D01*
X103406Y187663D01*
X103375Y187698D01*
X103350Y187739D01*
X103299Y187781D01*
X103255Y187829D01*
X103213Y187851D01*
X103176Y187880D01*
X103114Y187901D01*
X103055Y187932D01*
X103001Y187940D01*
X102964Y187952D01*
X102924Y187951D01*
X102870Y187959D01*
X100330Y187959D01*
X100265Y187948D01*
X100199Y187946D01*
X100156Y187928D01*
X100109Y187920D01*
X100052Y187886D01*
X99992Y187861D01*
X99957Y187830D01*
X99916Y187805D01*
X99875Y187754D01*
X99826Y187710D01*
X99804Y187668D01*
X99775Y187631D01*
X99754Y187569D01*
X99723Y187510D01*
X99715Y187456D01*
X99703Y187419D01*
X99703Y187415D01*
X99703Y187414D01*
X99704Y187379D01*
X99696Y187325D01*
X99696Y183515D01*
X99707Y183450D01*
X99709Y183384D01*
X99727Y183341D01*
X99735Y183294D01*
X99769Y183237D01*
X99794Y183177D01*
X99825Y183142D01*
X99850Y183101D01*
X99901Y183060D01*
X99945Y183011D01*
X99987Y182989D01*
X100024Y182960D01*
X100086Y182939D01*
X100145Y182908D01*
X100199Y182900D01*
X100236Y182888D01*
X100276Y182889D01*
X100330Y182881D01*
X102870Y182881D01*
X102935Y182892D01*
G37*
G36*
X468695Y172732D02*
X468695Y172732D01*
X468761Y172734D01*
X468804Y172752D01*
X468851Y172760D01*
X468908Y172794D01*
X468968Y172819D01*
X469003Y172850D01*
X469044Y172875D01*
X469086Y172926D01*
X469134Y172970D01*
X469156Y173012D01*
X469185Y173049D01*
X469206Y173111D01*
X469237Y173170D01*
X469245Y173224D01*
X469257Y173261D01*
X469256Y173301D01*
X469264Y173355D01*
X469264Y177165D01*
X469253Y177230D01*
X469251Y177296D01*
X469233Y177339D01*
X469225Y177386D01*
X469191Y177443D01*
X469166Y177503D01*
X469135Y177538D01*
X469110Y177579D01*
X469059Y177621D01*
X469015Y177669D01*
X468973Y177691D01*
X468936Y177720D01*
X468874Y177741D01*
X468815Y177772D01*
X468761Y177780D01*
X468724Y177792D01*
X468684Y177791D01*
X468630Y177799D01*
X466090Y177799D01*
X466025Y177788D01*
X465959Y177786D01*
X465916Y177768D01*
X465869Y177760D01*
X465812Y177726D01*
X465752Y177701D01*
X465717Y177670D01*
X465676Y177645D01*
X465635Y177594D01*
X465586Y177550D01*
X465564Y177508D01*
X465535Y177471D01*
X465514Y177409D01*
X465483Y177350D01*
X465475Y177296D01*
X465463Y177259D01*
X465463Y177255D01*
X465463Y177254D01*
X465464Y177219D01*
X465456Y177165D01*
X465456Y173355D01*
X465467Y173290D01*
X465469Y173224D01*
X465487Y173181D01*
X465495Y173134D01*
X465529Y173077D01*
X465554Y173017D01*
X465585Y172982D01*
X465610Y172941D01*
X465661Y172900D01*
X465705Y172851D01*
X465747Y172829D01*
X465784Y172800D01*
X465846Y172779D01*
X465905Y172748D01*
X465959Y172740D01*
X465996Y172728D01*
X466036Y172729D01*
X466090Y172721D01*
X468630Y172721D01*
X468695Y172732D01*
G37*
G36*
X834455Y172732D02*
X834455Y172732D01*
X834521Y172734D01*
X834564Y172752D01*
X834611Y172760D01*
X834668Y172794D01*
X834728Y172819D01*
X834763Y172850D01*
X834804Y172875D01*
X834846Y172926D01*
X834894Y172970D01*
X834916Y173012D01*
X834945Y173049D01*
X834966Y173111D01*
X834997Y173170D01*
X835005Y173224D01*
X835017Y173261D01*
X835016Y173301D01*
X835024Y173355D01*
X835024Y177165D01*
X835013Y177230D01*
X835011Y177296D01*
X834993Y177339D01*
X834985Y177386D01*
X834951Y177443D01*
X834926Y177503D01*
X834895Y177538D01*
X834870Y177579D01*
X834819Y177621D01*
X834775Y177669D01*
X834733Y177691D01*
X834696Y177720D01*
X834634Y177741D01*
X834575Y177772D01*
X834521Y177780D01*
X834484Y177792D01*
X834444Y177791D01*
X834390Y177799D01*
X831850Y177799D01*
X831785Y177788D01*
X831719Y177786D01*
X831676Y177768D01*
X831629Y177760D01*
X831572Y177726D01*
X831512Y177701D01*
X831477Y177670D01*
X831436Y177645D01*
X831395Y177594D01*
X831346Y177550D01*
X831324Y177508D01*
X831295Y177471D01*
X831274Y177409D01*
X831243Y177350D01*
X831235Y177296D01*
X831223Y177259D01*
X831223Y177255D01*
X831223Y177254D01*
X831224Y177219D01*
X831216Y177165D01*
X831216Y173355D01*
X831227Y173290D01*
X831229Y173224D01*
X831247Y173181D01*
X831255Y173134D01*
X831289Y173077D01*
X831314Y173017D01*
X831345Y172982D01*
X831370Y172941D01*
X831421Y172900D01*
X831465Y172851D01*
X831507Y172829D01*
X831544Y172800D01*
X831606Y172779D01*
X831665Y172748D01*
X831719Y172740D01*
X831756Y172728D01*
X831796Y172729D01*
X831850Y172721D01*
X834390Y172721D01*
X834455Y172732D01*
G37*
G36*
X1200215Y172732D02*
X1200215Y172732D01*
X1200281Y172734D01*
X1200324Y172752D01*
X1200371Y172760D01*
X1200428Y172794D01*
X1200488Y172819D01*
X1200523Y172850D01*
X1200564Y172875D01*
X1200606Y172926D01*
X1200654Y172970D01*
X1200676Y173012D01*
X1200705Y173049D01*
X1200726Y173111D01*
X1200757Y173170D01*
X1200765Y173224D01*
X1200777Y173261D01*
X1200776Y173301D01*
X1200784Y173355D01*
X1200784Y177165D01*
X1200773Y177230D01*
X1200771Y177296D01*
X1200753Y177339D01*
X1200745Y177386D01*
X1200711Y177443D01*
X1200686Y177503D01*
X1200655Y177538D01*
X1200630Y177579D01*
X1200579Y177621D01*
X1200535Y177669D01*
X1200493Y177691D01*
X1200456Y177720D01*
X1200394Y177741D01*
X1200335Y177772D01*
X1200281Y177780D01*
X1200244Y177792D01*
X1200204Y177791D01*
X1200150Y177799D01*
X1197610Y177799D01*
X1197545Y177788D01*
X1197479Y177786D01*
X1197436Y177768D01*
X1197389Y177760D01*
X1197332Y177726D01*
X1197272Y177701D01*
X1197237Y177670D01*
X1197196Y177645D01*
X1197155Y177594D01*
X1197106Y177550D01*
X1197084Y177508D01*
X1197055Y177471D01*
X1197034Y177409D01*
X1197003Y177350D01*
X1196995Y177296D01*
X1196983Y177259D01*
X1196983Y177255D01*
X1196983Y177254D01*
X1196984Y177219D01*
X1196976Y177165D01*
X1196976Y173355D01*
X1196987Y173290D01*
X1196989Y173224D01*
X1197007Y173181D01*
X1197015Y173134D01*
X1197049Y173077D01*
X1197074Y173017D01*
X1197105Y172982D01*
X1197130Y172941D01*
X1197181Y172900D01*
X1197225Y172851D01*
X1197267Y172829D01*
X1197304Y172800D01*
X1197366Y172779D01*
X1197425Y172748D01*
X1197479Y172740D01*
X1197516Y172728D01*
X1197556Y172729D01*
X1197610Y172721D01*
X1200150Y172721D01*
X1200215Y172732D01*
G37*
G36*
X651575Y172732D02*
X651575Y172732D01*
X651641Y172734D01*
X651684Y172752D01*
X651731Y172760D01*
X651788Y172794D01*
X651848Y172819D01*
X651883Y172850D01*
X651924Y172875D01*
X651966Y172926D01*
X652014Y172970D01*
X652036Y173012D01*
X652065Y173049D01*
X652086Y173111D01*
X652117Y173170D01*
X652125Y173224D01*
X652137Y173261D01*
X652136Y173301D01*
X652144Y173355D01*
X652144Y177165D01*
X652133Y177230D01*
X652131Y177296D01*
X652113Y177339D01*
X652105Y177386D01*
X652071Y177443D01*
X652046Y177503D01*
X652015Y177538D01*
X651990Y177579D01*
X651939Y177621D01*
X651895Y177669D01*
X651853Y177691D01*
X651816Y177720D01*
X651754Y177741D01*
X651695Y177772D01*
X651641Y177780D01*
X651604Y177792D01*
X651564Y177791D01*
X651510Y177799D01*
X648970Y177799D01*
X648905Y177788D01*
X648839Y177786D01*
X648796Y177768D01*
X648749Y177760D01*
X648692Y177726D01*
X648632Y177701D01*
X648597Y177670D01*
X648556Y177645D01*
X648515Y177594D01*
X648466Y177550D01*
X648444Y177508D01*
X648415Y177471D01*
X648394Y177409D01*
X648363Y177350D01*
X648355Y177296D01*
X648343Y177259D01*
X648343Y177255D01*
X648343Y177254D01*
X648344Y177219D01*
X648336Y177165D01*
X648336Y173355D01*
X648347Y173290D01*
X648349Y173224D01*
X648367Y173181D01*
X648375Y173134D01*
X648409Y173077D01*
X648434Y173017D01*
X648465Y172982D01*
X648490Y172941D01*
X648541Y172900D01*
X648585Y172851D01*
X648627Y172829D01*
X648664Y172800D01*
X648726Y172779D01*
X648785Y172748D01*
X648839Y172740D01*
X648876Y172728D01*
X648916Y172729D01*
X648970Y172721D01*
X651510Y172721D01*
X651575Y172732D01*
G37*
G36*
X285815Y172732D02*
X285815Y172732D01*
X285881Y172734D01*
X285924Y172752D01*
X285971Y172760D01*
X286028Y172794D01*
X286088Y172819D01*
X286123Y172850D01*
X286164Y172875D01*
X286206Y172926D01*
X286254Y172970D01*
X286276Y173012D01*
X286305Y173049D01*
X286326Y173111D01*
X286357Y173170D01*
X286365Y173224D01*
X286377Y173261D01*
X286376Y173301D01*
X286384Y173355D01*
X286384Y177165D01*
X286373Y177230D01*
X286371Y177296D01*
X286353Y177339D01*
X286345Y177386D01*
X286311Y177443D01*
X286286Y177503D01*
X286255Y177538D01*
X286230Y177579D01*
X286179Y177621D01*
X286135Y177669D01*
X286093Y177691D01*
X286056Y177720D01*
X285994Y177741D01*
X285935Y177772D01*
X285881Y177780D01*
X285844Y177792D01*
X285804Y177791D01*
X285750Y177799D01*
X283210Y177799D01*
X283145Y177788D01*
X283079Y177786D01*
X283036Y177768D01*
X282989Y177760D01*
X282932Y177726D01*
X282872Y177701D01*
X282837Y177670D01*
X282796Y177645D01*
X282755Y177594D01*
X282706Y177550D01*
X282684Y177508D01*
X282655Y177471D01*
X282634Y177409D01*
X282603Y177350D01*
X282595Y177296D01*
X282583Y177259D01*
X282583Y177255D01*
X282583Y177254D01*
X282584Y177219D01*
X282576Y177165D01*
X282576Y173355D01*
X282587Y173290D01*
X282589Y173224D01*
X282607Y173181D01*
X282615Y173134D01*
X282649Y173077D01*
X282674Y173017D01*
X282705Y172982D01*
X282730Y172941D01*
X282781Y172900D01*
X282825Y172851D01*
X282867Y172829D01*
X282904Y172800D01*
X282966Y172779D01*
X283025Y172748D01*
X283079Y172740D01*
X283116Y172728D01*
X283156Y172729D01*
X283210Y172721D01*
X285750Y172721D01*
X285815Y172732D01*
G37*
G36*
X1017335Y172732D02*
X1017335Y172732D01*
X1017401Y172734D01*
X1017444Y172752D01*
X1017491Y172760D01*
X1017548Y172794D01*
X1017608Y172819D01*
X1017643Y172850D01*
X1017684Y172875D01*
X1017726Y172926D01*
X1017774Y172970D01*
X1017796Y173012D01*
X1017825Y173049D01*
X1017846Y173111D01*
X1017877Y173170D01*
X1017885Y173224D01*
X1017897Y173261D01*
X1017896Y173301D01*
X1017904Y173355D01*
X1017904Y177165D01*
X1017893Y177230D01*
X1017891Y177296D01*
X1017873Y177339D01*
X1017865Y177386D01*
X1017831Y177443D01*
X1017806Y177503D01*
X1017775Y177538D01*
X1017750Y177579D01*
X1017699Y177621D01*
X1017655Y177669D01*
X1017613Y177691D01*
X1017576Y177720D01*
X1017514Y177741D01*
X1017455Y177772D01*
X1017401Y177780D01*
X1017364Y177792D01*
X1017324Y177791D01*
X1017270Y177799D01*
X1014730Y177799D01*
X1014665Y177788D01*
X1014599Y177786D01*
X1014556Y177768D01*
X1014509Y177760D01*
X1014452Y177726D01*
X1014392Y177701D01*
X1014357Y177670D01*
X1014316Y177645D01*
X1014275Y177594D01*
X1014226Y177550D01*
X1014204Y177508D01*
X1014175Y177471D01*
X1014154Y177409D01*
X1014123Y177350D01*
X1014115Y177296D01*
X1014103Y177259D01*
X1014103Y177255D01*
X1014103Y177254D01*
X1014104Y177219D01*
X1014096Y177165D01*
X1014096Y173355D01*
X1014107Y173290D01*
X1014109Y173224D01*
X1014127Y173181D01*
X1014135Y173134D01*
X1014169Y173077D01*
X1014194Y173017D01*
X1014225Y172982D01*
X1014250Y172941D01*
X1014301Y172900D01*
X1014345Y172851D01*
X1014387Y172829D01*
X1014424Y172800D01*
X1014486Y172779D01*
X1014545Y172748D01*
X1014599Y172740D01*
X1014636Y172728D01*
X1014676Y172729D01*
X1014730Y172721D01*
X1017270Y172721D01*
X1017335Y172732D01*
G37*
G36*
X102935Y172732D02*
X102935Y172732D01*
X103001Y172734D01*
X103044Y172752D01*
X103091Y172760D01*
X103148Y172794D01*
X103208Y172819D01*
X103243Y172850D01*
X103284Y172875D01*
X103326Y172926D01*
X103374Y172970D01*
X103396Y173012D01*
X103425Y173049D01*
X103446Y173111D01*
X103477Y173170D01*
X103485Y173224D01*
X103497Y173261D01*
X103496Y173301D01*
X103504Y173355D01*
X103504Y177165D01*
X103493Y177230D01*
X103491Y177296D01*
X103473Y177339D01*
X103465Y177386D01*
X103431Y177443D01*
X103406Y177503D01*
X103375Y177538D01*
X103350Y177579D01*
X103299Y177621D01*
X103255Y177669D01*
X103213Y177691D01*
X103176Y177720D01*
X103114Y177741D01*
X103055Y177772D01*
X103001Y177780D01*
X102964Y177792D01*
X102924Y177791D01*
X102870Y177799D01*
X100330Y177799D01*
X100265Y177788D01*
X100199Y177786D01*
X100156Y177768D01*
X100109Y177760D01*
X100052Y177726D01*
X99992Y177701D01*
X99957Y177670D01*
X99916Y177645D01*
X99875Y177594D01*
X99826Y177550D01*
X99804Y177508D01*
X99775Y177471D01*
X99754Y177409D01*
X99723Y177350D01*
X99715Y177296D01*
X99703Y177259D01*
X99703Y177255D01*
X99703Y177254D01*
X99704Y177219D01*
X99696Y177165D01*
X99696Y173355D01*
X99707Y173290D01*
X99709Y173224D01*
X99727Y173181D01*
X99735Y173134D01*
X99769Y173077D01*
X99794Y173017D01*
X99825Y172982D01*
X99850Y172941D01*
X99901Y172900D01*
X99945Y172851D01*
X99987Y172829D01*
X100024Y172800D01*
X100086Y172779D01*
X100145Y172748D01*
X100199Y172740D01*
X100236Y172728D01*
X100276Y172729D01*
X100330Y172721D01*
X102870Y172721D01*
X102935Y172732D01*
G37*
D10*
X165100Y520700D03*
X31750Y8890D03*
D11*
X12700Y317500D03*
X12700Y292100D03*
X12700Y266700D03*
X12700Y241300D03*
X12700Y139700D03*
X12700Y114300D03*
X12700Y88900D03*
X12700Y63500D03*
X12700Y38100D03*
X12700Y12700D03*
X165100Y12700D03*
X165100Y38100D03*
X165100Y63500D03*
X165100Y88900D03*
X165100Y114300D03*
X165100Y139700D03*
X165100Y165100D03*
X165100Y190500D03*
X165100Y215900D03*
X165100Y241300D03*
X165100Y266700D03*
X165100Y292100D03*
X165100Y317500D03*
X139700Y203200D03*
X139700Y228600D03*
X139700Y254000D03*
X139700Y279400D03*
X25400Y342900D03*
X50800Y342900D03*
X76200Y342900D03*
X101600Y342900D03*
X127000Y342900D03*
X152400Y342900D03*
X25400Y368300D03*
X50800Y368300D03*
X76200Y368300D03*
X101600Y368300D03*
X127000Y368300D03*
X152400Y368300D03*
X25400Y393700D03*
X50800Y393700D03*
X76200Y393700D03*
X101600Y393700D03*
X127000Y393700D03*
X152400Y393700D03*
X25400Y419100D03*
X50800Y419100D03*
X76200Y419100D03*
X101600Y419100D03*
X127000Y419100D03*
X152400Y419100D03*
D12*
X60000Y49050D03*
X117800Y49050D03*
D13*
X101600Y190754D03*
X101600Y180340D03*
X101600Y169926D03*
D14*
X161400Y540750D02*
X161400Y555750D01*
X16400Y555750D02*
X16400Y540750D01*
D15*
X161400Y498025D02*
X161400Y479275D01*
X16400Y479275D02*
X16400Y498025D01*
D10*
X347980Y520700D03*
X214630Y8890D03*
D11*
X195580Y317500D03*
X195580Y292100D03*
X195580Y266700D03*
X195580Y241300D03*
X195580Y139700D03*
X195580Y114300D03*
X195580Y88900D03*
X195580Y63500D03*
X195580Y38100D03*
X195580Y12700D03*
X347980Y12700D03*
X347980Y38100D03*
X347980Y63500D03*
X347980Y88900D03*
X347980Y114300D03*
X347980Y139700D03*
X347980Y165100D03*
X347980Y190500D03*
X347980Y215900D03*
X347980Y241300D03*
X347980Y266700D03*
X347980Y292100D03*
X347980Y317500D03*
X322580Y203200D03*
X322580Y228600D03*
X322580Y254000D03*
X322580Y279400D03*
X208280Y342900D03*
X233680Y342900D03*
X259080Y342900D03*
X284480Y342900D03*
X309880Y342900D03*
X335280Y342900D03*
X208280Y368300D03*
X233680Y368300D03*
X259080Y368300D03*
X284480Y368300D03*
X309880Y368300D03*
X335280Y368300D03*
X208280Y393700D03*
X233680Y393700D03*
X259080Y393700D03*
X284480Y393700D03*
X309880Y393700D03*
X335280Y393700D03*
X208280Y419100D03*
X233680Y419100D03*
X259080Y419100D03*
X284480Y419100D03*
X309880Y419100D03*
X335280Y419100D03*
D12*
X242880Y49050D03*
X300680Y49050D03*
D13*
X284480Y190754D03*
X284480Y180340D03*
X284480Y169926D03*
D14*
X344280Y540750D02*
X344280Y555750D01*
X199280Y555750D02*
X199280Y540750D01*
D15*
X344280Y498025D02*
X344280Y479275D01*
X199280Y479275D02*
X199280Y498025D01*
D10*
X530860Y520700D03*
X397510Y8890D03*
D11*
X378460Y317500D03*
X378460Y292100D03*
X378460Y266700D03*
X378460Y241300D03*
X378460Y139700D03*
X378460Y114300D03*
X378460Y88900D03*
X378460Y63500D03*
X378460Y38100D03*
X378460Y12700D03*
X530860Y12700D03*
X530860Y38100D03*
X530860Y63500D03*
X530860Y88900D03*
X530860Y114300D03*
X530860Y139700D03*
X530860Y165100D03*
X530860Y190500D03*
X530860Y215900D03*
X530860Y241300D03*
X530860Y266700D03*
X530860Y292100D03*
X530860Y317500D03*
X505460Y203200D03*
X505460Y228600D03*
X505460Y254000D03*
X505460Y279400D03*
X391160Y342900D03*
X416560Y342900D03*
X441960Y342900D03*
X467360Y342900D03*
X492760Y342900D03*
X518160Y342900D03*
X391160Y368300D03*
X416560Y368300D03*
X441960Y368300D03*
X467360Y368300D03*
X492760Y368300D03*
X518160Y368300D03*
X391160Y393700D03*
X416560Y393700D03*
X441960Y393700D03*
X467360Y393700D03*
X492760Y393700D03*
X518160Y393700D03*
X391160Y419100D03*
X416560Y419100D03*
X441960Y419100D03*
X467360Y419100D03*
X492760Y419100D03*
X518160Y419100D03*
D12*
X425760Y49050D03*
X483560Y49050D03*
D13*
X467360Y190754D03*
X467360Y180340D03*
X467360Y169926D03*
D14*
X527160Y540750D02*
X527160Y555750D01*
X382160Y555750D02*
X382160Y540750D01*
D15*
X527160Y498025D02*
X527160Y479275D01*
X382160Y479275D02*
X382160Y498025D01*
D10*
X713740Y520700D03*
X580390Y8890D03*
D11*
X561340Y317500D03*
X561340Y292100D03*
X561340Y266700D03*
X561340Y241300D03*
X561340Y139700D03*
X561340Y114300D03*
X561340Y88900D03*
X561340Y63500D03*
X561340Y38100D03*
X561340Y12700D03*
X713740Y12700D03*
X713740Y38100D03*
X713740Y63500D03*
X713740Y88900D03*
X713740Y114300D03*
X713740Y139700D03*
X713740Y165100D03*
X713740Y190500D03*
X713740Y215900D03*
X713740Y241300D03*
X713740Y266700D03*
X713740Y292100D03*
X713740Y317500D03*
X688340Y203200D03*
X688340Y228600D03*
X688340Y254000D03*
X688340Y279400D03*
X574040Y342900D03*
X599440Y342900D03*
X624840Y342900D03*
X650240Y342900D03*
X675640Y342900D03*
X701040Y342900D03*
X574040Y368300D03*
X599440Y368300D03*
X624840Y368300D03*
X650240Y368300D03*
X675640Y368300D03*
X701040Y368300D03*
X574040Y393700D03*
X599440Y393700D03*
X624840Y393700D03*
X650240Y393700D03*
X675640Y393700D03*
X701040Y393700D03*
X574040Y419100D03*
X599440Y419100D03*
X624840Y419100D03*
X650240Y419100D03*
X675640Y419100D03*
X701040Y419100D03*
D12*
X608640Y49050D03*
X666440Y49050D03*
D13*
X650240Y190754D03*
X650240Y180340D03*
X650240Y169926D03*
D14*
X710040Y540750D02*
X710040Y555750D01*
X565040Y555750D02*
X565040Y540750D01*
D15*
X710040Y498025D02*
X710040Y479275D01*
X565040Y479275D02*
X565040Y498025D01*
D10*
X896620Y520700D03*
X763270Y8890D03*
D11*
X744220Y317500D03*
X744220Y292100D03*
X744220Y266700D03*
X744220Y241300D03*
X744220Y139700D03*
X744220Y114300D03*
X744220Y88900D03*
X744220Y63500D03*
X744220Y38100D03*
X744220Y12700D03*
X896620Y12700D03*
X896620Y38100D03*
X896620Y63500D03*
X896620Y88900D03*
X896620Y114300D03*
X896620Y139700D03*
X896620Y165100D03*
X896620Y190500D03*
X896620Y215900D03*
X896620Y241300D03*
X896620Y266700D03*
X896620Y292100D03*
X896620Y317500D03*
X871220Y203200D03*
X871220Y228600D03*
X871220Y254000D03*
X871220Y279400D03*
X756920Y342900D03*
X782320Y342900D03*
X807720Y342900D03*
X833120Y342900D03*
X858520Y342900D03*
X883920Y342900D03*
X756920Y368300D03*
X782320Y368300D03*
X807720Y368300D03*
X833120Y368300D03*
X858520Y368300D03*
X883920Y368300D03*
X756920Y393700D03*
X782320Y393700D03*
X807720Y393700D03*
X833120Y393700D03*
X858520Y393700D03*
X883920Y393700D03*
X756920Y419100D03*
X782320Y419100D03*
X807720Y419100D03*
X833120Y419100D03*
X858520Y419100D03*
X883920Y419100D03*
D12*
X791520Y49050D03*
X849320Y49050D03*
D13*
X833120Y190754D03*
X833120Y180340D03*
X833120Y169926D03*
D14*
X892920Y540750D02*
X892920Y555750D01*
X747920Y555750D02*
X747920Y540750D01*
D15*
X892920Y498025D02*
X892920Y479275D01*
X747920Y479275D02*
X747920Y498025D01*
D10*
X1079500Y520700D03*
X946150Y8890D03*
D11*
X927100Y317500D03*
X927100Y292100D03*
X927100Y266700D03*
X927100Y241300D03*
X927100Y139700D03*
X927100Y114300D03*
X927100Y88900D03*
X927100Y63500D03*
X927100Y38100D03*
X927100Y12700D03*
X1079500Y12700D03*
X1079500Y38100D03*
X1079500Y63500D03*
X1079500Y88900D03*
X1079500Y114300D03*
X1079500Y139700D03*
X1079500Y165100D03*
X1079500Y190500D03*
X1079500Y215900D03*
X1079500Y241300D03*
X1079500Y266700D03*
X1079500Y292100D03*
X1079500Y317500D03*
X1054100Y203200D03*
X1054100Y228600D03*
X1054100Y254000D03*
X1054100Y279400D03*
X939800Y342900D03*
X965200Y342900D03*
X990600Y342900D03*
X1016000Y342900D03*
X1041400Y342900D03*
X1066800Y342900D03*
X939800Y368300D03*
X965200Y368300D03*
X990600Y368300D03*
X1016000Y368300D03*
X1041400Y368300D03*
X1066800Y368300D03*
X939800Y393700D03*
X965200Y393700D03*
X990600Y393700D03*
X1016000Y393700D03*
X1041400Y393700D03*
X1066800Y393700D03*
X939800Y419100D03*
X965200Y419100D03*
X990600Y419100D03*
X1016000Y419100D03*
X1041400Y419100D03*
X1066800Y419100D03*
D12*
X974400Y49050D03*
X1032200Y49050D03*
D13*
X1016000Y190754D03*
X1016000Y180340D03*
X1016000Y169926D03*
D14*
X1075800Y540750D02*
X1075800Y555750D01*
X930800Y555750D02*
X930800Y540750D01*
D15*
X1075800Y498025D02*
X1075800Y479275D01*
X930800Y479275D02*
X930800Y498025D01*
D10*
X1262380Y520700D03*
X1129030Y8890D03*
D11*
X1109980Y317500D03*
X1109980Y292100D03*
X1109980Y266700D03*
X1109980Y241300D03*
X1109980Y139700D03*
X1109980Y114300D03*
X1109980Y88900D03*
X1109980Y63500D03*
X1109980Y38100D03*
X1109980Y12700D03*
X1262380Y12700D03*
X1262380Y38100D03*
X1262380Y63500D03*
X1262380Y88900D03*
X1262380Y114300D03*
X1262380Y139700D03*
X1262380Y165100D03*
X1262380Y190500D03*
X1262380Y215900D03*
X1262380Y241300D03*
X1262380Y266700D03*
X1262380Y292100D03*
X1262380Y317500D03*
X1236980Y203200D03*
X1236980Y228600D03*
X1236980Y254000D03*
X1236980Y279400D03*
X1122680Y342900D03*
X1148080Y342900D03*
X1173480Y342900D03*
X1198880Y342900D03*
X1224280Y342900D03*
X1249680Y342900D03*
X1122680Y368300D03*
X1148080Y368300D03*
X1173480Y368300D03*
X1198880Y368300D03*
X1224280Y368300D03*
X1249680Y368300D03*
X1122680Y393700D03*
X1148080Y393700D03*
X1173480Y393700D03*
X1198880Y393700D03*
X1224280Y393700D03*
X1249680Y393700D03*
X1122680Y419100D03*
X1148080Y419100D03*
X1173480Y419100D03*
X1198880Y419100D03*
X1224280Y419100D03*
X1249680Y419100D03*
D12*
X1157280Y49050D03*
X1215080Y49050D03*
D13*
X1198880Y190754D03*
X1198880Y180340D03*
X1198880Y169926D03*
D14*
X1258680Y540750D02*
X1258680Y555750D01*
X1113680Y555750D02*
X1113680Y540750D01*
D15*
X1258680Y498025D02*
X1258680Y479275D01*
X1113680Y479275D02*
X1113680Y498025D01*
D10*
X165100Y1143000D03*
X31750Y631190D03*
D11*
X12700Y939800D03*
X12700Y914400D03*
X12700Y889000D03*
X12700Y863600D03*
X12700Y762000D03*
X12700Y736600D03*
X12700Y711200D03*
X12700Y685800D03*
X12700Y660400D03*
X12700Y635000D03*
X165100Y635000D03*
X165100Y660400D03*
X165100Y685800D03*
X165100Y711200D03*
X165100Y736600D03*
X165100Y762000D03*
X165100Y787400D03*
X165100Y812800D03*
X165100Y838200D03*
X165100Y863600D03*
X165100Y889000D03*
X165100Y914400D03*
X165100Y939800D03*
X139700Y825500D03*
X139700Y850900D03*
X139700Y876300D03*
X139700Y901700D03*
X25400Y965200D03*
X50800Y965200D03*
X76200Y965200D03*
X101600Y965200D03*
X127000Y965200D03*
X152400Y965200D03*
X25400Y990600D03*
X50800Y990600D03*
X76200Y990600D03*
X101600Y990600D03*
X127000Y990600D03*
X152400Y990600D03*
X25400Y1016000D03*
X50800Y1016000D03*
X76200Y1016000D03*
X101600Y1016000D03*
X127000Y1016000D03*
X152400Y1016000D03*
X25400Y1041400D03*
X50800Y1041400D03*
X76200Y1041400D03*
X101600Y1041400D03*
X127000Y1041400D03*
X152400Y1041400D03*
D12*
X60000Y671350D03*
X117800Y671350D03*
D13*
X101600Y813054D03*
X101600Y802640D03*
X101600Y792226D03*
D14*
X161400Y1163050D02*
X161400Y1178050D01*
X16400Y1178050D02*
X16400Y1163050D01*
D15*
X161400Y1120325D02*
X161400Y1101575D01*
X16400Y1101575D02*
X16400Y1120325D01*
D10*
X347980Y1143000D03*
X214630Y631190D03*
D11*
X195580Y939800D03*
X195580Y914400D03*
X195580Y889000D03*
X195580Y863600D03*
X195580Y762000D03*
X195580Y736600D03*
X195580Y711200D03*
X195580Y685800D03*
X195580Y660400D03*
X195580Y635000D03*
X347980Y635000D03*
X347980Y660400D03*
X347980Y685800D03*
X347980Y711200D03*
X347980Y736600D03*
X347980Y762000D03*
X347980Y787400D03*
X347980Y812800D03*
X347980Y838200D03*
X347980Y863600D03*
X347980Y889000D03*
X347980Y914400D03*
X347980Y939800D03*
X322580Y825500D03*
X322580Y850900D03*
X322580Y876300D03*
X322580Y901700D03*
X208280Y965200D03*
X233680Y965200D03*
X259080Y965200D03*
X284480Y965200D03*
X309880Y965200D03*
X335280Y965200D03*
X208280Y990600D03*
X233680Y990600D03*
X259080Y990600D03*
X284480Y990600D03*
X309880Y990600D03*
X335280Y990600D03*
X208280Y1016000D03*
X233680Y1016000D03*
X259080Y1016000D03*
X284480Y1016000D03*
X309880Y1016000D03*
X335280Y1016000D03*
X208280Y1041400D03*
X233680Y1041400D03*
X259080Y1041400D03*
X284480Y1041400D03*
X309880Y1041400D03*
X335280Y1041400D03*
D12*
X242880Y671350D03*
X300680Y671350D03*
D13*
X284480Y813054D03*
X284480Y802640D03*
X284480Y792226D03*
D14*
X344280Y1163050D02*
X344280Y1178050D01*
X199280Y1178050D02*
X199280Y1163050D01*
D15*
X344280Y1120325D02*
X344280Y1101575D01*
X199280Y1101575D02*
X199280Y1120325D01*
D10*
X530860Y1143000D03*
X397510Y631190D03*
D11*
X378460Y939800D03*
X378460Y914400D03*
X378460Y889000D03*
X378460Y863600D03*
X378460Y762000D03*
X378460Y736600D03*
X378460Y711200D03*
X378460Y685800D03*
X378460Y660400D03*
X378460Y635000D03*
X530860Y635000D03*
X530860Y660400D03*
X530860Y685800D03*
X530860Y711200D03*
X530860Y736600D03*
X530860Y762000D03*
X530860Y787400D03*
X530860Y812800D03*
X530860Y838200D03*
X530860Y863600D03*
X530860Y889000D03*
X530860Y914400D03*
X530860Y939800D03*
X505460Y825500D03*
X505460Y850900D03*
X505460Y876300D03*
X505460Y901700D03*
X391160Y965200D03*
X416560Y965200D03*
X441960Y965200D03*
X467360Y965200D03*
X492760Y965200D03*
X518160Y965200D03*
X391160Y990600D03*
X416560Y990600D03*
X441960Y990600D03*
X467360Y990600D03*
X492760Y990600D03*
X518160Y990600D03*
X391160Y1016000D03*
X416560Y1016000D03*
X441960Y1016000D03*
X467360Y1016000D03*
X492760Y1016000D03*
X518160Y1016000D03*
X391160Y1041400D03*
X416560Y1041400D03*
X441960Y1041400D03*
X467360Y1041400D03*
X492760Y1041400D03*
X518160Y1041400D03*
D12*
X425760Y671350D03*
X483560Y671350D03*
D13*
X467360Y813054D03*
X467360Y802640D03*
X467360Y792226D03*
D14*
X527160Y1163050D02*
X527160Y1178050D01*
X382160Y1178050D02*
X382160Y1163050D01*
D15*
X527160Y1120325D02*
X527160Y1101575D01*
X382160Y1101575D02*
X382160Y1120325D01*
D10*
X713740Y1143000D03*
X580390Y631190D03*
D11*
X561340Y939800D03*
X561340Y914400D03*
X561340Y889000D03*
X561340Y863600D03*
X561340Y762000D03*
X561340Y736600D03*
X561340Y711200D03*
X561340Y685800D03*
X561340Y660400D03*
X561340Y635000D03*
X713740Y635000D03*
X713740Y660400D03*
X713740Y685800D03*
X713740Y711200D03*
X713740Y736600D03*
X713740Y762000D03*
X713740Y787400D03*
X713740Y812800D03*
X713740Y838200D03*
X713740Y863600D03*
X713740Y889000D03*
X713740Y914400D03*
X713740Y939800D03*
X688340Y825500D03*
X688340Y850900D03*
X688340Y876300D03*
X688340Y901700D03*
X574040Y965200D03*
X599440Y965200D03*
X624840Y965200D03*
X650240Y965200D03*
X675640Y965200D03*
X701040Y965200D03*
X574040Y990600D03*
X599440Y990600D03*
X624840Y990600D03*
X650240Y990600D03*
X675640Y990600D03*
X701040Y990600D03*
X574040Y1016000D03*
X599440Y1016000D03*
X624840Y1016000D03*
X650240Y1016000D03*
X675640Y1016000D03*
X701040Y1016000D03*
X574040Y1041400D03*
X599440Y1041400D03*
X624840Y1041400D03*
X650240Y1041400D03*
X675640Y1041400D03*
X701040Y1041400D03*
D12*
X608640Y671350D03*
X666440Y671350D03*
D13*
X650240Y813054D03*
X650240Y802640D03*
X650240Y792226D03*
D14*
X710040Y1163050D02*
X710040Y1178050D01*
X565040Y1178050D02*
X565040Y1163050D01*
D15*
X710040Y1120325D02*
X710040Y1101575D01*
X565040Y1101575D02*
X565040Y1120325D01*
D10*
X896620Y1143000D03*
X763270Y631190D03*
D11*
X744220Y939800D03*
X744220Y914400D03*
X744220Y889000D03*
X744220Y863600D03*
X744220Y762000D03*
X744220Y736600D03*
X744220Y711200D03*
X744220Y685800D03*
X744220Y660400D03*
X744220Y635000D03*
X896620Y635000D03*
X896620Y660400D03*
X896620Y685800D03*
X896620Y711200D03*
X896620Y736600D03*
X896620Y762000D03*
X896620Y787400D03*
X896620Y812800D03*
X896620Y838200D03*
X896620Y863600D03*
X896620Y889000D03*
X896620Y914400D03*
X896620Y939800D03*
X871220Y825500D03*
X871220Y850900D03*
X871220Y876300D03*
X871220Y901700D03*
X756920Y965200D03*
X782320Y965200D03*
X807720Y965200D03*
X833120Y965200D03*
X858520Y965200D03*
X883920Y965200D03*
X756920Y990600D03*
X782320Y990600D03*
X807720Y990600D03*
X833120Y990600D03*
X858520Y990600D03*
X883920Y990600D03*
X756920Y1016000D03*
X782320Y1016000D03*
X807720Y1016000D03*
X833120Y1016000D03*
X858520Y1016000D03*
X883920Y1016000D03*
X756920Y1041400D03*
X782320Y1041400D03*
X807720Y1041400D03*
X833120Y1041400D03*
X858520Y1041400D03*
X883920Y1041400D03*
D12*
X791520Y671350D03*
X849320Y671350D03*
D13*
X833120Y813054D03*
X833120Y802640D03*
X833120Y792226D03*
D14*
X892920Y1163050D02*
X892920Y1178050D01*
X747920Y1178050D02*
X747920Y1163050D01*
D15*
X892920Y1120325D02*
X892920Y1101575D01*
X747920Y1101575D02*
X747920Y1120325D01*
D10*
X1079500Y1143000D03*
X946150Y631190D03*
D11*
X927100Y939800D03*
X927100Y914400D03*
X927100Y889000D03*
X927100Y863600D03*
X927100Y762000D03*
X927100Y736600D03*
X927100Y711200D03*
X927100Y685800D03*
X927100Y660400D03*
X927100Y635000D03*
X1079500Y635000D03*
X1079500Y660400D03*
X1079500Y685800D03*
X1079500Y711200D03*
X1079500Y736600D03*
X1079500Y762000D03*
X1079500Y787400D03*
X1079500Y812800D03*
X1079500Y838200D03*
X1079500Y863600D03*
X1079500Y889000D03*
X1079500Y914400D03*
X1079500Y939800D03*
X1054100Y825500D03*
X1054100Y850900D03*
X1054100Y876300D03*
X1054100Y901700D03*
X939800Y965200D03*
X965200Y965200D03*
X990600Y965200D03*
X1016000Y965200D03*
X1041400Y965200D03*
X1066800Y965200D03*
X939800Y990600D03*
X965200Y990600D03*
X990600Y990600D03*
X1016000Y990600D03*
X1041400Y990600D03*
X1066800Y990600D03*
X939800Y1016000D03*
X965200Y1016000D03*
X990600Y1016000D03*
X1016000Y1016000D03*
X1041400Y1016000D03*
X1066800Y1016000D03*
X939800Y1041400D03*
X965200Y1041400D03*
X990600Y1041400D03*
X1016000Y1041400D03*
X1041400Y1041400D03*
X1066800Y1041400D03*
D12*
X974400Y671350D03*
X1032200Y671350D03*
D13*
X1016000Y813054D03*
X1016000Y802640D03*
X1016000Y792226D03*
D14*
X1075800Y1163050D02*
X1075800Y1178050D01*
X930800Y1178050D02*
X930800Y1163050D01*
D15*
X1075800Y1120325D02*
X1075800Y1101575D01*
X930800Y1101575D02*
X930800Y1120325D01*
D10*
X1262380Y1143000D03*
X1129030Y631190D03*
D11*
X1109980Y939800D03*
X1109980Y914400D03*
X1109980Y889000D03*
X1109980Y863600D03*
X1109980Y762000D03*
X1109980Y736600D03*
X1109980Y711200D03*
X1109980Y685800D03*
X1109980Y660400D03*
X1109980Y635000D03*
X1262380Y635000D03*
X1262380Y660400D03*
X1262380Y685800D03*
X1262380Y711200D03*
X1262380Y736600D03*
X1262380Y762000D03*
X1262380Y787400D03*
X1262380Y812800D03*
X1262380Y838200D03*
X1262380Y863600D03*
X1262380Y889000D03*
X1262380Y914400D03*
X1262380Y939800D03*
X1236980Y825500D03*
X1236980Y850900D03*
X1236980Y876300D03*
X1236980Y901700D03*
X1122680Y965200D03*
X1148080Y965200D03*
X1173480Y965200D03*
X1198880Y965200D03*
X1224280Y965200D03*
X1249680Y965200D03*
X1122680Y990600D03*
X1148080Y990600D03*
X1173480Y990600D03*
X1198880Y990600D03*
X1224280Y990600D03*
X1249680Y990600D03*
X1122680Y1016000D03*
X1148080Y1016000D03*
X1173480Y1016000D03*
X1198880Y1016000D03*
X1224280Y1016000D03*
X1249680Y1016000D03*
X1122680Y1041400D03*
X1148080Y1041400D03*
X1173480Y1041400D03*
X1198880Y1041400D03*
X1224280Y1041400D03*
X1249680Y1041400D03*
D12*
X1157280Y671350D03*
X1215080Y671350D03*
D13*
X1198880Y813054D03*
X1198880Y802640D03*
X1198880Y792226D03*
D14*
X1258680Y1163050D02*
X1258680Y1178050D01*
X1113680Y1178050D02*
X1113680Y1163050D01*
D15*
X1258680Y1120325D02*
X1258680Y1101575D01*
X1113680Y1101575D02*
X1113680Y1120325D01*
D10*
X-26238Y1228725D03*
X1301318Y1228725D03*
M02*
