M48
;GenerationSoftware,Autodesk,EAGLE,9.6.2*%
;CreationDate,2020-08-18T11:39:59Z*%
FMAT,2
ICI,OFF
METRIC,TZ,000.000
T5C0.300
T4C0.400
T3C0.650
T2C1.000
T1C1.016
%
G90
M71
T1
X34798Y11430
X34798Y8890
X34798Y6350
X34798Y3810
X34798Y1270
X19558Y1270
X19558Y3810
X19558Y6350
X19558Y8890
X19558Y11430
X19558Y13970
X19558Y24130
X19558Y26670
X19558Y29210
X19558Y31750
X28448Y39370
X25908Y39370
X23368Y39370
X20828Y39370
X15240Y41910
X12700Y41910
X10160Y41910
X7620Y41910
X5080Y41910
X2540Y41910
X15240Y39370
X12700Y39370
X10160Y39370
X7620Y39370
X5080Y39370
X2540Y39370
X15240Y36830
X12700Y36830
X10160Y36830
X7620Y36830
X5080Y36830
X2540Y36830
X15240Y34290
X12700Y34290
X10160Y34290
X7620Y34290
X5080Y34290
X2540Y34290
X13970Y27940
X13970Y25400
X13970Y22860
X13970Y20320
X16510Y31750
X16510Y29210
X16510Y26670
X16510Y24130
X16510Y21590
X16510Y19050
X16510Y16510
X16510Y13970
X16510Y11430
X16510Y8890
X16510Y6350
X16510Y3810
X16510Y1270
X1270Y1270
X1270Y3810
X1270Y6350
X1270Y8890
X1270Y11430
X1270Y13970
X1270Y24130
X1270Y26670
X1270Y29210
X1270Y31750
X33528Y36830
X30988Y36830
X28448Y36830
X25908Y36830
X124968Y104140
X122428Y104140
X119888Y104140
X117348Y104140
X114808Y104140
X112268Y104140
X124968Y101600
X122428Y101600
X119888Y101600
X117348Y101600
X114808Y101600
X112268Y101600
X124968Y99060
X122428Y99060
X119888Y99060
X117348Y99060
X114808Y99060
X112268Y99060
X124968Y96520
X122428Y96520
X119888Y96520
X117348Y96520
X114808Y96520
X112268Y96520
X123698Y90170
X123698Y87630
X123698Y85090
X123698Y82550
X126238Y93980
X126238Y91440
X126238Y88900
X126238Y86360
X126238Y83820
X126238Y81280
X126238Y78740
X126238Y76200
X126238Y73660
X126238Y71120
X126238Y68580
X126238Y66040
X126238Y63500
X110998Y63500
X110998Y66040
X110998Y68580
X110998Y71120
X110998Y73660
X110998Y76200
X110998Y86360
X110998Y88900
X110998Y91440
X110998Y93980
X23368Y36830
X20828Y36830
X33528Y34290
X30988Y34290
X106680Y104140
X104140Y104140
X101600Y104140
X99060Y104140
X96520Y104140
X93980Y104140
X106680Y101600
X104140Y101600
X101600Y101600
X99060Y101600
X96520Y101600
X93980Y101600
X106680Y99060
X104140Y99060
X101600Y99060
X99060Y99060
X96520Y99060
X93980Y99060
X106680Y96520
X104140Y96520
X101600Y96520
X99060Y96520
X96520Y96520
X93980Y96520
X105410Y90170
X105410Y87630
X105410Y85090
X105410Y82550
X107950Y93980
X107950Y91440
X107950Y88900
X107950Y86360
X107950Y83820
X107950Y81280
X107950Y78740
X107950Y76200
X107950Y73660
X107950Y71120
X107950Y68580
X107950Y66040
X107950Y63500
X92710Y63500
X92710Y66040
X92710Y68580
X92710Y71120
X92710Y73660
X92710Y76200
X92710Y86360
X92710Y88900
X92710Y91440
X92710Y93980
X28448Y34290
X25908Y34290
X23368Y34290
X20828Y34290
X88392Y104140
X85852Y104140
X83312Y104140
X80772Y104140
X78232Y104140
X75692Y104140
X88392Y101600
X85852Y101600
X83312Y101600
X80772Y101600
X78232Y101600
X75692Y101600
X88392Y99060
X85852Y99060
X83312Y99060
X80772Y99060
X78232Y99060
X75692Y99060
X88392Y96520
X85852Y96520
X83312Y96520
X80772Y96520
X78232Y96520
X75692Y96520
X87122Y90170
X87122Y87630
X87122Y85090
X68834Y85090
X87122Y82550
X89662Y93980
X89662Y91440
X89662Y88900
X89662Y86360
X89662Y83820
X89662Y81280
X89662Y78740
X89662Y76200
X89662Y73660
X89662Y71120
X89662Y68580
X89662Y66040
X89662Y63500
X74422Y63500
X74422Y66040
X74422Y68580
X74422Y71120
X74422Y73660
X74422Y76200
X74422Y86360
X74422Y88900
X74422Y91440
X74422Y93980
X32258Y27940
X32258Y25400
X32258Y22860
X32258Y20320
X70104Y104140
X67564Y104140
X65024Y104140
X62484Y104140
X59944Y104140
X57404Y104140
X70104Y101600
X67564Y101600
X65024Y101600
X62484Y101600
X59944Y101600
X57404Y101600
X70104Y99060
X67564Y99060
X65024Y99060
X62484Y99060
X59944Y99060
X57404Y99060
X70104Y96520
X67564Y96520
X65024Y96520
X62484Y96520
X59944Y96520
X57404Y96520
X68834Y90170
X68834Y87630
X68834Y82550
X71374Y93980
X71374Y91440
X71374Y88900
X71374Y86360
X71374Y83820
X71374Y81280
X71374Y78740
X71374Y76200
X71374Y73660
X71374Y71120
X71374Y68580
X71374Y66040
X71374Y63500
X56134Y63500
X56134Y66040
X56134Y68580
X56134Y71120
X56134Y73660
X56134Y76200
X56134Y86360
X56134Y88900
X56134Y91440
X56134Y93980
X34798Y31750
X34798Y29210
X34798Y26670
X34798Y24130
X51816Y104140
X49276Y104140
X46736Y104140
X44196Y104140
X41656Y104140
X39116Y104140
X51816Y101600
X49276Y101600
X46736Y101600
X44196Y101600
X41656Y101600
X39116Y101600
X51816Y99060
X49276Y99060
X46736Y99060
X44196Y99060
X41656Y99060
X39116Y99060
X51816Y96520
X49276Y96520
X46736Y96520
X44196Y96520
X41656Y96520
X39116Y96520
X50546Y90170
X50546Y87630
X50546Y85090
X50546Y82550
X53086Y93980
X53086Y91440
X53086Y88900
X53086Y86360
X53086Y83820
X53086Y81280
X53086Y78740
X53086Y76200
X53086Y73660
X53086Y71120
X53086Y68580
X53086Y66040
X53086Y63500
X37846Y63500
X37846Y66040
X37846Y68580
X37846Y71120
X37846Y73660
X37846Y76200
X37846Y86360
X37846Y88900
X37846Y91440
X37846Y93980
X34798Y21590
X34798Y19050
X34798Y16510
X34798Y13970
X33528Y104140
X30988Y104140
X28448Y104140
X25908Y104140
X23368Y104140
X20828Y104140
X33528Y101600
X30988Y101600
X28448Y101600
X25908Y101600
X23368Y101600
X20828Y101600
X33528Y99060
X30988Y99060
X28448Y99060
X25908Y99060
X23368Y99060
X20828Y99060
X33528Y96520
X30988Y96520
X28448Y96520
X25908Y96520
X23368Y96520
X20828Y96520
X32258Y90170
X32258Y87630
X32258Y85090
X32258Y82550
X34798Y93980
X34798Y91440
X34798Y88900
X34798Y86360
X34798Y83820
X34798Y81280
X34798Y78740
X34798Y76200
X34798Y73660
X34798Y71120
X34798Y68580
X34798Y66040
X34798Y63500
X19558Y63500
X19558Y66040
X19558Y68580
X19558Y71120
X19558Y73660
X19558Y76200
X19558Y86360
X19558Y88900
X19558Y91440
X19558Y93980
X15240Y104140
X12700Y104140
X10160Y104140
X7620Y104140
X5080Y104140
X2540Y104140
X15240Y101600
X12700Y101600
X10160Y101600
X7620Y101600
X5080Y101600
X2540Y101600
X15240Y99060
X12700Y99060
X10160Y99060
X7620Y99060
X5080Y99060
X2540Y99060
X15240Y96520
X12700Y96520
X10160Y96520
X7620Y96520
X5080Y96520
X2540Y96520
X13970Y90170
X13970Y87630
X13970Y85090
X13970Y82550
X16510Y93980
X16510Y91440
X16510Y88900
X16510Y86360
X16510Y83820
X16510Y81280
X16510Y78740
X16510Y76200
X16510Y73660
X16510Y71120
X16510Y68580
X16510Y66040
X16510Y63500
X1270Y63500
X1270Y66040
X1270Y68580
X1270Y71120
X1270Y73660
X1270Y76200
X1270Y86360
X1270Y88900
X1270Y91440
X1270Y93980
X124968Y41910
X122428Y41910
X119888Y41910
X117348Y41910
X114808Y41910
X112268Y41910
X124968Y39370
X122428Y39370
X119888Y39370
X117348Y39370
X114808Y39370
X112268Y39370
X124968Y36830
X122428Y36830
X119888Y36830
X117348Y36830
X114808Y36830
X112268Y36830
X124968Y34290
X122428Y34290
X119888Y34290
X117348Y34290
X114808Y34290
X112268Y34290
X123698Y27940
X123698Y25400
X123698Y22860
X123698Y20320
X126238Y31750
X126238Y29210
X126238Y26670
X126238Y24130
X126238Y21590
X126238Y19050
X126238Y16510
X126238Y13970
X126238Y11430
X126238Y8890
X126238Y6350
X126238Y3810
X126238Y1270
X110998Y1270
X110998Y3810
X110998Y6350
X110998Y8890
X110998Y11430
X110998Y13970
X110998Y24130
X110998Y26670
X110998Y29210
X110998Y31750
X106680Y41910
X104140Y41910
X101600Y41910
X99060Y41910
X96520Y41910
X93980Y41910
X106680Y39370
X104140Y39370
X101600Y39370
X99060Y39370
X96520Y39370
X93980Y39370
X106680Y36830
X104140Y36830
X101600Y36830
X99060Y36830
X96520Y36830
X93980Y36830
X106680Y34290
X104140Y34290
X101600Y34290
X99060Y34290
X96520Y34290
X93980Y34290
X105410Y27940
X105410Y25400
X105410Y22860
X105410Y20320
X107950Y31750
X107950Y29210
X107950Y26670
X107950Y24130
X107950Y21590
X107950Y19050
X107950Y16510
X107950Y13970
X107950Y11430
X107950Y8890
X107950Y6350
X107950Y3810
X107950Y1270
X92710Y1270
X92710Y3810
X92710Y6350
X92710Y8890
X92710Y11430
X92710Y13970
X92710Y24130
X92710Y26670
X92710Y29210
X92710Y31750
X88392Y41910
X85852Y41910
X83312Y41910
X80772Y41910
X78232Y41910
X75692Y41910
X88392Y39370
X85852Y39370
X83312Y39370
X80772Y39370
X78232Y39370
X75692Y39370
X88392Y36830
X85852Y36830
X83312Y36830
X80772Y36830
X78232Y36830
X75692Y36830
X88392Y34290
X85852Y34290
X83312Y34290
X80772Y34290
X78232Y34290
X75692Y34290
X87122Y27940
X87122Y25400
X87122Y22860
X87122Y20320
X89662Y31750
X89662Y29210
X89662Y26670
X89662Y24130
X89662Y21590
X89662Y19050
X89662Y16510
X89662Y13970
X89662Y11430
X89662Y8890
X89662Y6350
X89662Y3810
X89662Y1270
X74422Y1270
X74422Y3810
X74422Y6350
X74422Y8890
X74422Y11430
X74422Y13970
X74422Y24130
X74422Y26670
X74422Y29210
X74422Y31750
X70104Y41910
X67564Y41910
X65024Y41910
X62484Y41910
X59944Y41910
X57404Y41910
X70104Y39370
X67564Y39370
X65024Y39370
X62484Y39370
X59944Y39370
X57404Y39370
X71374Y8890
X70104Y36830
X67564Y36830
X65024Y36830
X62484Y36830
X59944Y36830
X57404Y36830
X70104Y34290
X67564Y34290
X65024Y34290
X62484Y34290
X59944Y34290
X57404Y34290
X68834Y27940
X68834Y25400
X68834Y22860
X68834Y20320
X71374Y31750
X71374Y29210
X71374Y26670
X71374Y24130
X71374Y21590
X71374Y19050
X71374Y16510
X71374Y13970
X71374Y11430
X71374Y6350
X71374Y3810
X71374Y1270
X56134Y1270
X56134Y3810
X56134Y6350
X56134Y8890
X56134Y11430
X56134Y13970
X56134Y24130
X56134Y26670
X56134Y29210
X56134Y31750
X51816Y41910
X49276Y41910
X46736Y41910
X44196Y41910
X41656Y41910
X39116Y41910
X51816Y39370
X49276Y39370
X46736Y39370
X44196Y39370
X41656Y39370
X39116Y39370
X51816Y36830
X49276Y36830
X46736Y36830
X44196Y36830
X41656Y36830
X39116Y36830
X51816Y34290
X49276Y34290
X46736Y34290
X44196Y34290
X41656Y34290
X39116Y34290
X50546Y27940
X50546Y25400
X50546Y22860
X50546Y20320
X53086Y31750
X53086Y29210
X53086Y26670
X53086Y24130
X53086Y21590
X53086Y19050
X53086Y16510
X53086Y13970
X53086Y11430
X53086Y8890
X53086Y6350
X53086Y3810
X53086Y1270
X37846Y1270
X37846Y3810
X37846Y6350
X37846Y8890
X37846Y11430
X37846Y13970
X37846Y24130
X37846Y26670
X37846Y29210
X37846Y31750
X33528Y41910
X30988Y41910
X28448Y41910
X25908Y41910
X23368Y41910
X20828Y41910
X33528Y39370
X30988Y39370
T2
X1640Y48865
X16140Y48865
X1640Y54825
X16140Y54825
X111368Y111095
X125868Y111095
X111368Y117055
X125868Y117055
X93080Y111095
X107580Y111095
X93080Y117055
X107580Y117055
X74792Y111095
X89292Y111095
X74792Y117055
X89292Y117055
X56504Y111095
X71004Y111095
X56504Y117055
X71004Y117055
X38216Y111095
X52716Y111095
X38216Y117055
X52716Y117055
X19928Y111095
X34428Y111095
X19928Y117055
X34428Y117055
X93080Y48865
X107580Y48865
X93080Y54825
X107580Y54825
X1640Y117055
X111368Y48865
X125868Y48865
X74792Y48865
X89292Y48865
X38216Y48865
X52716Y48865
X38216Y54825
X52716Y54825
X74792Y54825
X89292Y54825
X111368Y54825
X19928Y48865
X34428Y48865
X19928Y54825
X34428Y54825
X125868Y54825
X16140Y117055
X56504Y48865
X71004Y48865
X56504Y54825
X71004Y54825
X1640Y111095
X16140Y111095
T3
X6000Y67135
X11780Y67135
X24288Y67135
X30068Y67135
X42576Y67135
X48356Y67135
X60864Y67135
X66644Y67135
X79152Y67135
X84932Y67135
X97440Y67135
X103220Y67135
X115728Y67135
X121508Y67135
X6000Y4905
X11780Y4905
X24288Y4905
X30068Y4905
X42576Y4905
X48356Y4905
X60864Y4905
X66644Y4905
X79152Y4905
X84932Y4905
X97440Y4905
X103220Y4905
X115728Y4905
X121508Y4905
T4
X96012Y1255
X4572Y1255
X13208Y1255
X13208Y5435
X4572Y5435
X77724Y1255
X59436Y1255
X68072Y1255
X68072Y5435
X59436Y5435
X86360Y1255
X41148Y1255
X49784Y1255
X49784Y5435
X41148Y5435
X86360Y5435
X77724Y5435
X104648Y1255
X104648Y5435
X96012Y5435
X22860Y1255
X31496Y1255
X31496Y5435
X22860Y5435
X114300Y1255
X122936Y1255
X122936Y5435
X114300Y5435
X4572Y63485
X13208Y63485
X13208Y67665
X4572Y67665
X22860Y63485
X31496Y63485
X31496Y67665
X22860Y67665
X41148Y63485
X49784Y63485
X49784Y67665
X41148Y67665
X59436Y63485
X68072Y63485
X68072Y67665
X59436Y67665
X77724Y63485
X86360Y63485
X86360Y67665
X77724Y67665
X96012Y63485
X104648Y63485
X104648Y67665
X96012Y67665
X114300Y63485
X122936Y63485
X122936Y67665
X114300Y67665
T5
X1270Y44450
X16637Y44450
X11430Y43180
X11938Y45720
X14605Y30734
X9779Y7366
X5588Y16510
X14605Y1270
X7747Y11811
X9525Y11811
X15367Y44196
X12573Y44196
X13129Y24130
X5524Y15049
X11430Y13970
X14224Y7112
X14224Y10160
X11986Y14605
X11430Y12700
X10874Y28194
X6350Y19431
X10874Y27305
X6350Y17550
X10668Y20320
X10668Y15748
X5842Y43434
X7874Y43434
X9906Y43434
X23241Y50038
X24638Y50038
X26289Y50038
X27559Y50038
X25908Y27940
X24638Y1270
X29718Y1270
X24638Y3810
X29718Y3810
X22733Y13081
X119634Y105664
X117602Y105664
X115570Y105664
X120396Y77978
X120396Y82550
X116078Y79780
X120602Y89535
X116078Y81661
X120602Y90424
X121158Y74930
X121714Y76835
X123952Y72390
X123952Y69342
X121158Y76200
X115252Y77280
X122857Y86360
X122301Y106426
X125095Y106426
X119253Y74041
X117475Y74041
X124333Y63500
X115316Y78740
X119507Y69596
X124333Y92964
X121666Y107950
X121158Y105410
X126365Y106680
X110998Y106680
X118618Y94615
X116078Y94615
X117475Y85217
X111125Y81280
X120396Y83947
X117475Y77343
X123317Y77597
X122809Y75057
X121920Y72644
X118618Y91694
X120523Y91694
X123952Y91821
X114808Y83820
X126746Y95504
X124333Y94996
X110363Y96520
X112903Y94615
X120523Y93599
X118618Y73025
X123063Y70739
X114173Y70739
X114173Y74168
X114173Y75311
X121158Y66040
X116078Y66040
X121158Y63500
X116078Y63500
X117348Y90170
X118999Y112268
X117729Y112268
X116078Y112268
X114681Y112268
X101346Y105664
X99314Y105664
X97282Y105664
X102108Y77978
X102108Y82550
X97790Y79780
X102314Y89535
X97790Y81661
X102314Y90424
X102870Y74930
X103426Y76835
X105664Y72390
X105664Y69342
X102870Y76200
X96964Y77280
X104569Y86360
X104013Y106426
X106807Y106426
X100965Y74041
X99187Y74041
X106045Y63500
X97028Y78740
X101219Y69596
X106045Y92964
X103378Y107950
X102870Y105410
X108077Y106680
X92710Y106680
X100330Y94615
X97790Y94615
X99187Y85217
X92837Y81280
X102108Y83947
X99187Y77343
X105029Y77597
X104521Y75057
X103632Y72644
X100330Y91694
X102235Y91694
X105664Y91821
X96520Y83820
X108458Y95504
X106045Y94996
X92075Y96520
X94615Y94615
X102235Y93599
X100330Y73025
X104775Y70739
X95885Y70739
X95885Y74168
X95885Y75311
X102870Y66040
X97790Y66040
X102870Y63500
X97790Y63500
X99060Y90170
X100711Y112268
X99441Y112268
X97790Y112268
X96393Y112268
X83058Y105664
X81026Y105664
X78994Y105664
X83820Y77978
X83820Y82550
X79502Y79780
X84026Y89535
X79502Y81661
X84026Y90424
X84582Y74930
X85138Y76835
X87376Y72390
X87376Y69342
X84582Y76200
X78677Y77280
X86281Y86360
X85725Y106426
X88519Y106426
X82677Y74041
X80899Y74041
X87757Y63500
X78740Y78740
X82931Y69596
X87757Y92964
X85090Y107950
X84582Y105410
X89789Y106680
X74422Y106680
X82042Y94615
X79502Y94615
X80899Y85217
X74549Y81280
X83820Y83947
X80899Y77343
X86741Y77597
X86233Y75057
X85344Y72644
X82042Y91694
X83947Y91694
X87376Y91821
X78232Y83820
X90170Y95504
X87757Y94996
X73787Y96520
X76327Y94615
X83947Y93599
X82042Y73025
X86487Y70739
X77597Y70739
X77597Y74168
X77597Y75311
X84582Y66040
X79502Y66040
X84582Y63500
X79502Y63500
X80772Y90170
X82423Y112268
X81153Y112268
X69469Y92964
X79502Y112268
X78105Y112268
X64770Y105664
X62738Y105664
X60706Y105664
X65532Y77978
X65532Y82550
X61214Y79780
X65738Y89535
X61214Y81661
X65738Y90424
X66294Y74930
X66850Y76835
X69088Y72390
X69088Y69342
X66294Y76200
X60388Y77280
X67993Y86360
X67437Y106426
X70231Y106426
X64389Y74041
X62611Y74041
X69469Y63500
X60452Y78740
X64643Y69596
X66802Y107950
X66294Y105410
X71501Y106680
X56134Y106680
X63754Y94615
X61214Y94615
X62611Y85217
X56261Y81280
X65532Y83947
X62611Y77343
X68453Y77597
X67945Y75057
X67056Y72644
X63754Y91694
X65659Y91694
X69088Y91821
X59944Y83820
X71882Y95504
X69469Y94996
X55499Y96520
X58039Y94615
X65659Y93599
X63754Y73025
X68199Y70739
X59309Y70739
X59309Y74168
X59309Y75311
X66294Y66040
X61214Y66040
X66294Y63500
X61214Y63500
X62484Y90170
X64135Y112268
X62865Y112268
X61214Y112268
X59817Y112268
X46482Y105664
X44450Y105664
X42418Y105664
X47244Y77978
X47244Y82550
X42926Y79780
X47450Y89535
X42926Y81661
X47450Y90424
X48006Y74930
X48562Y76835
X50800Y72390
X50800Y69342
X48006Y76200
X42101Y77280
X49705Y86360
X49149Y106426
X51943Y106426
X46101Y74041
X44323Y74041
X51181Y63500
X42164Y78740
X46355Y69596
X51181Y92964
X48514Y107950
X48006Y105410
X53213Y106680
X37846Y106680
X45466Y94615
X42926Y94615
X44323Y85217
X37973Y81280
X47244Y83947
X44323Y77343
X50165Y77597
X49657Y75057
X48768Y72644
X45466Y91694
X47371Y91694
X50800Y91821
X41656Y83820
X53594Y95504
X51181Y94996
X37211Y96520
X39751Y94615
X47371Y93599
X45466Y73025
X49911Y70739
X41021Y70739
X41021Y74168
X41021Y75311
X48006Y66040
X42926Y66040
X48006Y63500
X42926Y63500
X44196Y90170
X45847Y112268
X44577Y112268
X42926Y112268
X41529Y112268
X28194Y105664
X26162Y105664
X24130Y105664
X28956Y77978
X28956Y82550
X24638Y79780
X29162Y89535
X24638Y81661
X29162Y90424
X29718Y74930
X30274Y76835
X32512Y72390
X32512Y69342
X29718Y76200
X23812Y77280
X31417Y86360
X30861Y106426
X33655Y106426
X27813Y74041
X26035Y74041
X32893Y63500
X23876Y78740
X28067Y69596
X32893Y92964
X30226Y107950
X29718Y105410
X34925Y106680
X19558Y106680
X27178Y94615
X24638Y94615
X26035Y85217
X19685Y81280
X28956Y83947
X26035Y77343
X31877Y77597
X31369Y75057
X30480Y72644
X27178Y91694
X29083Y91694
X32512Y91821
X23368Y83820
X35306Y95504
X32893Y94996
X18923Y96520
X21463Y94615
X29083Y93599
X27178Y73025
X31623Y70739
X22733Y70739
X22733Y74168
X22733Y75311
X29718Y66040
X24638Y66040
X29718Y63500
X24638Y63500
X25908Y90170
X27559Y112268
X26289Y112268
X24638Y112268
X23241Y112268
X9906Y105664
X7874Y105664
X5842Y105664
X10668Y77978
X10668Y82550
X6350Y79780
X10874Y89535
X6350Y81661
X10874Y90424
X11430Y74930
X11986Y76835
X14224Y72390
X14224Y69342
X11430Y76200
X5524Y77280
X13129Y86360
X12573Y106426
X15367Y106426
X9525Y74041
X7747Y74041
X14605Y63500
X4953Y50038
X6350Y50038
X8001Y50038
X9271Y50038
X5588Y78740
X9779Y69596
X14605Y92964
X11938Y107950
X11430Y105410
X16637Y106680
X1270Y106680
X8890Y94615
X6350Y94615
X7747Y85217
X1397Y81280
X10668Y83947
X7747Y77343
X13589Y77597
X13081Y75057
X12192Y72644
X8890Y91694
X10795Y91694
X14224Y91821
X5080Y83820
X17018Y95504
X14605Y94996
X635Y96520
X3175Y94615
X10795Y93599
X8890Y73025
X13335Y70739
X4445Y70739
X4445Y74168
X4445Y75311
X11430Y66040
X6350Y66040
X11430Y63500
X6350Y63500
X7620Y90170
X9271Y112268
X8001Y112268
X6350Y112268
X4953Y112268
X119634Y43434
X117602Y43434
X115570Y43434
X120396Y15748
X120396Y20320
X116078Y17550
X120602Y27305
X116078Y19431
X120602Y28194
X121158Y12700
X121714Y14605
X123952Y10160
X123952Y7112
X121158Y13970
X115252Y15049
X122857Y24130
X7620Y27940
X6350Y1270
X11430Y1270
X6350Y3810
X122301Y44196
X125095Y44196
X119253Y11811
X117475Y11811
X124333Y1270
X115316Y16510
X119507Y7366
X124333Y30734
X121666Y45720
X121158Y43180
X126365Y44450
X110998Y44450
X118618Y32385
X116078Y32385
X117475Y22987
X111125Y19050
X120396Y21717
X117475Y15113
X123317Y15367
X122809Y12827
X121920Y10414
X118618Y29464
X120523Y29464
X123952Y29591
X114808Y21590
X126746Y33274
X124333Y32766
X110363Y34290
X112903Y32385
X120523Y31369
X118618Y10795
X123063Y8509
X114173Y8509
X114173Y11938
X114173Y13081
X121158Y3810
X116078Y3810
X121158Y1270
X116078Y1270
X117348Y27940
X118999Y50038
X117729Y50038
X116078Y50038
X114681Y50038
X101346Y43434
X99314Y43434
X97282Y43434
X102108Y15748
X102108Y20320
X97790Y17550
X102314Y27305
X97790Y19431
X102314Y28194
X102870Y12700
X103426Y14605
X11430Y3810
X4445Y13081
X4445Y11938
X4445Y8509
X105664Y10160
X105664Y7112
X102870Y13970
X96964Y15049
X104569Y24130
X104013Y44196
X106807Y44196
X100965Y11811
X99187Y11811
X106045Y1270
X97028Y16510
X101219Y7366
X106045Y30734
X103378Y45720
X102870Y43180
X108077Y44450
X92710Y44450
X100330Y32385
X97790Y32385
X99187Y22987
X92837Y19050
X102108Y21717
X99187Y15113
X105029Y15367
X104521Y12827
X103632Y10414
X100330Y29464
X102235Y29464
X105664Y29591
X96520Y21590
X108458Y33274
X106045Y32766
X92075Y34290
X94615Y32385
X102235Y31369
X100330Y10795
X104775Y8509
X95885Y8509
X95885Y11938
X95885Y13081
X102870Y3810
X97790Y3810
X102870Y1270
X97790Y1270
X99060Y27940
X100711Y50038
X99441Y50038
X97790Y50038
X96393Y50038
X83058Y43434
X81026Y43434
X78994Y43434
X83820Y15748
X83820Y20320
X79502Y17550
X13335Y8509
X8890Y10795
X10795Y31369
X3175Y32385
X84026Y27305
X79502Y19431
X84026Y28194
X84582Y12700
X85138Y14605
X87376Y10160
X87376Y7112
X84582Y13970
X78677Y15049
X86281Y24130
X85725Y44196
X88519Y44196
X82677Y11811
X80899Y11811
X87757Y1270
X78740Y16510
X82931Y7366
X87757Y30734
X85090Y45720
X84582Y43180
X89789Y44450
X74422Y44450
X82042Y32385
X79502Y32385
X80899Y22987
X74549Y19050
X83820Y21717
X80899Y15113
X63754Y32385
X86741Y15367
X86233Y12827
X85344Y10414
X82042Y29464
X83947Y29464
X87376Y29591
X78232Y21590
X90170Y33274
X87757Y32766
X73787Y34290
X76327Y32385
X83947Y31369
X82042Y10795
X86487Y8509
X77597Y8509
X77597Y11938
X77597Y13081
X84582Y3810
X79502Y3810
X84582Y1270
X79502Y1270
X80772Y27940
X82423Y50038
X81153Y50038
X79502Y50038
X78105Y50038
X635Y34290
X14605Y32766
X17018Y33274
X5080Y21590
X64770Y43434
X62738Y43434
X60706Y43434
X65532Y15748
X65532Y20320
X61214Y17550
X65738Y27305
X61214Y19431
X65738Y28194
X66294Y12700
X66850Y14605
X69088Y10160
X69088Y7112
X66294Y13970
X60388Y15049
X67993Y24130
X67437Y44196
X70231Y44196
X64389Y11811
X62611Y11811
X69469Y1270
X60452Y16510
X64643Y7366
X69469Y30734
X66802Y45720
X66294Y43180
X71501Y44450
X56134Y44450
X61214Y32385
X62611Y22987
X56261Y19050
X65532Y21717
X62611Y15113
X68453Y15367
X67945Y12827
X67056Y10414
X63754Y29464
X65659Y29464
X69088Y29591
X59944Y21590
X71882Y33274
X69469Y32766
X55499Y34290
X58039Y32385
X65659Y31369
X63754Y10795
X68199Y8509
X59309Y8509
X59309Y11938
X59309Y13081
X66294Y3810
X61214Y3810
X66294Y1270
X61214Y1270
X62484Y27940
X14224Y29591
X10795Y29464
X8890Y29464
X12192Y10414
X64135Y50038
X62865Y50038
X61214Y50038
X59817Y50038
X46482Y43434
X44450Y43434
X42418Y43434
X47244Y15748
X47244Y20320
X42926Y17550
X47450Y27305
X42926Y19431
X47450Y28194
X48006Y12700
X48562Y14605
X50800Y10160
X50800Y7112
X48006Y13970
X42101Y15049
X49705Y24130
X49149Y44196
X51943Y44196
X46101Y11811
X44323Y11811
X51181Y1270
X42164Y16510
X46355Y7366
X51181Y30734
X48514Y45720
X48006Y43180
X53213Y44450
X37846Y44450
X45466Y32385
X42926Y32385
X44323Y22987
X37973Y19050
X47244Y21717
X44323Y15113
X50165Y15367
X49657Y12827
X48768Y10414
X45466Y29464
X47371Y29464
X50800Y29591
X41656Y21590
X53594Y33274
X51181Y32766
X37211Y34290
X39751Y32385
X47371Y31369
X45466Y10795
X49911Y8509
X41021Y8509
X41021Y11938
X41021Y13081
X13081Y12827
X13589Y15367
X7747Y15113
X10668Y21717
X48006Y3810
X42926Y3810
X48006Y1270
X42926Y1270
X44196Y27940
X45847Y50038
X44577Y50038
X42926Y50038
X41529Y50038
X28194Y43434
X26162Y43434
X24130Y43434
X28956Y15748
X28956Y20320
X24638Y17550
X29162Y27305
X24638Y19431
X29162Y28194
X29718Y12700
X30274Y14605
X32512Y10160
X32512Y7112
X29718Y13970
X23812Y15049
X31417Y24130
X30861Y44196
X33655Y44196
X27813Y11811
X26035Y11811
X32893Y1270
X23876Y16510
X28067Y7366
X32893Y30734
X30226Y45720
X29718Y43180
X34925Y44450
X19558Y44450
X27178Y32385
X24638Y32385
X26035Y22987
X19685Y19050
X28956Y21717
X26035Y15113
X31877Y15367
X31369Y12827
X30480Y10414
X27178Y29464
X29083Y29464
X32512Y29591
X23368Y21590
X35306Y33274
X32893Y32766
X18923Y34290
X21463Y32385
X29083Y31369
X1397Y19050
X7747Y22987
X6350Y32385
X8890Y32385
X27178Y10795
X31623Y8509
X22733Y8509
X22733Y11938
M30