G04 EAGLE Gerber RS-274X export*
G75*
%MOMM*%
%FSLAX34Y34*%
%LPD*%
%INSolderpaste Top*%
%IPPOS*%
%AMOC8*
5,1,8,0,0,1.08239X$1,22.5*%
G01*
%ADD10R,0.600000X0.600000*%
%ADD11C,0.300000*%
%ADD12R,0.250000X0.875000*%
%ADD13R,0.300000X1.000000*%
%ADD14R,0.600000X1.000000*%
%ADD15R,0.762000X1.524000*%
%ADD16R,2.000000X1.200000*%
%ADD17R,1.350000X0.600000*%
%ADD18R,0.250000X2.400000*%
%ADD19C,1.500000*%
%ADD20R,0.800000X1.200000*%

G36*
X680540Y666251D02*
X680540Y666251D01*
X680541Y666251D01*
X681609Y666270D01*
X681616Y666275D01*
X681620Y666271D01*
X682657Y666527D01*
X682662Y666534D01*
X682668Y666531D01*
X683622Y667012D01*
X683626Y667019D01*
X683631Y667018D01*
X684455Y667699D01*
X684456Y667707D01*
X684462Y667707D01*
X685113Y668554D01*
X685113Y668562D01*
X685119Y668563D01*
X685566Y669534D01*
X685564Y669542D01*
X685569Y669544D01*
X685788Y670590D01*
X685785Y670597D01*
X685789Y670600D01*
X685789Y682600D01*
X685786Y682605D01*
X685789Y682608D01*
X685609Y683703D01*
X685603Y683709D01*
X685606Y683714D01*
X685187Y684742D01*
X685180Y684746D01*
X685182Y684751D01*
X684545Y685660D01*
X684537Y685663D01*
X684537Y685668D01*
X683714Y686412D01*
X683706Y686413D01*
X683705Y686419D01*
X682737Y686961D01*
X682728Y686960D01*
X682726Y686966D01*
X681662Y687279D01*
X681657Y687277D01*
X681653Y687277D01*
X681651Y687281D01*
X680543Y687349D01*
X680537Y687345D01*
X680533Y687349D01*
X679425Y687179D01*
X679419Y687173D01*
X679414Y687176D01*
X678372Y686764D01*
X678368Y686757D01*
X678363Y686759D01*
X677438Y686125D01*
X677436Y686117D01*
X677430Y686118D01*
X676670Y685295D01*
X676669Y685286D01*
X676663Y685286D01*
X676106Y684314D01*
X676107Y684306D01*
X676101Y684304D01*
X675774Y683232D01*
X675777Y683224D01*
X675772Y683221D01*
X675691Y682104D01*
X675692Y682101D01*
X675691Y682100D01*
X675691Y670100D01*
X675696Y670093D01*
X675692Y670089D01*
X675911Y669145D01*
X675917Y669139D01*
X675915Y669134D01*
X676339Y668262D01*
X676346Y668259D01*
X676344Y668253D01*
X676951Y667497D01*
X676959Y667495D01*
X676959Y667489D01*
X677719Y666888D01*
X677728Y666888D01*
X677729Y666882D01*
X678604Y666464D01*
X678612Y666466D01*
X678614Y666461D01*
X679560Y666249D01*
X679567Y666252D01*
X679571Y666247D01*
X680540Y666251D01*
G37*
G36*
X314780Y43951D02*
X314780Y43951D01*
X314781Y43951D01*
X315849Y43970D01*
X315856Y43975D01*
X315860Y43971D01*
X316897Y44227D01*
X316902Y44234D01*
X316908Y44231D01*
X317862Y44712D01*
X317866Y44719D01*
X317871Y44718D01*
X318695Y45399D01*
X318696Y45407D01*
X318702Y45407D01*
X319353Y46254D01*
X319353Y46262D01*
X319359Y46263D01*
X319806Y47234D01*
X319804Y47242D01*
X319809Y47244D01*
X320028Y48290D01*
X320025Y48297D01*
X320029Y48300D01*
X320029Y60300D01*
X320026Y60305D01*
X320029Y60308D01*
X319849Y61403D01*
X319843Y61409D01*
X319846Y61414D01*
X319427Y62442D01*
X319420Y62446D01*
X319422Y62451D01*
X318785Y63360D01*
X318777Y63363D01*
X318777Y63368D01*
X317954Y64112D01*
X317946Y64113D01*
X317945Y64119D01*
X316977Y64661D01*
X316968Y64660D01*
X316966Y64666D01*
X315902Y64979D01*
X315897Y64977D01*
X315893Y64977D01*
X315891Y64981D01*
X314783Y65049D01*
X314777Y65045D01*
X314773Y65049D01*
X313665Y64879D01*
X313659Y64873D01*
X313654Y64876D01*
X312612Y64464D01*
X312608Y64457D01*
X312603Y64459D01*
X311678Y63825D01*
X311676Y63817D01*
X311670Y63818D01*
X310910Y62995D01*
X310909Y62986D01*
X310903Y62986D01*
X310346Y62014D01*
X310347Y62006D01*
X310341Y62004D01*
X310014Y60932D01*
X310017Y60924D01*
X310012Y60921D01*
X309931Y59804D01*
X309932Y59801D01*
X309931Y59800D01*
X309931Y47800D01*
X309936Y47793D01*
X309932Y47789D01*
X310151Y46845D01*
X310157Y46839D01*
X310155Y46834D01*
X310579Y45962D01*
X310586Y45959D01*
X310584Y45953D01*
X311191Y45197D01*
X311199Y45195D01*
X311199Y45189D01*
X311959Y44588D01*
X311968Y44588D01*
X311969Y44582D01*
X312844Y44164D01*
X312852Y44166D01*
X312854Y44161D01*
X313800Y43949D01*
X313807Y43952D01*
X313811Y43947D01*
X314780Y43951D01*
G37*
G36*
X131900Y43951D02*
X131900Y43951D01*
X131901Y43951D01*
X132969Y43970D01*
X132976Y43975D01*
X132980Y43971D01*
X134017Y44227D01*
X134022Y44234D01*
X134028Y44231D01*
X134982Y44712D01*
X134986Y44719D01*
X134991Y44718D01*
X135815Y45399D01*
X135816Y45407D01*
X135822Y45407D01*
X136473Y46254D01*
X136473Y46262D01*
X136479Y46263D01*
X136926Y47234D01*
X136924Y47242D01*
X136929Y47244D01*
X137148Y48290D01*
X137145Y48297D01*
X137149Y48300D01*
X137149Y60300D01*
X137146Y60305D01*
X137149Y60308D01*
X136969Y61403D01*
X136963Y61409D01*
X136966Y61414D01*
X136547Y62442D01*
X136540Y62446D01*
X136542Y62451D01*
X135905Y63360D01*
X135897Y63363D01*
X135897Y63368D01*
X135074Y64112D01*
X135066Y64113D01*
X135065Y64119D01*
X134097Y64661D01*
X134088Y64660D01*
X134086Y64666D01*
X133022Y64979D01*
X133017Y64977D01*
X133013Y64977D01*
X133011Y64981D01*
X131903Y65049D01*
X131897Y65045D01*
X131893Y65049D01*
X130785Y64879D01*
X130779Y64873D01*
X130774Y64876D01*
X129732Y64464D01*
X129728Y64457D01*
X129723Y64459D01*
X128798Y63825D01*
X128796Y63817D01*
X128790Y63818D01*
X128030Y62995D01*
X128029Y62986D01*
X128023Y62986D01*
X127466Y62014D01*
X127467Y62006D01*
X127461Y62004D01*
X127134Y60932D01*
X127137Y60924D01*
X127132Y60921D01*
X127051Y59804D01*
X127052Y59801D01*
X127051Y59800D01*
X127051Y47800D01*
X127056Y47793D01*
X127052Y47789D01*
X127271Y46845D01*
X127277Y46839D01*
X127275Y46834D01*
X127699Y45962D01*
X127706Y45959D01*
X127704Y45953D01*
X128311Y45197D01*
X128319Y45195D01*
X128319Y45189D01*
X129079Y44588D01*
X129088Y44588D01*
X129089Y44582D01*
X129964Y44164D01*
X129972Y44166D01*
X129974Y44161D01*
X130920Y43949D01*
X130927Y43952D01*
X130931Y43947D01*
X131900Y43951D01*
G37*
G36*
X497660Y43951D02*
X497660Y43951D01*
X497661Y43951D01*
X498729Y43970D01*
X498736Y43975D01*
X498740Y43971D01*
X499777Y44227D01*
X499782Y44234D01*
X499788Y44231D01*
X500742Y44712D01*
X500746Y44719D01*
X500751Y44718D01*
X501575Y45399D01*
X501576Y45407D01*
X501582Y45407D01*
X502233Y46254D01*
X502233Y46262D01*
X502239Y46263D01*
X502686Y47234D01*
X502684Y47242D01*
X502689Y47244D01*
X502908Y48290D01*
X502905Y48297D01*
X502909Y48300D01*
X502909Y60300D01*
X502906Y60305D01*
X502909Y60308D01*
X502729Y61403D01*
X502723Y61409D01*
X502726Y61414D01*
X502307Y62442D01*
X502300Y62446D01*
X502302Y62451D01*
X501665Y63360D01*
X501657Y63363D01*
X501657Y63368D01*
X500834Y64112D01*
X500826Y64113D01*
X500825Y64119D01*
X499857Y64661D01*
X499848Y64660D01*
X499846Y64666D01*
X498782Y64979D01*
X498777Y64977D01*
X498773Y64977D01*
X498771Y64981D01*
X497663Y65049D01*
X497657Y65045D01*
X497653Y65049D01*
X496545Y64879D01*
X496539Y64873D01*
X496534Y64876D01*
X495492Y64464D01*
X495488Y64457D01*
X495483Y64459D01*
X494558Y63825D01*
X494556Y63817D01*
X494550Y63818D01*
X493790Y62995D01*
X493789Y62986D01*
X493783Y62986D01*
X493226Y62014D01*
X493227Y62006D01*
X493221Y62004D01*
X492894Y60932D01*
X492897Y60924D01*
X492892Y60921D01*
X492811Y59804D01*
X492812Y59801D01*
X492811Y59800D01*
X492811Y47800D01*
X492816Y47793D01*
X492812Y47789D01*
X493031Y46845D01*
X493037Y46839D01*
X493035Y46834D01*
X493459Y45962D01*
X493466Y45959D01*
X493464Y45953D01*
X494071Y45197D01*
X494079Y45195D01*
X494079Y45189D01*
X494839Y44588D01*
X494848Y44588D01*
X494849Y44582D01*
X495724Y44164D01*
X495732Y44166D01*
X495734Y44161D01*
X496680Y43949D01*
X496687Y43952D01*
X496691Y43947D01*
X497660Y43951D01*
G37*
G36*
X863420Y43951D02*
X863420Y43951D01*
X863421Y43951D01*
X864489Y43970D01*
X864496Y43975D01*
X864500Y43971D01*
X865537Y44227D01*
X865542Y44234D01*
X865548Y44231D01*
X866502Y44712D01*
X866506Y44719D01*
X866511Y44718D01*
X867335Y45399D01*
X867336Y45407D01*
X867342Y45407D01*
X867993Y46254D01*
X867993Y46262D01*
X867999Y46263D01*
X868446Y47234D01*
X868444Y47242D01*
X868449Y47244D01*
X868668Y48290D01*
X868665Y48297D01*
X868669Y48300D01*
X868669Y60300D01*
X868666Y60305D01*
X868669Y60308D01*
X868489Y61403D01*
X868483Y61409D01*
X868486Y61414D01*
X868067Y62442D01*
X868060Y62446D01*
X868062Y62451D01*
X867425Y63360D01*
X867417Y63363D01*
X867417Y63368D01*
X866594Y64112D01*
X866586Y64113D01*
X866585Y64119D01*
X865617Y64661D01*
X865608Y64660D01*
X865606Y64666D01*
X864542Y64979D01*
X864537Y64977D01*
X864533Y64977D01*
X864531Y64981D01*
X863423Y65049D01*
X863417Y65045D01*
X863413Y65049D01*
X862305Y64879D01*
X862299Y64873D01*
X862294Y64876D01*
X861252Y64464D01*
X861248Y64457D01*
X861243Y64459D01*
X860318Y63825D01*
X860316Y63817D01*
X860310Y63818D01*
X859550Y62995D01*
X859549Y62986D01*
X859543Y62986D01*
X858986Y62014D01*
X858987Y62006D01*
X858981Y62004D01*
X858654Y60932D01*
X858657Y60924D01*
X858652Y60921D01*
X858571Y59804D01*
X858572Y59801D01*
X858571Y59800D01*
X858571Y47800D01*
X858576Y47793D01*
X858572Y47789D01*
X858791Y46845D01*
X858797Y46839D01*
X858795Y46834D01*
X859219Y45962D01*
X859226Y45959D01*
X859224Y45953D01*
X859831Y45197D01*
X859839Y45195D01*
X859839Y45189D01*
X860599Y44588D01*
X860608Y44588D01*
X860609Y44582D01*
X861484Y44164D01*
X861492Y44166D01*
X861494Y44161D01*
X862440Y43949D01*
X862447Y43952D01*
X862451Y43947D01*
X863420Y43951D01*
G37*
G36*
X1229180Y43951D02*
X1229180Y43951D01*
X1229181Y43951D01*
X1230249Y43970D01*
X1230256Y43975D01*
X1230260Y43971D01*
X1231297Y44227D01*
X1231302Y44234D01*
X1231308Y44231D01*
X1232262Y44712D01*
X1232266Y44719D01*
X1232271Y44718D01*
X1233095Y45399D01*
X1233096Y45407D01*
X1233102Y45407D01*
X1233753Y46254D01*
X1233753Y46262D01*
X1233759Y46263D01*
X1234206Y47234D01*
X1234204Y47242D01*
X1234209Y47244D01*
X1234428Y48290D01*
X1234425Y48297D01*
X1234429Y48300D01*
X1234429Y60300D01*
X1234426Y60305D01*
X1234429Y60308D01*
X1234249Y61403D01*
X1234243Y61409D01*
X1234246Y61414D01*
X1233827Y62442D01*
X1233820Y62446D01*
X1233822Y62451D01*
X1233185Y63360D01*
X1233177Y63363D01*
X1233177Y63368D01*
X1232354Y64112D01*
X1232346Y64113D01*
X1232345Y64119D01*
X1231377Y64661D01*
X1231368Y64660D01*
X1231366Y64666D01*
X1230302Y64979D01*
X1230297Y64977D01*
X1230293Y64977D01*
X1230291Y64981D01*
X1229183Y65049D01*
X1229177Y65045D01*
X1229173Y65049D01*
X1228065Y64879D01*
X1228059Y64873D01*
X1228054Y64876D01*
X1227012Y64464D01*
X1227008Y64457D01*
X1227003Y64459D01*
X1226078Y63825D01*
X1226076Y63817D01*
X1226070Y63818D01*
X1225310Y62995D01*
X1225309Y62986D01*
X1225303Y62986D01*
X1224746Y62014D01*
X1224747Y62006D01*
X1224741Y62004D01*
X1224414Y60932D01*
X1224417Y60924D01*
X1224412Y60921D01*
X1224331Y59804D01*
X1224332Y59801D01*
X1224331Y59800D01*
X1224331Y47800D01*
X1224336Y47793D01*
X1224332Y47789D01*
X1224551Y46845D01*
X1224557Y46839D01*
X1224555Y46834D01*
X1224979Y45962D01*
X1224986Y45959D01*
X1224984Y45953D01*
X1225591Y45197D01*
X1225599Y45195D01*
X1225599Y45189D01*
X1226359Y44588D01*
X1226368Y44588D01*
X1226369Y44582D01*
X1227244Y44164D01*
X1227252Y44166D01*
X1227254Y44161D01*
X1228200Y43949D01*
X1228207Y43952D01*
X1228211Y43947D01*
X1229180Y43951D01*
G37*
G36*
X1046300Y43951D02*
X1046300Y43951D01*
X1046301Y43951D01*
X1047369Y43970D01*
X1047376Y43975D01*
X1047380Y43971D01*
X1048417Y44227D01*
X1048422Y44234D01*
X1048428Y44231D01*
X1049382Y44712D01*
X1049386Y44719D01*
X1049391Y44718D01*
X1050215Y45399D01*
X1050216Y45407D01*
X1050222Y45407D01*
X1050873Y46254D01*
X1050873Y46262D01*
X1050879Y46263D01*
X1051326Y47234D01*
X1051324Y47242D01*
X1051329Y47244D01*
X1051548Y48290D01*
X1051545Y48297D01*
X1051549Y48300D01*
X1051549Y60300D01*
X1051546Y60305D01*
X1051549Y60308D01*
X1051369Y61403D01*
X1051363Y61409D01*
X1051366Y61414D01*
X1050947Y62442D01*
X1050940Y62446D01*
X1050942Y62451D01*
X1050305Y63360D01*
X1050297Y63363D01*
X1050297Y63368D01*
X1049474Y64112D01*
X1049466Y64113D01*
X1049465Y64119D01*
X1048497Y64661D01*
X1048488Y64660D01*
X1048486Y64666D01*
X1047422Y64979D01*
X1047417Y64977D01*
X1047413Y64977D01*
X1047411Y64981D01*
X1046303Y65049D01*
X1046297Y65045D01*
X1046293Y65049D01*
X1045185Y64879D01*
X1045179Y64873D01*
X1045174Y64876D01*
X1044132Y64464D01*
X1044128Y64457D01*
X1044123Y64459D01*
X1043198Y63825D01*
X1043196Y63817D01*
X1043190Y63818D01*
X1042430Y62995D01*
X1042429Y62986D01*
X1042423Y62986D01*
X1041866Y62014D01*
X1041867Y62006D01*
X1041861Y62004D01*
X1041534Y60932D01*
X1041537Y60924D01*
X1041532Y60921D01*
X1041451Y59804D01*
X1041452Y59801D01*
X1041451Y59800D01*
X1041451Y47800D01*
X1041456Y47793D01*
X1041452Y47789D01*
X1041671Y46845D01*
X1041677Y46839D01*
X1041675Y46834D01*
X1042099Y45962D01*
X1042106Y45959D01*
X1042104Y45953D01*
X1042711Y45197D01*
X1042719Y45195D01*
X1042719Y45189D01*
X1043479Y44588D01*
X1043488Y44588D01*
X1043489Y44582D01*
X1044364Y44164D01*
X1044372Y44166D01*
X1044374Y44161D01*
X1045320Y43949D01*
X1045327Y43952D01*
X1045331Y43947D01*
X1046300Y43951D01*
G37*
G36*
X680540Y43951D02*
X680540Y43951D01*
X680541Y43951D01*
X681609Y43970D01*
X681616Y43975D01*
X681620Y43971D01*
X682657Y44227D01*
X682662Y44234D01*
X682668Y44231D01*
X683622Y44712D01*
X683626Y44719D01*
X683631Y44718D01*
X684455Y45399D01*
X684456Y45407D01*
X684462Y45407D01*
X685113Y46254D01*
X685113Y46262D01*
X685119Y46263D01*
X685566Y47234D01*
X685564Y47242D01*
X685569Y47244D01*
X685788Y48290D01*
X685785Y48297D01*
X685789Y48300D01*
X685789Y60300D01*
X685786Y60305D01*
X685789Y60308D01*
X685609Y61403D01*
X685603Y61409D01*
X685606Y61414D01*
X685187Y62442D01*
X685180Y62446D01*
X685182Y62451D01*
X684545Y63360D01*
X684537Y63363D01*
X684537Y63368D01*
X683714Y64112D01*
X683706Y64113D01*
X683705Y64119D01*
X682737Y64661D01*
X682728Y64660D01*
X682726Y64666D01*
X681662Y64979D01*
X681657Y64977D01*
X681653Y64977D01*
X681651Y64981D01*
X680543Y65049D01*
X680537Y65045D01*
X680533Y65049D01*
X679425Y64879D01*
X679419Y64873D01*
X679414Y64876D01*
X678372Y64464D01*
X678368Y64457D01*
X678363Y64459D01*
X677438Y63825D01*
X677436Y63817D01*
X677430Y63818D01*
X676670Y62995D01*
X676669Y62986D01*
X676663Y62986D01*
X676106Y62014D01*
X676107Y62006D01*
X676101Y62004D01*
X675774Y60932D01*
X675777Y60924D01*
X675772Y60921D01*
X675691Y59804D01*
X675692Y59801D01*
X675691Y59800D01*
X675691Y47800D01*
X675696Y47793D01*
X675692Y47789D01*
X675911Y46845D01*
X675917Y46839D01*
X675915Y46834D01*
X676339Y45962D01*
X676346Y45959D01*
X676344Y45953D01*
X676951Y45197D01*
X676959Y45195D01*
X676959Y45189D01*
X677719Y44588D01*
X677728Y44588D01*
X677729Y44582D01*
X678604Y44164D01*
X678612Y44166D01*
X678614Y44161D01*
X679560Y43949D01*
X679567Y43952D01*
X679571Y43947D01*
X680540Y43951D01*
G37*
G36*
X1046300Y666251D02*
X1046300Y666251D01*
X1046301Y666251D01*
X1047369Y666270D01*
X1047376Y666275D01*
X1047380Y666271D01*
X1048417Y666527D01*
X1048422Y666534D01*
X1048428Y666531D01*
X1049382Y667012D01*
X1049386Y667019D01*
X1049391Y667018D01*
X1050215Y667699D01*
X1050216Y667707D01*
X1050222Y667707D01*
X1050873Y668554D01*
X1050873Y668562D01*
X1050879Y668563D01*
X1051326Y669534D01*
X1051324Y669542D01*
X1051329Y669544D01*
X1051548Y670590D01*
X1051545Y670597D01*
X1051549Y670600D01*
X1051549Y682600D01*
X1051546Y682605D01*
X1051549Y682608D01*
X1051369Y683703D01*
X1051363Y683709D01*
X1051366Y683714D01*
X1050947Y684742D01*
X1050940Y684746D01*
X1050942Y684751D01*
X1050305Y685660D01*
X1050297Y685663D01*
X1050297Y685668D01*
X1049474Y686412D01*
X1049466Y686413D01*
X1049465Y686419D01*
X1048497Y686961D01*
X1048488Y686960D01*
X1048486Y686966D01*
X1047422Y687279D01*
X1047417Y687277D01*
X1047413Y687277D01*
X1047411Y687281D01*
X1046303Y687349D01*
X1046297Y687345D01*
X1046293Y687349D01*
X1045185Y687179D01*
X1045179Y687173D01*
X1045174Y687176D01*
X1044132Y686764D01*
X1044128Y686757D01*
X1044123Y686759D01*
X1043198Y686125D01*
X1043196Y686117D01*
X1043190Y686118D01*
X1042430Y685295D01*
X1042429Y685286D01*
X1042423Y685286D01*
X1041866Y684314D01*
X1041867Y684306D01*
X1041861Y684304D01*
X1041534Y683232D01*
X1041537Y683224D01*
X1041532Y683221D01*
X1041451Y682104D01*
X1041452Y682101D01*
X1041451Y682100D01*
X1041451Y670100D01*
X1041456Y670093D01*
X1041452Y670089D01*
X1041671Y669145D01*
X1041677Y669139D01*
X1041675Y669134D01*
X1042099Y668262D01*
X1042106Y668259D01*
X1042104Y668253D01*
X1042711Y667497D01*
X1042719Y667495D01*
X1042719Y667489D01*
X1043479Y666888D01*
X1043488Y666888D01*
X1043489Y666882D01*
X1044364Y666464D01*
X1044372Y666466D01*
X1044374Y666461D01*
X1045320Y666249D01*
X1045327Y666252D01*
X1045331Y666247D01*
X1046300Y666251D01*
G37*
G36*
X131900Y666251D02*
X131900Y666251D01*
X131901Y666251D01*
X132969Y666270D01*
X132976Y666275D01*
X132980Y666271D01*
X134017Y666527D01*
X134022Y666534D01*
X134028Y666531D01*
X134982Y667012D01*
X134986Y667019D01*
X134991Y667018D01*
X135815Y667699D01*
X135816Y667707D01*
X135822Y667707D01*
X136473Y668554D01*
X136473Y668562D01*
X136479Y668563D01*
X136926Y669534D01*
X136924Y669542D01*
X136929Y669544D01*
X137148Y670590D01*
X137145Y670597D01*
X137149Y670600D01*
X137149Y682600D01*
X137146Y682605D01*
X137149Y682608D01*
X136969Y683703D01*
X136963Y683709D01*
X136966Y683714D01*
X136547Y684742D01*
X136540Y684746D01*
X136542Y684751D01*
X135905Y685660D01*
X135897Y685663D01*
X135897Y685668D01*
X135074Y686412D01*
X135066Y686413D01*
X135065Y686419D01*
X134097Y686961D01*
X134088Y686960D01*
X134086Y686966D01*
X133022Y687279D01*
X133017Y687277D01*
X133013Y687277D01*
X133011Y687281D01*
X131903Y687349D01*
X131897Y687345D01*
X131893Y687349D01*
X130785Y687179D01*
X130779Y687173D01*
X130774Y687176D01*
X129732Y686764D01*
X129728Y686757D01*
X129723Y686759D01*
X128798Y686125D01*
X128796Y686117D01*
X128790Y686118D01*
X128030Y685295D01*
X128029Y685286D01*
X128023Y685286D01*
X127466Y684314D01*
X127467Y684306D01*
X127461Y684304D01*
X127134Y683232D01*
X127137Y683224D01*
X127132Y683221D01*
X127051Y682104D01*
X127052Y682101D01*
X127051Y682100D01*
X127051Y670100D01*
X127056Y670093D01*
X127052Y670089D01*
X127271Y669145D01*
X127277Y669139D01*
X127275Y669134D01*
X127699Y668262D01*
X127706Y668259D01*
X127704Y668253D01*
X128311Y667497D01*
X128319Y667495D01*
X128319Y667489D01*
X129079Y666888D01*
X129088Y666888D01*
X129089Y666882D01*
X129964Y666464D01*
X129972Y666466D01*
X129974Y666461D01*
X130920Y666249D01*
X130927Y666252D01*
X130931Y666247D01*
X131900Y666251D01*
G37*
G36*
X314780Y666251D02*
X314780Y666251D01*
X314781Y666251D01*
X315849Y666270D01*
X315856Y666275D01*
X315860Y666271D01*
X316897Y666527D01*
X316902Y666534D01*
X316908Y666531D01*
X317862Y667012D01*
X317866Y667019D01*
X317871Y667018D01*
X318695Y667699D01*
X318696Y667707D01*
X318702Y667707D01*
X319353Y668554D01*
X319353Y668562D01*
X319359Y668563D01*
X319806Y669534D01*
X319804Y669542D01*
X319809Y669544D01*
X320028Y670590D01*
X320025Y670597D01*
X320029Y670600D01*
X320029Y682600D01*
X320026Y682605D01*
X320029Y682608D01*
X319849Y683703D01*
X319843Y683709D01*
X319846Y683714D01*
X319427Y684742D01*
X319420Y684746D01*
X319422Y684751D01*
X318785Y685660D01*
X318777Y685663D01*
X318777Y685668D01*
X317954Y686412D01*
X317946Y686413D01*
X317945Y686419D01*
X316977Y686961D01*
X316968Y686960D01*
X316966Y686966D01*
X315902Y687279D01*
X315897Y687277D01*
X315893Y687277D01*
X315891Y687281D01*
X314783Y687349D01*
X314777Y687345D01*
X314773Y687349D01*
X313665Y687179D01*
X313659Y687173D01*
X313654Y687176D01*
X312612Y686764D01*
X312608Y686757D01*
X312603Y686759D01*
X311678Y686125D01*
X311676Y686117D01*
X311670Y686118D01*
X310910Y685295D01*
X310909Y685286D01*
X310903Y685286D01*
X310346Y684314D01*
X310347Y684306D01*
X310341Y684304D01*
X310014Y683232D01*
X310017Y683224D01*
X310012Y683221D01*
X309931Y682104D01*
X309932Y682101D01*
X309931Y682100D01*
X309931Y670100D01*
X309936Y670093D01*
X309932Y670089D01*
X310151Y669145D01*
X310157Y669139D01*
X310155Y669134D01*
X310579Y668262D01*
X310586Y668259D01*
X310584Y668253D01*
X311191Y667497D01*
X311199Y667495D01*
X311199Y667489D01*
X311959Y666888D01*
X311968Y666888D01*
X311969Y666882D01*
X312844Y666464D01*
X312852Y666466D01*
X312854Y666461D01*
X313800Y666249D01*
X313807Y666252D01*
X313811Y666247D01*
X314780Y666251D01*
G37*
G36*
X497660Y666251D02*
X497660Y666251D01*
X497661Y666251D01*
X498729Y666270D01*
X498736Y666275D01*
X498740Y666271D01*
X499777Y666527D01*
X499782Y666534D01*
X499788Y666531D01*
X500742Y667012D01*
X500746Y667019D01*
X500751Y667018D01*
X501575Y667699D01*
X501576Y667707D01*
X501582Y667707D01*
X502233Y668554D01*
X502233Y668562D01*
X502239Y668563D01*
X502686Y669534D01*
X502684Y669542D01*
X502689Y669544D01*
X502908Y670590D01*
X502905Y670597D01*
X502909Y670600D01*
X502909Y682600D01*
X502906Y682605D01*
X502909Y682608D01*
X502729Y683703D01*
X502723Y683709D01*
X502726Y683714D01*
X502307Y684742D01*
X502300Y684746D01*
X502302Y684751D01*
X501665Y685660D01*
X501657Y685663D01*
X501657Y685668D01*
X500834Y686412D01*
X500826Y686413D01*
X500825Y686419D01*
X499857Y686961D01*
X499848Y686960D01*
X499846Y686966D01*
X498782Y687279D01*
X498777Y687277D01*
X498773Y687277D01*
X498771Y687281D01*
X497663Y687349D01*
X497657Y687345D01*
X497653Y687349D01*
X496545Y687179D01*
X496539Y687173D01*
X496534Y687176D01*
X495492Y686764D01*
X495488Y686757D01*
X495483Y686759D01*
X494558Y686125D01*
X494556Y686117D01*
X494550Y686118D01*
X493790Y685295D01*
X493789Y685286D01*
X493783Y685286D01*
X493226Y684314D01*
X493227Y684306D01*
X493221Y684304D01*
X492894Y683232D01*
X492897Y683224D01*
X492892Y683221D01*
X492811Y682104D01*
X492812Y682101D01*
X492811Y682100D01*
X492811Y670100D01*
X492816Y670093D01*
X492812Y670089D01*
X493031Y669145D01*
X493037Y669139D01*
X493035Y669134D01*
X493459Y668262D01*
X493466Y668259D01*
X493464Y668253D01*
X494071Y667497D01*
X494079Y667495D01*
X494079Y667489D01*
X494839Y666888D01*
X494848Y666888D01*
X494849Y666882D01*
X495724Y666464D01*
X495732Y666466D01*
X495734Y666461D01*
X496680Y666249D01*
X496687Y666252D01*
X496691Y666247D01*
X497660Y666251D01*
G37*
G36*
X863420Y666251D02*
X863420Y666251D01*
X863421Y666251D01*
X864489Y666270D01*
X864496Y666275D01*
X864500Y666271D01*
X865537Y666527D01*
X865542Y666534D01*
X865548Y666531D01*
X866502Y667012D01*
X866506Y667019D01*
X866511Y667018D01*
X867335Y667699D01*
X867336Y667707D01*
X867342Y667707D01*
X867993Y668554D01*
X867993Y668562D01*
X867999Y668563D01*
X868446Y669534D01*
X868444Y669542D01*
X868449Y669544D01*
X868668Y670590D01*
X868665Y670597D01*
X868669Y670600D01*
X868669Y682600D01*
X868666Y682605D01*
X868669Y682608D01*
X868489Y683703D01*
X868483Y683709D01*
X868486Y683714D01*
X868067Y684742D01*
X868060Y684746D01*
X868062Y684751D01*
X867425Y685660D01*
X867417Y685663D01*
X867417Y685668D01*
X866594Y686412D01*
X866586Y686413D01*
X866585Y686419D01*
X865617Y686961D01*
X865608Y686960D01*
X865606Y686966D01*
X864542Y687279D01*
X864537Y687277D01*
X864533Y687277D01*
X864531Y687281D01*
X863423Y687349D01*
X863417Y687345D01*
X863413Y687349D01*
X862305Y687179D01*
X862299Y687173D01*
X862294Y687176D01*
X861252Y686764D01*
X861248Y686757D01*
X861243Y686759D01*
X860318Y686125D01*
X860316Y686117D01*
X860310Y686118D01*
X859550Y685295D01*
X859549Y685286D01*
X859543Y685286D01*
X858986Y684314D01*
X858987Y684306D01*
X858981Y684304D01*
X858654Y683232D01*
X858657Y683224D01*
X858652Y683221D01*
X858571Y682104D01*
X858572Y682101D01*
X858571Y682100D01*
X858571Y670100D01*
X858576Y670093D01*
X858572Y670089D01*
X858791Y669145D01*
X858797Y669139D01*
X858795Y669134D01*
X859219Y668262D01*
X859226Y668259D01*
X859224Y668253D01*
X859831Y667497D01*
X859839Y667495D01*
X859839Y667489D01*
X860599Y666888D01*
X860608Y666888D01*
X860609Y666882D01*
X861484Y666464D01*
X861492Y666466D01*
X861494Y666461D01*
X862440Y666249D01*
X862447Y666252D01*
X862451Y666247D01*
X863420Y666251D01*
G37*
G36*
X1229180Y666251D02*
X1229180Y666251D01*
X1229181Y666251D01*
X1230249Y666270D01*
X1230256Y666275D01*
X1230260Y666271D01*
X1231297Y666527D01*
X1231302Y666534D01*
X1231308Y666531D01*
X1232262Y667012D01*
X1232266Y667019D01*
X1232271Y667018D01*
X1233095Y667699D01*
X1233096Y667707D01*
X1233102Y667707D01*
X1233753Y668554D01*
X1233753Y668562D01*
X1233759Y668563D01*
X1234206Y669534D01*
X1234204Y669542D01*
X1234209Y669544D01*
X1234428Y670590D01*
X1234425Y670597D01*
X1234429Y670600D01*
X1234429Y682600D01*
X1234426Y682605D01*
X1234429Y682608D01*
X1234249Y683703D01*
X1234243Y683709D01*
X1234246Y683714D01*
X1233827Y684742D01*
X1233820Y684746D01*
X1233822Y684751D01*
X1233185Y685660D01*
X1233177Y685663D01*
X1233177Y685668D01*
X1232354Y686412D01*
X1232346Y686413D01*
X1232345Y686419D01*
X1231377Y686961D01*
X1231368Y686960D01*
X1231366Y686966D01*
X1230302Y687279D01*
X1230297Y687277D01*
X1230293Y687277D01*
X1230291Y687281D01*
X1229183Y687349D01*
X1229177Y687345D01*
X1229173Y687349D01*
X1228065Y687179D01*
X1228059Y687173D01*
X1228054Y687176D01*
X1227012Y686764D01*
X1227008Y686757D01*
X1227003Y686759D01*
X1226078Y686125D01*
X1226076Y686117D01*
X1226070Y686118D01*
X1225310Y685295D01*
X1225309Y685286D01*
X1225303Y685286D01*
X1224746Y684314D01*
X1224747Y684306D01*
X1224741Y684304D01*
X1224414Y683232D01*
X1224417Y683224D01*
X1224412Y683221D01*
X1224331Y682104D01*
X1224332Y682101D01*
X1224331Y682100D01*
X1224331Y670100D01*
X1224336Y670093D01*
X1224332Y670089D01*
X1224551Y669145D01*
X1224557Y669139D01*
X1224555Y669134D01*
X1224979Y668262D01*
X1224986Y668259D01*
X1224984Y668253D01*
X1225591Y667497D01*
X1225599Y667495D01*
X1225599Y667489D01*
X1226359Y666888D01*
X1226368Y666888D01*
X1226369Y666882D01*
X1227244Y666464D01*
X1227252Y666466D01*
X1227254Y666461D01*
X1228200Y666249D01*
X1228207Y666252D01*
X1228211Y666247D01*
X1229180Y666251D01*
G37*
G36*
X412241Y666260D02*
X412241Y666260D01*
X412248Y666265D01*
X412252Y666261D01*
X413304Y666511D01*
X413309Y666517D01*
X413314Y666514D01*
X414284Y666991D01*
X414287Y666999D01*
X414293Y666997D01*
X415132Y667678D01*
X415134Y667686D01*
X415140Y667686D01*
X415806Y668537D01*
X415807Y668545D01*
X415812Y668546D01*
X416273Y669523D01*
X416271Y669531D01*
X416277Y669534D01*
X416508Y670589D01*
X416505Y670597D01*
X416509Y670600D01*
X416509Y682600D01*
X416505Y682605D01*
X416509Y682608D01*
X416316Y683714D01*
X416310Y683719D01*
X416313Y683724D01*
X415880Y684759D01*
X415873Y684763D01*
X415875Y684768D01*
X415222Y685681D01*
X415214Y685683D01*
X415215Y685689D01*
X414376Y686433D01*
X414367Y686434D01*
X414367Y686439D01*
X413383Y686978D01*
X413375Y686977D01*
X413373Y686982D01*
X412294Y687289D01*
X412286Y687286D01*
X412283Y687291D01*
X411163Y687349D01*
X411158Y687346D01*
X411155Y687349D01*
X410109Y687231D01*
X410103Y687225D01*
X410098Y687229D01*
X409104Y686881D01*
X409100Y686874D01*
X409095Y686876D01*
X408203Y686316D01*
X408201Y686309D01*
X408195Y686309D01*
X407451Y685565D01*
X407449Y685557D01*
X407444Y685557D01*
X406884Y684665D01*
X406884Y684657D01*
X406879Y684656D01*
X406531Y683662D01*
X406534Y683654D01*
X406529Y683651D01*
X406411Y682606D01*
X406413Y682602D01*
X406411Y682600D01*
X406411Y670600D01*
X406414Y670595D01*
X406411Y670592D01*
X406569Y669596D01*
X406575Y669590D01*
X406572Y669585D01*
X406947Y668649D01*
X406954Y668645D01*
X406952Y668639D01*
X407526Y667810D01*
X407534Y667807D01*
X407533Y667802D01*
X408277Y667121D01*
X408286Y667120D01*
X408286Y667114D01*
X409163Y666616D01*
X409172Y666617D01*
X409174Y666612D01*
X410139Y666321D01*
X410147Y666324D01*
X410150Y666319D01*
X411157Y666251D01*
X411159Y666252D01*
X411160Y666251D01*
X412241Y666260D01*
G37*
G36*
X229361Y666260D02*
X229361Y666260D01*
X229368Y666265D01*
X229372Y666261D01*
X230424Y666511D01*
X230429Y666517D01*
X230434Y666514D01*
X231404Y666991D01*
X231407Y666999D01*
X231413Y666997D01*
X232252Y667678D01*
X232254Y667686D01*
X232260Y667686D01*
X232926Y668537D01*
X232927Y668545D01*
X232932Y668546D01*
X233393Y669523D01*
X233391Y669531D01*
X233397Y669534D01*
X233628Y670589D01*
X233625Y670597D01*
X233629Y670600D01*
X233629Y682600D01*
X233625Y682605D01*
X233629Y682608D01*
X233436Y683714D01*
X233430Y683719D01*
X233433Y683724D01*
X233000Y684759D01*
X232993Y684763D01*
X232995Y684768D01*
X232342Y685681D01*
X232334Y685683D01*
X232335Y685689D01*
X231496Y686433D01*
X231487Y686434D01*
X231487Y686439D01*
X230503Y686978D01*
X230495Y686977D01*
X230493Y686982D01*
X229414Y687289D01*
X229406Y687286D01*
X229403Y687291D01*
X228283Y687349D01*
X228278Y687346D01*
X228275Y687349D01*
X227229Y687231D01*
X227223Y687225D01*
X227218Y687229D01*
X226224Y686881D01*
X226220Y686874D01*
X226215Y686876D01*
X225323Y686316D01*
X225321Y686309D01*
X225315Y686309D01*
X224571Y685565D01*
X224569Y685557D01*
X224564Y685557D01*
X224004Y684665D01*
X224004Y684657D01*
X223999Y684656D01*
X223651Y683662D01*
X223654Y683654D01*
X223649Y683651D01*
X223531Y682606D01*
X223533Y682602D01*
X223531Y682600D01*
X223531Y670600D01*
X223534Y670595D01*
X223531Y670592D01*
X223689Y669596D01*
X223695Y669590D01*
X223692Y669585D01*
X224067Y668649D01*
X224074Y668645D01*
X224072Y668639D01*
X224646Y667810D01*
X224654Y667807D01*
X224653Y667802D01*
X225397Y667121D01*
X225406Y667120D01*
X225406Y667114D01*
X226283Y666616D01*
X226292Y666617D01*
X226294Y666612D01*
X227259Y666321D01*
X227267Y666324D01*
X227270Y666319D01*
X228277Y666251D01*
X228279Y666252D01*
X228280Y666251D01*
X229361Y666260D01*
G37*
G36*
X960881Y666260D02*
X960881Y666260D01*
X960888Y666265D01*
X960892Y666261D01*
X961944Y666511D01*
X961949Y666517D01*
X961954Y666514D01*
X962924Y666991D01*
X962927Y666999D01*
X962933Y666997D01*
X963772Y667678D01*
X963774Y667686D01*
X963780Y667686D01*
X964446Y668537D01*
X964447Y668545D01*
X964452Y668546D01*
X964913Y669523D01*
X964911Y669531D01*
X964917Y669534D01*
X965148Y670589D01*
X965145Y670597D01*
X965149Y670600D01*
X965149Y682600D01*
X965145Y682605D01*
X965149Y682608D01*
X964956Y683714D01*
X964950Y683719D01*
X964953Y683724D01*
X964520Y684759D01*
X964513Y684763D01*
X964515Y684768D01*
X963862Y685681D01*
X963854Y685683D01*
X963855Y685689D01*
X963016Y686433D01*
X963007Y686434D01*
X963007Y686439D01*
X962023Y686978D01*
X962015Y686977D01*
X962013Y686982D01*
X960934Y687289D01*
X960926Y687286D01*
X960923Y687291D01*
X959803Y687349D01*
X959798Y687346D01*
X959795Y687349D01*
X958749Y687231D01*
X958743Y687225D01*
X958738Y687229D01*
X957744Y686881D01*
X957740Y686874D01*
X957735Y686876D01*
X956843Y686316D01*
X956841Y686309D01*
X956835Y686309D01*
X956091Y685565D01*
X956089Y685557D01*
X956084Y685557D01*
X955524Y684665D01*
X955524Y684657D01*
X955519Y684656D01*
X955171Y683662D01*
X955174Y683654D01*
X955169Y683651D01*
X955051Y682606D01*
X955053Y682602D01*
X955051Y682600D01*
X955051Y670600D01*
X955054Y670595D01*
X955051Y670592D01*
X955209Y669596D01*
X955215Y669590D01*
X955212Y669585D01*
X955587Y668649D01*
X955594Y668645D01*
X955592Y668639D01*
X956166Y667810D01*
X956174Y667807D01*
X956173Y667802D01*
X956917Y667121D01*
X956926Y667120D01*
X956926Y667114D01*
X957803Y666616D01*
X957812Y666617D01*
X957814Y666612D01*
X958779Y666321D01*
X958787Y666324D01*
X958790Y666319D01*
X959797Y666251D01*
X959799Y666252D01*
X959800Y666251D01*
X960881Y666260D01*
G37*
G36*
X778001Y666260D02*
X778001Y666260D01*
X778008Y666265D01*
X778012Y666261D01*
X779064Y666511D01*
X779069Y666517D01*
X779074Y666514D01*
X780044Y666991D01*
X780047Y666999D01*
X780053Y666997D01*
X780892Y667678D01*
X780894Y667686D01*
X780900Y667686D01*
X781566Y668537D01*
X781567Y668545D01*
X781572Y668546D01*
X782033Y669523D01*
X782031Y669531D01*
X782037Y669534D01*
X782268Y670589D01*
X782265Y670597D01*
X782269Y670600D01*
X782269Y682600D01*
X782265Y682605D01*
X782269Y682608D01*
X782076Y683714D01*
X782070Y683719D01*
X782073Y683724D01*
X781640Y684759D01*
X781633Y684763D01*
X781635Y684768D01*
X780982Y685681D01*
X780974Y685683D01*
X780975Y685689D01*
X780136Y686433D01*
X780127Y686434D01*
X780127Y686439D01*
X779143Y686978D01*
X779135Y686977D01*
X779133Y686982D01*
X778054Y687289D01*
X778046Y687286D01*
X778043Y687291D01*
X776923Y687349D01*
X776918Y687346D01*
X776915Y687349D01*
X775869Y687231D01*
X775863Y687225D01*
X775858Y687229D01*
X774864Y686881D01*
X774860Y686874D01*
X774855Y686876D01*
X773963Y686316D01*
X773961Y686309D01*
X773955Y686309D01*
X773211Y685565D01*
X773209Y685557D01*
X773204Y685557D01*
X772644Y684665D01*
X772644Y684657D01*
X772639Y684656D01*
X772291Y683662D01*
X772294Y683654D01*
X772289Y683651D01*
X772171Y682606D01*
X772173Y682602D01*
X772171Y682600D01*
X772171Y670600D01*
X772174Y670595D01*
X772171Y670592D01*
X772329Y669596D01*
X772335Y669590D01*
X772332Y669585D01*
X772707Y668649D01*
X772714Y668645D01*
X772712Y668639D01*
X773286Y667810D01*
X773294Y667807D01*
X773293Y667802D01*
X774037Y667121D01*
X774046Y667120D01*
X774046Y667114D01*
X774923Y666616D01*
X774932Y666617D01*
X774934Y666612D01*
X775899Y666321D01*
X775907Y666324D01*
X775910Y666319D01*
X776917Y666251D01*
X776919Y666252D01*
X776920Y666251D01*
X778001Y666260D01*
G37*
G36*
X1143761Y666260D02*
X1143761Y666260D01*
X1143768Y666265D01*
X1143772Y666261D01*
X1144824Y666511D01*
X1144829Y666517D01*
X1144834Y666514D01*
X1145804Y666991D01*
X1145807Y666999D01*
X1145813Y666997D01*
X1146652Y667678D01*
X1146654Y667686D01*
X1146660Y667686D01*
X1147326Y668537D01*
X1147327Y668545D01*
X1147332Y668546D01*
X1147793Y669523D01*
X1147791Y669531D01*
X1147797Y669534D01*
X1148028Y670589D01*
X1148025Y670597D01*
X1148029Y670600D01*
X1148029Y682600D01*
X1148025Y682605D01*
X1148029Y682608D01*
X1147836Y683714D01*
X1147830Y683719D01*
X1147833Y683724D01*
X1147400Y684759D01*
X1147393Y684763D01*
X1147395Y684768D01*
X1146742Y685681D01*
X1146734Y685683D01*
X1146735Y685689D01*
X1145896Y686433D01*
X1145887Y686434D01*
X1145887Y686439D01*
X1144903Y686978D01*
X1144895Y686977D01*
X1144893Y686982D01*
X1143814Y687289D01*
X1143806Y687286D01*
X1143803Y687291D01*
X1142683Y687349D01*
X1142678Y687346D01*
X1142675Y687349D01*
X1141629Y687231D01*
X1141623Y687225D01*
X1141618Y687229D01*
X1140624Y686881D01*
X1140620Y686874D01*
X1140615Y686876D01*
X1139723Y686316D01*
X1139721Y686309D01*
X1139715Y686309D01*
X1138971Y685565D01*
X1138969Y685557D01*
X1138964Y685557D01*
X1138404Y684665D01*
X1138404Y684657D01*
X1138399Y684656D01*
X1138051Y683662D01*
X1138054Y683654D01*
X1138049Y683651D01*
X1137931Y682606D01*
X1137933Y682602D01*
X1137931Y682600D01*
X1137931Y670600D01*
X1137934Y670595D01*
X1137931Y670592D01*
X1138089Y669596D01*
X1138095Y669590D01*
X1138092Y669585D01*
X1138467Y668649D01*
X1138474Y668645D01*
X1138472Y668639D01*
X1139046Y667810D01*
X1139054Y667807D01*
X1139053Y667802D01*
X1139797Y667121D01*
X1139806Y667120D01*
X1139806Y667114D01*
X1140683Y666616D01*
X1140692Y666617D01*
X1140694Y666612D01*
X1141659Y666321D01*
X1141667Y666324D01*
X1141670Y666319D01*
X1142677Y666251D01*
X1142679Y666252D01*
X1142680Y666251D01*
X1143761Y666260D01*
G37*
G36*
X46481Y666260D02*
X46481Y666260D01*
X46488Y666265D01*
X46492Y666261D01*
X47544Y666511D01*
X47549Y666517D01*
X47554Y666514D01*
X48524Y666991D01*
X48527Y666999D01*
X48533Y666997D01*
X49372Y667678D01*
X49374Y667686D01*
X49380Y667686D01*
X50046Y668537D01*
X50047Y668545D01*
X50052Y668546D01*
X50513Y669523D01*
X50511Y669531D01*
X50517Y669534D01*
X50748Y670589D01*
X50745Y670597D01*
X50749Y670600D01*
X50749Y682600D01*
X50745Y682605D01*
X50749Y682608D01*
X50556Y683714D01*
X50550Y683719D01*
X50553Y683724D01*
X50120Y684759D01*
X50113Y684763D01*
X50115Y684768D01*
X49462Y685681D01*
X49454Y685683D01*
X49455Y685689D01*
X48616Y686433D01*
X48607Y686434D01*
X48607Y686439D01*
X47623Y686978D01*
X47615Y686977D01*
X47613Y686982D01*
X46534Y687289D01*
X46526Y687286D01*
X46523Y687291D01*
X45403Y687349D01*
X45398Y687346D01*
X45395Y687349D01*
X44349Y687231D01*
X44343Y687225D01*
X44338Y687229D01*
X43344Y686881D01*
X43340Y686874D01*
X43335Y686876D01*
X42443Y686316D01*
X42441Y686309D01*
X42435Y686309D01*
X41691Y685565D01*
X41689Y685557D01*
X41684Y685557D01*
X41124Y684665D01*
X41124Y684657D01*
X41119Y684656D01*
X40771Y683662D01*
X40774Y683654D01*
X40769Y683651D01*
X40651Y682606D01*
X40653Y682602D01*
X40651Y682600D01*
X40651Y670600D01*
X40654Y670595D01*
X40651Y670592D01*
X40809Y669596D01*
X40815Y669590D01*
X40812Y669585D01*
X41187Y668649D01*
X41194Y668645D01*
X41192Y668639D01*
X41766Y667810D01*
X41774Y667807D01*
X41773Y667802D01*
X42517Y667121D01*
X42526Y667120D01*
X42526Y667114D01*
X43403Y666616D01*
X43412Y666617D01*
X43414Y666612D01*
X44379Y666321D01*
X44387Y666324D01*
X44390Y666319D01*
X45397Y666251D01*
X45399Y666252D01*
X45400Y666251D01*
X46481Y666260D01*
G37*
G36*
X595121Y666260D02*
X595121Y666260D01*
X595128Y666265D01*
X595132Y666261D01*
X596184Y666511D01*
X596189Y666517D01*
X596194Y666514D01*
X597164Y666991D01*
X597167Y666999D01*
X597173Y666997D01*
X598012Y667678D01*
X598014Y667686D01*
X598020Y667686D01*
X598686Y668537D01*
X598687Y668545D01*
X598692Y668546D01*
X599153Y669523D01*
X599151Y669531D01*
X599157Y669534D01*
X599388Y670589D01*
X599385Y670597D01*
X599389Y670600D01*
X599389Y682600D01*
X599385Y682605D01*
X599389Y682608D01*
X599196Y683714D01*
X599190Y683719D01*
X599193Y683724D01*
X598760Y684759D01*
X598753Y684763D01*
X598755Y684768D01*
X598102Y685681D01*
X598094Y685683D01*
X598095Y685689D01*
X597256Y686433D01*
X597247Y686434D01*
X597247Y686439D01*
X596263Y686978D01*
X596255Y686977D01*
X596253Y686982D01*
X595174Y687289D01*
X595166Y687286D01*
X595163Y687291D01*
X594043Y687349D01*
X594038Y687346D01*
X594035Y687349D01*
X592989Y687231D01*
X592983Y687225D01*
X592978Y687229D01*
X591984Y686881D01*
X591980Y686874D01*
X591975Y686876D01*
X591083Y686316D01*
X591081Y686309D01*
X591075Y686309D01*
X590331Y685565D01*
X590329Y685557D01*
X590324Y685557D01*
X589764Y684665D01*
X589764Y684657D01*
X589759Y684656D01*
X589411Y683662D01*
X589414Y683654D01*
X589409Y683651D01*
X589291Y682606D01*
X589293Y682602D01*
X589291Y682600D01*
X589291Y670600D01*
X589294Y670595D01*
X589291Y670592D01*
X589449Y669596D01*
X589455Y669590D01*
X589452Y669585D01*
X589827Y668649D01*
X589834Y668645D01*
X589832Y668639D01*
X590406Y667810D01*
X590414Y667807D01*
X590413Y667802D01*
X591157Y667121D01*
X591166Y667120D01*
X591166Y667114D01*
X592043Y666616D01*
X592052Y666617D01*
X592054Y666612D01*
X593019Y666321D01*
X593027Y666324D01*
X593030Y666319D01*
X594037Y666251D01*
X594039Y666252D01*
X594040Y666251D01*
X595121Y666260D01*
G37*
G36*
X778001Y43960D02*
X778001Y43960D01*
X778008Y43965D01*
X778012Y43961D01*
X779064Y44211D01*
X779069Y44217D01*
X779074Y44214D01*
X780044Y44691D01*
X780047Y44699D01*
X780053Y44697D01*
X780892Y45378D01*
X780894Y45386D01*
X780900Y45386D01*
X781566Y46237D01*
X781567Y46245D01*
X781572Y46246D01*
X782033Y47223D01*
X782031Y47231D01*
X782037Y47234D01*
X782268Y48289D01*
X782265Y48297D01*
X782269Y48300D01*
X782269Y60300D01*
X782265Y60305D01*
X782269Y60308D01*
X782076Y61414D01*
X782070Y61419D01*
X782073Y61424D01*
X781640Y62459D01*
X781633Y62463D01*
X781635Y62468D01*
X780982Y63381D01*
X780974Y63383D01*
X780975Y63389D01*
X780136Y64133D01*
X780127Y64134D01*
X780127Y64139D01*
X779143Y64678D01*
X779135Y64677D01*
X779133Y64682D01*
X778054Y64989D01*
X778046Y64986D01*
X778043Y64991D01*
X776923Y65049D01*
X776918Y65046D01*
X776915Y65049D01*
X775869Y64931D01*
X775863Y64925D01*
X775858Y64929D01*
X774864Y64581D01*
X774860Y64574D01*
X774855Y64576D01*
X773963Y64016D01*
X773961Y64009D01*
X773955Y64009D01*
X773211Y63265D01*
X773209Y63257D01*
X773204Y63257D01*
X772644Y62365D01*
X772644Y62357D01*
X772639Y62356D01*
X772291Y61362D01*
X772294Y61354D01*
X772289Y61351D01*
X772171Y60306D01*
X772173Y60302D01*
X772171Y60300D01*
X772171Y48300D01*
X772174Y48295D01*
X772171Y48292D01*
X772329Y47296D01*
X772335Y47290D01*
X772332Y47285D01*
X772707Y46349D01*
X772714Y46345D01*
X772712Y46339D01*
X773286Y45510D01*
X773294Y45507D01*
X773293Y45502D01*
X774037Y44821D01*
X774046Y44820D01*
X774046Y44814D01*
X774923Y44316D01*
X774932Y44317D01*
X774934Y44312D01*
X775899Y44021D01*
X775907Y44024D01*
X775910Y44019D01*
X776917Y43951D01*
X776919Y43952D01*
X776920Y43951D01*
X778001Y43960D01*
G37*
G36*
X229361Y43960D02*
X229361Y43960D01*
X229368Y43965D01*
X229372Y43961D01*
X230424Y44211D01*
X230429Y44217D01*
X230434Y44214D01*
X231404Y44691D01*
X231407Y44699D01*
X231413Y44697D01*
X232252Y45378D01*
X232254Y45386D01*
X232260Y45386D01*
X232926Y46237D01*
X232927Y46245D01*
X232932Y46246D01*
X233393Y47223D01*
X233391Y47231D01*
X233397Y47234D01*
X233628Y48289D01*
X233625Y48297D01*
X233629Y48300D01*
X233629Y60300D01*
X233625Y60305D01*
X233629Y60308D01*
X233436Y61414D01*
X233430Y61419D01*
X233433Y61424D01*
X233000Y62459D01*
X232993Y62463D01*
X232995Y62468D01*
X232342Y63381D01*
X232334Y63383D01*
X232335Y63389D01*
X231496Y64133D01*
X231487Y64134D01*
X231487Y64139D01*
X230503Y64678D01*
X230495Y64677D01*
X230493Y64682D01*
X229414Y64989D01*
X229406Y64986D01*
X229403Y64991D01*
X228283Y65049D01*
X228278Y65046D01*
X228275Y65049D01*
X227229Y64931D01*
X227223Y64925D01*
X227218Y64929D01*
X226224Y64581D01*
X226220Y64574D01*
X226215Y64576D01*
X225323Y64016D01*
X225321Y64009D01*
X225315Y64009D01*
X224571Y63265D01*
X224569Y63257D01*
X224564Y63257D01*
X224004Y62365D01*
X224004Y62357D01*
X223999Y62356D01*
X223651Y61362D01*
X223654Y61354D01*
X223649Y61351D01*
X223531Y60306D01*
X223533Y60302D01*
X223531Y60300D01*
X223531Y48300D01*
X223534Y48295D01*
X223531Y48292D01*
X223689Y47296D01*
X223695Y47290D01*
X223692Y47285D01*
X224067Y46349D01*
X224074Y46345D01*
X224072Y46339D01*
X224646Y45510D01*
X224654Y45507D01*
X224653Y45502D01*
X225397Y44821D01*
X225406Y44820D01*
X225406Y44814D01*
X226283Y44316D01*
X226292Y44317D01*
X226294Y44312D01*
X227259Y44021D01*
X227267Y44024D01*
X227270Y44019D01*
X228277Y43951D01*
X228279Y43952D01*
X228280Y43951D01*
X229361Y43960D01*
G37*
G36*
X960881Y43960D02*
X960881Y43960D01*
X960888Y43965D01*
X960892Y43961D01*
X961944Y44211D01*
X961949Y44217D01*
X961954Y44214D01*
X962924Y44691D01*
X962927Y44699D01*
X962933Y44697D01*
X963772Y45378D01*
X963774Y45386D01*
X963780Y45386D01*
X964446Y46237D01*
X964447Y46245D01*
X964452Y46246D01*
X964913Y47223D01*
X964911Y47231D01*
X964917Y47234D01*
X965148Y48289D01*
X965145Y48297D01*
X965149Y48300D01*
X965149Y60300D01*
X965145Y60305D01*
X965149Y60308D01*
X964956Y61414D01*
X964950Y61419D01*
X964953Y61424D01*
X964520Y62459D01*
X964513Y62463D01*
X964515Y62468D01*
X963862Y63381D01*
X963854Y63383D01*
X963855Y63389D01*
X963016Y64133D01*
X963007Y64134D01*
X963007Y64139D01*
X962023Y64678D01*
X962015Y64677D01*
X962013Y64682D01*
X960934Y64989D01*
X960926Y64986D01*
X960923Y64991D01*
X959803Y65049D01*
X959798Y65046D01*
X959795Y65049D01*
X958749Y64931D01*
X958743Y64925D01*
X958738Y64929D01*
X957744Y64581D01*
X957740Y64574D01*
X957735Y64576D01*
X956843Y64016D01*
X956841Y64009D01*
X956835Y64009D01*
X956091Y63265D01*
X956089Y63257D01*
X956084Y63257D01*
X955524Y62365D01*
X955524Y62357D01*
X955519Y62356D01*
X955171Y61362D01*
X955174Y61354D01*
X955169Y61351D01*
X955051Y60306D01*
X955053Y60302D01*
X955051Y60300D01*
X955051Y48300D01*
X955054Y48295D01*
X955051Y48292D01*
X955209Y47296D01*
X955215Y47290D01*
X955212Y47285D01*
X955587Y46349D01*
X955594Y46345D01*
X955592Y46339D01*
X956166Y45510D01*
X956174Y45507D01*
X956173Y45502D01*
X956917Y44821D01*
X956926Y44820D01*
X956926Y44814D01*
X957803Y44316D01*
X957812Y44317D01*
X957814Y44312D01*
X958779Y44021D01*
X958787Y44024D01*
X958790Y44019D01*
X959797Y43951D01*
X959799Y43952D01*
X959800Y43951D01*
X960881Y43960D01*
G37*
G36*
X595121Y43960D02*
X595121Y43960D01*
X595128Y43965D01*
X595132Y43961D01*
X596184Y44211D01*
X596189Y44217D01*
X596194Y44214D01*
X597164Y44691D01*
X597167Y44699D01*
X597173Y44697D01*
X598012Y45378D01*
X598014Y45386D01*
X598020Y45386D01*
X598686Y46237D01*
X598687Y46245D01*
X598692Y46246D01*
X599153Y47223D01*
X599151Y47231D01*
X599157Y47234D01*
X599388Y48289D01*
X599385Y48297D01*
X599389Y48300D01*
X599389Y60300D01*
X599385Y60305D01*
X599389Y60308D01*
X599196Y61414D01*
X599190Y61419D01*
X599193Y61424D01*
X598760Y62459D01*
X598753Y62463D01*
X598755Y62468D01*
X598102Y63381D01*
X598094Y63383D01*
X598095Y63389D01*
X597256Y64133D01*
X597247Y64134D01*
X597247Y64139D01*
X596263Y64678D01*
X596255Y64677D01*
X596253Y64682D01*
X595174Y64989D01*
X595166Y64986D01*
X595163Y64991D01*
X594043Y65049D01*
X594038Y65046D01*
X594035Y65049D01*
X592989Y64931D01*
X592983Y64925D01*
X592978Y64929D01*
X591984Y64581D01*
X591980Y64574D01*
X591975Y64576D01*
X591083Y64016D01*
X591081Y64009D01*
X591075Y64009D01*
X590331Y63265D01*
X590329Y63257D01*
X590324Y63257D01*
X589764Y62365D01*
X589764Y62357D01*
X589759Y62356D01*
X589411Y61362D01*
X589414Y61354D01*
X589409Y61351D01*
X589291Y60306D01*
X589293Y60302D01*
X589291Y60300D01*
X589291Y48300D01*
X589294Y48295D01*
X589291Y48292D01*
X589449Y47296D01*
X589455Y47290D01*
X589452Y47285D01*
X589827Y46349D01*
X589834Y46345D01*
X589832Y46339D01*
X590406Y45510D01*
X590414Y45507D01*
X590413Y45502D01*
X591157Y44821D01*
X591166Y44820D01*
X591166Y44814D01*
X592043Y44316D01*
X592052Y44317D01*
X592054Y44312D01*
X593019Y44021D01*
X593027Y44024D01*
X593030Y44019D01*
X594037Y43951D01*
X594039Y43952D01*
X594040Y43951D01*
X595121Y43960D01*
G37*
G36*
X412241Y43960D02*
X412241Y43960D01*
X412248Y43965D01*
X412252Y43961D01*
X413304Y44211D01*
X413309Y44217D01*
X413314Y44214D01*
X414284Y44691D01*
X414287Y44699D01*
X414293Y44697D01*
X415132Y45378D01*
X415134Y45386D01*
X415140Y45386D01*
X415806Y46237D01*
X415807Y46245D01*
X415812Y46246D01*
X416273Y47223D01*
X416271Y47231D01*
X416277Y47234D01*
X416508Y48289D01*
X416505Y48297D01*
X416509Y48300D01*
X416509Y60300D01*
X416505Y60305D01*
X416509Y60308D01*
X416316Y61414D01*
X416310Y61419D01*
X416313Y61424D01*
X415880Y62459D01*
X415873Y62463D01*
X415875Y62468D01*
X415222Y63381D01*
X415214Y63383D01*
X415215Y63389D01*
X414376Y64133D01*
X414367Y64134D01*
X414367Y64139D01*
X413383Y64678D01*
X413375Y64677D01*
X413373Y64682D01*
X412294Y64989D01*
X412286Y64986D01*
X412283Y64991D01*
X411163Y65049D01*
X411158Y65046D01*
X411155Y65049D01*
X410109Y64931D01*
X410103Y64925D01*
X410098Y64929D01*
X409104Y64581D01*
X409100Y64574D01*
X409095Y64576D01*
X408203Y64016D01*
X408201Y64009D01*
X408195Y64009D01*
X407451Y63265D01*
X407449Y63257D01*
X407444Y63257D01*
X406884Y62365D01*
X406884Y62357D01*
X406879Y62356D01*
X406531Y61362D01*
X406534Y61354D01*
X406529Y61351D01*
X406411Y60306D01*
X406413Y60302D01*
X406411Y60300D01*
X406411Y48300D01*
X406414Y48295D01*
X406411Y48292D01*
X406569Y47296D01*
X406575Y47290D01*
X406572Y47285D01*
X406947Y46349D01*
X406954Y46345D01*
X406952Y46339D01*
X407526Y45510D01*
X407534Y45507D01*
X407533Y45502D01*
X408277Y44821D01*
X408286Y44820D01*
X408286Y44814D01*
X409163Y44316D01*
X409172Y44317D01*
X409174Y44312D01*
X410139Y44021D01*
X410147Y44024D01*
X410150Y44019D01*
X411157Y43951D01*
X411159Y43952D01*
X411160Y43951D01*
X412241Y43960D01*
G37*
G36*
X46481Y43960D02*
X46481Y43960D01*
X46488Y43965D01*
X46492Y43961D01*
X47544Y44211D01*
X47549Y44217D01*
X47554Y44214D01*
X48524Y44691D01*
X48527Y44699D01*
X48533Y44697D01*
X49372Y45378D01*
X49374Y45386D01*
X49380Y45386D01*
X50046Y46237D01*
X50047Y46245D01*
X50052Y46246D01*
X50513Y47223D01*
X50511Y47231D01*
X50517Y47234D01*
X50748Y48289D01*
X50745Y48297D01*
X50749Y48300D01*
X50749Y60300D01*
X50745Y60305D01*
X50749Y60308D01*
X50556Y61414D01*
X50550Y61419D01*
X50553Y61424D01*
X50120Y62459D01*
X50113Y62463D01*
X50115Y62468D01*
X49462Y63381D01*
X49454Y63383D01*
X49455Y63389D01*
X48616Y64133D01*
X48607Y64134D01*
X48607Y64139D01*
X47623Y64678D01*
X47615Y64677D01*
X47613Y64682D01*
X46534Y64989D01*
X46526Y64986D01*
X46523Y64991D01*
X45403Y65049D01*
X45398Y65046D01*
X45395Y65049D01*
X44349Y64931D01*
X44343Y64925D01*
X44338Y64929D01*
X43344Y64581D01*
X43340Y64574D01*
X43335Y64576D01*
X42443Y64016D01*
X42441Y64009D01*
X42435Y64009D01*
X41691Y63265D01*
X41689Y63257D01*
X41684Y63257D01*
X41124Y62365D01*
X41124Y62357D01*
X41119Y62356D01*
X40771Y61362D01*
X40774Y61354D01*
X40769Y61351D01*
X40651Y60306D01*
X40653Y60302D01*
X40651Y60300D01*
X40651Y48300D01*
X40654Y48295D01*
X40651Y48292D01*
X40809Y47296D01*
X40815Y47290D01*
X40812Y47285D01*
X41187Y46349D01*
X41194Y46345D01*
X41192Y46339D01*
X41766Y45510D01*
X41774Y45507D01*
X41773Y45502D01*
X42517Y44821D01*
X42526Y44820D01*
X42526Y44814D01*
X43403Y44316D01*
X43412Y44317D01*
X43414Y44312D01*
X44379Y44021D01*
X44387Y44024D01*
X44390Y44019D01*
X45397Y43951D01*
X45399Y43952D01*
X45400Y43951D01*
X46481Y43960D01*
G37*
G36*
X1143761Y43960D02*
X1143761Y43960D01*
X1143768Y43965D01*
X1143772Y43961D01*
X1144824Y44211D01*
X1144829Y44217D01*
X1144834Y44214D01*
X1145804Y44691D01*
X1145807Y44699D01*
X1145813Y44697D01*
X1146652Y45378D01*
X1146654Y45386D01*
X1146660Y45386D01*
X1147326Y46237D01*
X1147327Y46245D01*
X1147332Y46246D01*
X1147793Y47223D01*
X1147791Y47231D01*
X1147797Y47234D01*
X1148028Y48289D01*
X1148025Y48297D01*
X1148029Y48300D01*
X1148029Y60300D01*
X1148025Y60305D01*
X1148029Y60308D01*
X1147836Y61414D01*
X1147830Y61419D01*
X1147833Y61424D01*
X1147400Y62459D01*
X1147393Y62463D01*
X1147395Y62468D01*
X1146742Y63381D01*
X1146734Y63383D01*
X1146735Y63389D01*
X1145896Y64133D01*
X1145887Y64134D01*
X1145887Y64139D01*
X1144903Y64678D01*
X1144895Y64677D01*
X1144893Y64682D01*
X1143814Y64989D01*
X1143806Y64986D01*
X1143803Y64991D01*
X1142683Y65049D01*
X1142678Y65046D01*
X1142675Y65049D01*
X1141629Y64931D01*
X1141623Y64925D01*
X1141618Y64929D01*
X1140624Y64581D01*
X1140620Y64574D01*
X1140615Y64576D01*
X1139723Y64016D01*
X1139721Y64009D01*
X1139715Y64009D01*
X1138971Y63265D01*
X1138969Y63257D01*
X1138964Y63257D01*
X1138404Y62365D01*
X1138404Y62357D01*
X1138399Y62356D01*
X1138051Y61362D01*
X1138054Y61354D01*
X1138049Y61351D01*
X1137931Y60306D01*
X1137933Y60302D01*
X1137931Y60300D01*
X1137931Y48300D01*
X1137934Y48295D01*
X1137931Y48292D01*
X1138089Y47296D01*
X1138095Y47290D01*
X1138092Y47285D01*
X1138467Y46349D01*
X1138474Y46345D01*
X1138472Y46339D01*
X1139046Y45510D01*
X1139054Y45507D01*
X1139053Y45502D01*
X1139797Y44821D01*
X1139806Y44820D01*
X1139806Y44814D01*
X1140683Y44316D01*
X1140692Y44317D01*
X1140694Y44312D01*
X1141659Y44021D01*
X1141667Y44024D01*
X1141670Y44019D01*
X1142677Y43951D01*
X1142679Y43952D01*
X1142680Y43951D01*
X1143761Y43960D01*
G37*
G36*
X498164Y626755D02*
X498164Y626755D01*
X498167Y626751D01*
X499243Y626906D01*
X499248Y626912D01*
X499253Y626909D01*
X500267Y627299D01*
X500271Y627306D01*
X500277Y627305D01*
X501179Y627911D01*
X501181Y627919D01*
X501187Y627918D01*
X501931Y628710D01*
X501932Y628718D01*
X501938Y628718D01*
X502487Y629656D01*
X502486Y629664D01*
X502492Y629666D01*
X502819Y630702D01*
X502816Y630710D01*
X502821Y630713D01*
X502909Y631796D01*
X502907Y631799D01*
X502909Y631800D01*
X502909Y637800D01*
X502906Y637804D01*
X502909Y637806D01*
X502759Y638939D01*
X502753Y638945D01*
X502756Y638950D01*
X502358Y640020D01*
X502351Y640024D01*
X502353Y640030D01*
X501726Y640985D01*
X501718Y640988D01*
X501719Y640993D01*
X500896Y641785D01*
X500888Y641786D01*
X500887Y641792D01*
X499908Y642381D01*
X499900Y642380D01*
X499898Y642385D01*
X498813Y642741D01*
X498805Y642739D01*
X498802Y642743D01*
X497665Y642849D01*
X497656Y642844D01*
X497651Y642848D01*
X496514Y642641D01*
X496508Y642635D01*
X496503Y642638D01*
X495441Y642183D01*
X495437Y642176D01*
X495431Y642178D01*
X494496Y641498D01*
X494494Y641490D01*
X494488Y641491D01*
X493728Y640620D01*
X493728Y640612D01*
X493722Y640611D01*
X493175Y639592D01*
X493176Y639584D01*
X493171Y639582D01*
X493167Y639569D01*
X493154Y639520D01*
X493153Y639520D01*
X493154Y639520D01*
X493140Y639471D01*
X493126Y639421D01*
X493113Y639372D01*
X493099Y639323D01*
X493086Y639274D01*
X493072Y639224D01*
X493059Y639175D01*
X493045Y639126D01*
X493031Y639077D01*
X493018Y639027D01*
X493004Y638978D01*
X492991Y638929D01*
X492977Y638880D01*
X492964Y638830D01*
X492950Y638781D01*
X492937Y638732D01*
X492936Y638732D01*
X492923Y638683D01*
X492909Y638633D01*
X492864Y638468D01*
X492867Y638460D01*
X492862Y638457D01*
X492811Y637302D01*
X492812Y637301D01*
X492811Y637300D01*
X492811Y631300D01*
X492815Y631294D01*
X492812Y631291D01*
X493024Y630210D01*
X493030Y630205D01*
X493027Y630200D01*
X493474Y629194D01*
X493481Y629190D01*
X493479Y629184D01*
X494139Y628303D01*
X494147Y628300D01*
X494147Y628295D01*
X494986Y627582D01*
X494994Y627582D01*
X494995Y627576D01*
X495972Y627068D01*
X495980Y627069D01*
X495982Y627064D01*
X497047Y626786D01*
X497055Y626789D01*
X497058Y626785D01*
X498159Y626751D01*
X498164Y626755D01*
G37*
G36*
X1046804Y626755D02*
X1046804Y626755D01*
X1046807Y626751D01*
X1047883Y626906D01*
X1047888Y626912D01*
X1047893Y626909D01*
X1048907Y627299D01*
X1048911Y627306D01*
X1048917Y627305D01*
X1049819Y627911D01*
X1049821Y627919D01*
X1049827Y627918D01*
X1050571Y628710D01*
X1050572Y628718D01*
X1050578Y628718D01*
X1051127Y629656D01*
X1051126Y629664D01*
X1051132Y629666D01*
X1051459Y630702D01*
X1051456Y630710D01*
X1051461Y630713D01*
X1051549Y631796D01*
X1051547Y631799D01*
X1051549Y631800D01*
X1051549Y637800D01*
X1051546Y637804D01*
X1051549Y637806D01*
X1051399Y638939D01*
X1051393Y638945D01*
X1051396Y638950D01*
X1050998Y640020D01*
X1050991Y640024D01*
X1050993Y640030D01*
X1050366Y640985D01*
X1050358Y640988D01*
X1050359Y640993D01*
X1049536Y641785D01*
X1049528Y641786D01*
X1049527Y641792D01*
X1048548Y642381D01*
X1048540Y642380D01*
X1048538Y642385D01*
X1047453Y642741D01*
X1047445Y642739D01*
X1047442Y642743D01*
X1046305Y642849D01*
X1046296Y642844D01*
X1046291Y642848D01*
X1045154Y642641D01*
X1045148Y642635D01*
X1045143Y642638D01*
X1044081Y642183D01*
X1044077Y642176D01*
X1044071Y642178D01*
X1043136Y641498D01*
X1043134Y641490D01*
X1043128Y641491D01*
X1042368Y640620D01*
X1042368Y640612D01*
X1042362Y640611D01*
X1041815Y639592D01*
X1041816Y639584D01*
X1041811Y639582D01*
X1041807Y639569D01*
X1041794Y639520D01*
X1041793Y639520D01*
X1041794Y639520D01*
X1041780Y639471D01*
X1041766Y639421D01*
X1041753Y639372D01*
X1041739Y639323D01*
X1041726Y639274D01*
X1041712Y639224D01*
X1041699Y639175D01*
X1041685Y639126D01*
X1041671Y639077D01*
X1041658Y639027D01*
X1041644Y638978D01*
X1041631Y638929D01*
X1041617Y638880D01*
X1041604Y638830D01*
X1041590Y638781D01*
X1041577Y638732D01*
X1041576Y638732D01*
X1041563Y638683D01*
X1041549Y638633D01*
X1041504Y638468D01*
X1041507Y638460D01*
X1041502Y638457D01*
X1041451Y637302D01*
X1041452Y637301D01*
X1041451Y637300D01*
X1041451Y631300D01*
X1041455Y631294D01*
X1041452Y631291D01*
X1041664Y630210D01*
X1041670Y630205D01*
X1041667Y630200D01*
X1042114Y629194D01*
X1042121Y629190D01*
X1042119Y629184D01*
X1042779Y628303D01*
X1042787Y628300D01*
X1042787Y628295D01*
X1043626Y627582D01*
X1043634Y627582D01*
X1043635Y627576D01*
X1044612Y627068D01*
X1044620Y627069D01*
X1044622Y627064D01*
X1045687Y626786D01*
X1045695Y626789D01*
X1045698Y626785D01*
X1046799Y626751D01*
X1046804Y626755D01*
G37*
G36*
X863924Y626755D02*
X863924Y626755D01*
X863927Y626751D01*
X865003Y626906D01*
X865008Y626912D01*
X865013Y626909D01*
X866027Y627299D01*
X866031Y627306D01*
X866037Y627305D01*
X866939Y627911D01*
X866941Y627919D01*
X866947Y627918D01*
X867691Y628710D01*
X867692Y628718D01*
X867698Y628718D01*
X868247Y629656D01*
X868246Y629664D01*
X868252Y629666D01*
X868579Y630702D01*
X868576Y630710D01*
X868581Y630713D01*
X868669Y631796D01*
X868667Y631799D01*
X868669Y631800D01*
X868669Y637800D01*
X868666Y637804D01*
X868669Y637806D01*
X868519Y638939D01*
X868513Y638945D01*
X868516Y638950D01*
X868118Y640020D01*
X868111Y640024D01*
X868113Y640030D01*
X867486Y640985D01*
X867478Y640988D01*
X867479Y640993D01*
X866656Y641785D01*
X866648Y641786D01*
X866647Y641792D01*
X865668Y642381D01*
X865660Y642380D01*
X865658Y642385D01*
X864573Y642741D01*
X864565Y642739D01*
X864562Y642743D01*
X863425Y642849D01*
X863416Y642844D01*
X863411Y642848D01*
X862274Y642641D01*
X862268Y642635D01*
X862263Y642638D01*
X861201Y642183D01*
X861197Y642176D01*
X861191Y642178D01*
X860256Y641498D01*
X860254Y641490D01*
X860248Y641491D01*
X859488Y640620D01*
X859488Y640612D01*
X859482Y640611D01*
X858935Y639592D01*
X858936Y639584D01*
X858931Y639582D01*
X858927Y639569D01*
X858914Y639520D01*
X858913Y639520D01*
X858914Y639520D01*
X858900Y639471D01*
X858886Y639421D01*
X858873Y639372D01*
X858859Y639323D01*
X858846Y639274D01*
X858832Y639224D01*
X858819Y639175D01*
X858805Y639126D01*
X858791Y639077D01*
X858778Y639027D01*
X858764Y638978D01*
X858751Y638929D01*
X858737Y638880D01*
X858724Y638830D01*
X858710Y638781D01*
X858697Y638732D01*
X858696Y638732D01*
X858683Y638683D01*
X858669Y638633D01*
X858624Y638468D01*
X858627Y638460D01*
X858622Y638457D01*
X858571Y637302D01*
X858572Y637301D01*
X858571Y637300D01*
X858571Y631300D01*
X858575Y631294D01*
X858572Y631291D01*
X858784Y630210D01*
X858790Y630205D01*
X858787Y630200D01*
X859234Y629194D01*
X859241Y629190D01*
X859239Y629184D01*
X859899Y628303D01*
X859907Y628300D01*
X859907Y628295D01*
X860746Y627582D01*
X860754Y627582D01*
X860755Y627576D01*
X861732Y627068D01*
X861740Y627069D01*
X861742Y627064D01*
X862807Y626786D01*
X862815Y626789D01*
X862818Y626785D01*
X863919Y626751D01*
X863924Y626755D01*
G37*
G36*
X1229684Y626755D02*
X1229684Y626755D01*
X1229687Y626751D01*
X1230763Y626906D01*
X1230768Y626912D01*
X1230773Y626909D01*
X1231787Y627299D01*
X1231791Y627306D01*
X1231797Y627305D01*
X1232699Y627911D01*
X1232701Y627919D01*
X1232707Y627918D01*
X1233451Y628710D01*
X1233452Y628718D01*
X1233458Y628718D01*
X1234007Y629656D01*
X1234006Y629664D01*
X1234012Y629666D01*
X1234339Y630702D01*
X1234336Y630710D01*
X1234341Y630713D01*
X1234429Y631796D01*
X1234427Y631799D01*
X1234429Y631800D01*
X1234429Y637800D01*
X1234426Y637804D01*
X1234429Y637806D01*
X1234279Y638939D01*
X1234273Y638945D01*
X1234276Y638950D01*
X1233878Y640020D01*
X1233871Y640024D01*
X1233873Y640030D01*
X1233246Y640985D01*
X1233238Y640988D01*
X1233239Y640993D01*
X1232416Y641785D01*
X1232408Y641786D01*
X1232407Y641792D01*
X1231428Y642381D01*
X1231420Y642380D01*
X1231418Y642385D01*
X1230333Y642741D01*
X1230325Y642739D01*
X1230322Y642743D01*
X1229185Y642849D01*
X1229176Y642844D01*
X1229171Y642848D01*
X1228034Y642641D01*
X1228028Y642635D01*
X1228023Y642638D01*
X1226961Y642183D01*
X1226957Y642176D01*
X1226951Y642178D01*
X1226016Y641498D01*
X1226014Y641490D01*
X1226008Y641491D01*
X1225248Y640620D01*
X1225248Y640612D01*
X1225242Y640611D01*
X1224695Y639592D01*
X1224696Y639584D01*
X1224691Y639582D01*
X1224687Y639569D01*
X1224674Y639520D01*
X1224673Y639520D01*
X1224674Y639520D01*
X1224660Y639471D01*
X1224646Y639421D01*
X1224633Y639372D01*
X1224619Y639323D01*
X1224606Y639274D01*
X1224592Y639224D01*
X1224579Y639175D01*
X1224565Y639126D01*
X1224551Y639077D01*
X1224538Y639027D01*
X1224524Y638978D01*
X1224511Y638929D01*
X1224497Y638880D01*
X1224484Y638830D01*
X1224470Y638781D01*
X1224457Y638732D01*
X1224456Y638732D01*
X1224443Y638683D01*
X1224429Y638633D01*
X1224384Y638468D01*
X1224387Y638460D01*
X1224382Y638457D01*
X1224331Y637302D01*
X1224332Y637301D01*
X1224331Y637300D01*
X1224331Y631300D01*
X1224335Y631294D01*
X1224332Y631291D01*
X1224544Y630210D01*
X1224550Y630205D01*
X1224547Y630200D01*
X1224994Y629194D01*
X1225001Y629190D01*
X1224999Y629184D01*
X1225659Y628303D01*
X1225667Y628300D01*
X1225667Y628295D01*
X1226506Y627582D01*
X1226514Y627582D01*
X1226515Y627576D01*
X1227492Y627068D01*
X1227500Y627069D01*
X1227502Y627064D01*
X1228567Y626786D01*
X1228575Y626789D01*
X1228578Y626785D01*
X1229679Y626751D01*
X1229684Y626755D01*
G37*
G36*
X132404Y626755D02*
X132404Y626755D01*
X132407Y626751D01*
X133483Y626906D01*
X133488Y626912D01*
X133493Y626909D01*
X134507Y627299D01*
X134511Y627306D01*
X134517Y627305D01*
X135419Y627911D01*
X135421Y627919D01*
X135427Y627918D01*
X136171Y628710D01*
X136172Y628718D01*
X136178Y628718D01*
X136727Y629656D01*
X136726Y629664D01*
X136732Y629666D01*
X137059Y630702D01*
X137056Y630710D01*
X137061Y630713D01*
X137149Y631796D01*
X137147Y631799D01*
X137149Y631800D01*
X137149Y637800D01*
X137146Y637804D01*
X137149Y637806D01*
X136999Y638939D01*
X136993Y638945D01*
X136996Y638950D01*
X136598Y640020D01*
X136591Y640024D01*
X136593Y640030D01*
X135966Y640985D01*
X135958Y640988D01*
X135959Y640993D01*
X135136Y641785D01*
X135128Y641786D01*
X135127Y641792D01*
X134148Y642381D01*
X134140Y642380D01*
X134138Y642385D01*
X133053Y642741D01*
X133045Y642739D01*
X133042Y642743D01*
X131905Y642849D01*
X131896Y642844D01*
X131891Y642848D01*
X130754Y642641D01*
X130748Y642635D01*
X130743Y642638D01*
X129681Y642183D01*
X129677Y642176D01*
X129671Y642178D01*
X128736Y641498D01*
X128734Y641490D01*
X128728Y641491D01*
X127968Y640620D01*
X127968Y640612D01*
X127962Y640611D01*
X127415Y639592D01*
X127416Y639584D01*
X127411Y639582D01*
X127407Y639569D01*
X127394Y639520D01*
X127393Y639520D01*
X127394Y639520D01*
X127380Y639471D01*
X127366Y639421D01*
X127353Y639372D01*
X127339Y639323D01*
X127326Y639274D01*
X127312Y639224D01*
X127299Y639175D01*
X127285Y639126D01*
X127271Y639077D01*
X127258Y639027D01*
X127244Y638978D01*
X127231Y638929D01*
X127217Y638880D01*
X127204Y638830D01*
X127190Y638781D01*
X127177Y638732D01*
X127176Y638732D01*
X127163Y638683D01*
X127149Y638633D01*
X127104Y638468D01*
X127107Y638460D01*
X127102Y638457D01*
X127051Y637302D01*
X127052Y637301D01*
X127051Y637300D01*
X127051Y631300D01*
X127055Y631294D01*
X127052Y631291D01*
X127264Y630210D01*
X127270Y630205D01*
X127267Y630200D01*
X127714Y629194D01*
X127721Y629190D01*
X127719Y629184D01*
X128379Y628303D01*
X128387Y628300D01*
X128387Y628295D01*
X129226Y627582D01*
X129234Y627582D01*
X129235Y627576D01*
X130212Y627068D01*
X130220Y627069D01*
X130222Y627064D01*
X131287Y626786D01*
X131295Y626789D01*
X131298Y626785D01*
X132399Y626751D01*
X132404Y626755D01*
G37*
G36*
X315284Y626755D02*
X315284Y626755D01*
X315287Y626751D01*
X316363Y626906D01*
X316368Y626912D01*
X316373Y626909D01*
X317387Y627299D01*
X317391Y627306D01*
X317397Y627305D01*
X318299Y627911D01*
X318301Y627919D01*
X318307Y627918D01*
X319051Y628710D01*
X319052Y628718D01*
X319058Y628718D01*
X319607Y629656D01*
X319606Y629664D01*
X319612Y629666D01*
X319939Y630702D01*
X319936Y630710D01*
X319941Y630713D01*
X320029Y631796D01*
X320027Y631799D01*
X320029Y631800D01*
X320029Y637800D01*
X320026Y637804D01*
X320029Y637806D01*
X319879Y638939D01*
X319873Y638945D01*
X319876Y638950D01*
X319478Y640020D01*
X319471Y640024D01*
X319473Y640030D01*
X318846Y640985D01*
X318838Y640988D01*
X318839Y640993D01*
X318016Y641785D01*
X318008Y641786D01*
X318007Y641792D01*
X317028Y642381D01*
X317020Y642380D01*
X317018Y642385D01*
X315933Y642741D01*
X315925Y642739D01*
X315922Y642743D01*
X314785Y642849D01*
X314776Y642844D01*
X314771Y642848D01*
X313634Y642641D01*
X313628Y642635D01*
X313623Y642638D01*
X312561Y642183D01*
X312557Y642176D01*
X312551Y642178D01*
X311616Y641498D01*
X311614Y641490D01*
X311608Y641491D01*
X310848Y640620D01*
X310848Y640612D01*
X310842Y640611D01*
X310295Y639592D01*
X310296Y639584D01*
X310291Y639582D01*
X310287Y639569D01*
X310274Y639520D01*
X310273Y639520D01*
X310274Y639520D01*
X310260Y639471D01*
X310246Y639421D01*
X310233Y639372D01*
X310219Y639323D01*
X310206Y639274D01*
X310192Y639224D01*
X310179Y639175D01*
X310165Y639126D01*
X310151Y639077D01*
X310138Y639027D01*
X310124Y638978D01*
X310111Y638929D01*
X310097Y638880D01*
X310084Y638830D01*
X310070Y638781D01*
X310057Y638732D01*
X310056Y638732D01*
X310043Y638683D01*
X310029Y638633D01*
X309984Y638468D01*
X309987Y638460D01*
X309982Y638457D01*
X309931Y637302D01*
X309932Y637301D01*
X309931Y637300D01*
X309931Y631300D01*
X309935Y631294D01*
X309932Y631291D01*
X310144Y630210D01*
X310150Y630205D01*
X310147Y630200D01*
X310594Y629194D01*
X310601Y629190D01*
X310599Y629184D01*
X311259Y628303D01*
X311267Y628300D01*
X311267Y628295D01*
X312106Y627582D01*
X312114Y627582D01*
X312115Y627576D01*
X313092Y627068D01*
X313100Y627069D01*
X313102Y627064D01*
X314167Y626786D01*
X314175Y626789D01*
X314178Y626785D01*
X315279Y626751D01*
X315284Y626755D01*
G37*
G36*
X681044Y626755D02*
X681044Y626755D01*
X681047Y626751D01*
X682123Y626906D01*
X682128Y626912D01*
X682133Y626909D01*
X683147Y627299D01*
X683151Y627306D01*
X683157Y627305D01*
X684059Y627911D01*
X684061Y627919D01*
X684067Y627918D01*
X684811Y628710D01*
X684812Y628718D01*
X684818Y628718D01*
X685367Y629656D01*
X685366Y629664D01*
X685372Y629666D01*
X685699Y630702D01*
X685696Y630710D01*
X685701Y630713D01*
X685789Y631796D01*
X685787Y631799D01*
X685789Y631800D01*
X685789Y637800D01*
X685786Y637804D01*
X685789Y637806D01*
X685639Y638939D01*
X685633Y638945D01*
X685636Y638950D01*
X685238Y640020D01*
X685231Y640024D01*
X685233Y640030D01*
X684606Y640985D01*
X684598Y640988D01*
X684599Y640993D01*
X683776Y641785D01*
X683768Y641786D01*
X683767Y641792D01*
X682788Y642381D01*
X682780Y642380D01*
X682778Y642385D01*
X681693Y642741D01*
X681685Y642739D01*
X681682Y642743D01*
X680545Y642849D01*
X680536Y642844D01*
X680531Y642848D01*
X679394Y642641D01*
X679388Y642635D01*
X679383Y642638D01*
X678321Y642183D01*
X678317Y642176D01*
X678311Y642178D01*
X677376Y641498D01*
X677374Y641490D01*
X677368Y641491D01*
X676608Y640620D01*
X676608Y640612D01*
X676602Y640611D01*
X676055Y639592D01*
X676056Y639584D01*
X676051Y639582D01*
X676047Y639569D01*
X676034Y639520D01*
X676033Y639520D01*
X676034Y639520D01*
X676020Y639471D01*
X676006Y639421D01*
X675993Y639372D01*
X675979Y639323D01*
X675966Y639274D01*
X675952Y639224D01*
X675939Y639175D01*
X675925Y639126D01*
X675911Y639077D01*
X675898Y639027D01*
X675884Y638978D01*
X675871Y638929D01*
X675857Y638880D01*
X675844Y638830D01*
X675830Y638781D01*
X675817Y638732D01*
X675816Y638732D01*
X675803Y638683D01*
X675789Y638633D01*
X675744Y638468D01*
X675747Y638460D01*
X675742Y638457D01*
X675691Y637302D01*
X675692Y637301D01*
X675691Y637300D01*
X675691Y631300D01*
X675695Y631294D01*
X675692Y631291D01*
X675904Y630210D01*
X675910Y630205D01*
X675907Y630200D01*
X676354Y629194D01*
X676361Y629190D01*
X676359Y629184D01*
X677019Y628303D01*
X677027Y628300D01*
X677027Y628295D01*
X677866Y627582D01*
X677874Y627582D01*
X677875Y627576D01*
X678852Y627068D01*
X678860Y627069D01*
X678862Y627064D01*
X679927Y626786D01*
X679935Y626789D01*
X679938Y626785D01*
X681039Y626751D01*
X681044Y626755D01*
G37*
G36*
X132404Y4455D02*
X132404Y4455D01*
X132407Y4451D01*
X133483Y4606D01*
X133488Y4612D01*
X133493Y4609D01*
X134507Y4999D01*
X134511Y5006D01*
X134517Y5005D01*
X135419Y5611D01*
X135421Y5619D01*
X135427Y5618D01*
X136171Y6410D01*
X136172Y6418D01*
X136178Y6418D01*
X136727Y7356D01*
X136726Y7364D01*
X136732Y7366D01*
X137059Y8402D01*
X137056Y8410D01*
X137061Y8413D01*
X137149Y9496D01*
X137147Y9499D01*
X137149Y9500D01*
X137149Y15500D01*
X137146Y15504D01*
X137149Y15506D01*
X136999Y16639D01*
X136993Y16645D01*
X136996Y16650D01*
X136598Y17720D01*
X136591Y17724D01*
X136593Y17730D01*
X135966Y18685D01*
X135958Y18688D01*
X135959Y18693D01*
X135136Y19485D01*
X135128Y19486D01*
X135127Y19492D01*
X134148Y20081D01*
X134140Y20080D01*
X134138Y20085D01*
X133053Y20441D01*
X133045Y20439D01*
X133042Y20443D01*
X131905Y20549D01*
X131896Y20544D01*
X131891Y20548D01*
X130754Y20341D01*
X130748Y20335D01*
X130743Y20338D01*
X129681Y19883D01*
X129677Y19876D01*
X129671Y19878D01*
X128736Y19198D01*
X128734Y19190D01*
X128728Y19191D01*
X127968Y18320D01*
X127968Y18312D01*
X127962Y18311D01*
X127415Y17292D01*
X127416Y17284D01*
X127411Y17282D01*
X127407Y17269D01*
X127394Y17220D01*
X127393Y17220D01*
X127394Y17220D01*
X127380Y17171D01*
X127366Y17121D01*
X127353Y17072D01*
X127339Y17023D01*
X127326Y16974D01*
X127312Y16924D01*
X127299Y16875D01*
X127285Y16826D01*
X127271Y16777D01*
X127258Y16727D01*
X127244Y16678D01*
X127231Y16629D01*
X127217Y16580D01*
X127204Y16530D01*
X127190Y16481D01*
X127177Y16432D01*
X127176Y16432D01*
X127163Y16383D01*
X127149Y16333D01*
X127104Y16168D01*
X127107Y16160D01*
X127102Y16157D01*
X127051Y15002D01*
X127052Y15001D01*
X127051Y15000D01*
X127051Y9000D01*
X127055Y8994D01*
X127052Y8991D01*
X127264Y7910D01*
X127270Y7905D01*
X127267Y7900D01*
X127714Y6894D01*
X127721Y6890D01*
X127719Y6884D01*
X128379Y6003D01*
X128387Y6000D01*
X128387Y5995D01*
X129226Y5282D01*
X129234Y5282D01*
X129235Y5276D01*
X130212Y4768D01*
X130220Y4769D01*
X130222Y4764D01*
X131287Y4486D01*
X131295Y4489D01*
X131298Y4485D01*
X132399Y4451D01*
X132404Y4455D01*
G37*
G36*
X1046804Y4455D02*
X1046804Y4455D01*
X1046807Y4451D01*
X1047883Y4606D01*
X1047888Y4612D01*
X1047893Y4609D01*
X1048907Y4999D01*
X1048911Y5006D01*
X1048917Y5005D01*
X1049819Y5611D01*
X1049821Y5619D01*
X1049827Y5618D01*
X1050571Y6410D01*
X1050572Y6418D01*
X1050578Y6418D01*
X1051127Y7356D01*
X1051126Y7364D01*
X1051132Y7366D01*
X1051459Y8402D01*
X1051456Y8410D01*
X1051461Y8413D01*
X1051549Y9496D01*
X1051547Y9499D01*
X1051549Y9500D01*
X1051549Y15500D01*
X1051546Y15504D01*
X1051549Y15506D01*
X1051399Y16639D01*
X1051393Y16645D01*
X1051396Y16650D01*
X1050998Y17720D01*
X1050991Y17724D01*
X1050993Y17730D01*
X1050366Y18685D01*
X1050358Y18688D01*
X1050359Y18693D01*
X1049536Y19485D01*
X1049528Y19486D01*
X1049527Y19492D01*
X1048548Y20081D01*
X1048540Y20080D01*
X1048538Y20085D01*
X1047453Y20441D01*
X1047445Y20439D01*
X1047442Y20443D01*
X1046305Y20549D01*
X1046296Y20544D01*
X1046291Y20548D01*
X1045154Y20341D01*
X1045148Y20335D01*
X1045143Y20338D01*
X1044081Y19883D01*
X1044077Y19876D01*
X1044071Y19878D01*
X1043136Y19198D01*
X1043134Y19190D01*
X1043128Y19191D01*
X1042368Y18320D01*
X1042368Y18312D01*
X1042362Y18311D01*
X1041815Y17292D01*
X1041816Y17284D01*
X1041811Y17282D01*
X1041807Y17269D01*
X1041794Y17220D01*
X1041793Y17220D01*
X1041794Y17220D01*
X1041780Y17171D01*
X1041766Y17121D01*
X1041753Y17072D01*
X1041739Y17023D01*
X1041726Y16974D01*
X1041712Y16924D01*
X1041699Y16875D01*
X1041685Y16826D01*
X1041671Y16777D01*
X1041658Y16727D01*
X1041644Y16678D01*
X1041631Y16629D01*
X1041617Y16580D01*
X1041604Y16530D01*
X1041590Y16481D01*
X1041577Y16432D01*
X1041576Y16432D01*
X1041563Y16383D01*
X1041549Y16333D01*
X1041504Y16168D01*
X1041507Y16160D01*
X1041502Y16157D01*
X1041451Y15002D01*
X1041452Y15001D01*
X1041451Y15000D01*
X1041451Y9000D01*
X1041455Y8994D01*
X1041452Y8991D01*
X1041664Y7910D01*
X1041670Y7905D01*
X1041667Y7900D01*
X1042114Y6894D01*
X1042121Y6890D01*
X1042119Y6884D01*
X1042779Y6003D01*
X1042787Y6000D01*
X1042787Y5995D01*
X1043626Y5282D01*
X1043634Y5282D01*
X1043635Y5276D01*
X1044612Y4768D01*
X1044620Y4769D01*
X1044622Y4764D01*
X1045687Y4486D01*
X1045695Y4489D01*
X1045698Y4485D01*
X1046799Y4451D01*
X1046804Y4455D01*
G37*
G36*
X315284Y4455D02*
X315284Y4455D01*
X315287Y4451D01*
X316363Y4606D01*
X316368Y4612D01*
X316373Y4609D01*
X317387Y4999D01*
X317391Y5006D01*
X317397Y5005D01*
X318299Y5611D01*
X318301Y5619D01*
X318307Y5618D01*
X319051Y6410D01*
X319052Y6418D01*
X319058Y6418D01*
X319607Y7356D01*
X319606Y7364D01*
X319612Y7366D01*
X319939Y8402D01*
X319936Y8410D01*
X319941Y8413D01*
X320029Y9496D01*
X320027Y9499D01*
X320029Y9500D01*
X320029Y15500D01*
X320026Y15504D01*
X320029Y15506D01*
X319879Y16639D01*
X319873Y16645D01*
X319876Y16650D01*
X319478Y17720D01*
X319471Y17724D01*
X319473Y17730D01*
X318846Y18685D01*
X318838Y18688D01*
X318839Y18693D01*
X318016Y19485D01*
X318008Y19486D01*
X318007Y19492D01*
X317028Y20081D01*
X317020Y20080D01*
X317018Y20085D01*
X315933Y20441D01*
X315925Y20439D01*
X315922Y20443D01*
X314785Y20549D01*
X314776Y20544D01*
X314771Y20548D01*
X313634Y20341D01*
X313628Y20335D01*
X313623Y20338D01*
X312561Y19883D01*
X312557Y19876D01*
X312551Y19878D01*
X311616Y19198D01*
X311614Y19190D01*
X311608Y19191D01*
X310848Y18320D01*
X310848Y18312D01*
X310842Y18311D01*
X310295Y17292D01*
X310296Y17284D01*
X310291Y17282D01*
X310287Y17269D01*
X310274Y17220D01*
X310273Y17220D01*
X310274Y17220D01*
X310260Y17171D01*
X310246Y17121D01*
X310233Y17072D01*
X310219Y17023D01*
X310206Y16974D01*
X310192Y16924D01*
X310179Y16875D01*
X310165Y16826D01*
X310151Y16777D01*
X310138Y16727D01*
X310124Y16678D01*
X310111Y16629D01*
X310097Y16580D01*
X310084Y16530D01*
X310070Y16481D01*
X310057Y16432D01*
X310056Y16432D01*
X310043Y16383D01*
X310029Y16333D01*
X309984Y16168D01*
X309987Y16160D01*
X309982Y16157D01*
X309931Y15002D01*
X309932Y15001D01*
X309931Y15000D01*
X309931Y9000D01*
X309935Y8994D01*
X309932Y8991D01*
X310144Y7910D01*
X310150Y7905D01*
X310147Y7900D01*
X310594Y6894D01*
X310601Y6890D01*
X310599Y6884D01*
X311259Y6003D01*
X311267Y6000D01*
X311267Y5995D01*
X312106Y5282D01*
X312114Y5282D01*
X312115Y5276D01*
X313092Y4768D01*
X313100Y4769D01*
X313102Y4764D01*
X314167Y4486D01*
X314175Y4489D01*
X314178Y4485D01*
X315279Y4451D01*
X315284Y4455D01*
G37*
G36*
X1229684Y4455D02*
X1229684Y4455D01*
X1229687Y4451D01*
X1230763Y4606D01*
X1230768Y4612D01*
X1230773Y4609D01*
X1231787Y4999D01*
X1231791Y5006D01*
X1231797Y5005D01*
X1232699Y5611D01*
X1232701Y5619D01*
X1232707Y5618D01*
X1233451Y6410D01*
X1233452Y6418D01*
X1233458Y6418D01*
X1234007Y7356D01*
X1234006Y7364D01*
X1234012Y7366D01*
X1234339Y8402D01*
X1234336Y8410D01*
X1234341Y8413D01*
X1234429Y9496D01*
X1234427Y9499D01*
X1234429Y9500D01*
X1234429Y15500D01*
X1234426Y15504D01*
X1234429Y15506D01*
X1234279Y16639D01*
X1234273Y16645D01*
X1234276Y16650D01*
X1233878Y17720D01*
X1233871Y17724D01*
X1233873Y17730D01*
X1233246Y18685D01*
X1233238Y18688D01*
X1233239Y18693D01*
X1232416Y19485D01*
X1232408Y19486D01*
X1232407Y19492D01*
X1231428Y20081D01*
X1231420Y20080D01*
X1231418Y20085D01*
X1230333Y20441D01*
X1230325Y20439D01*
X1230322Y20443D01*
X1229185Y20549D01*
X1229176Y20544D01*
X1229171Y20548D01*
X1228034Y20341D01*
X1228028Y20335D01*
X1228023Y20338D01*
X1226961Y19883D01*
X1226957Y19876D01*
X1226951Y19878D01*
X1226016Y19198D01*
X1226014Y19190D01*
X1226008Y19191D01*
X1225248Y18320D01*
X1225248Y18312D01*
X1225242Y18311D01*
X1224695Y17292D01*
X1224696Y17284D01*
X1224691Y17282D01*
X1224687Y17269D01*
X1224674Y17220D01*
X1224673Y17220D01*
X1224674Y17220D01*
X1224660Y17171D01*
X1224646Y17121D01*
X1224633Y17072D01*
X1224619Y17023D01*
X1224606Y16974D01*
X1224592Y16924D01*
X1224579Y16875D01*
X1224565Y16826D01*
X1224551Y16777D01*
X1224538Y16727D01*
X1224524Y16678D01*
X1224511Y16629D01*
X1224497Y16580D01*
X1224484Y16530D01*
X1224470Y16481D01*
X1224457Y16432D01*
X1224456Y16432D01*
X1224443Y16383D01*
X1224429Y16333D01*
X1224384Y16168D01*
X1224387Y16160D01*
X1224382Y16157D01*
X1224331Y15002D01*
X1224332Y15001D01*
X1224331Y15000D01*
X1224331Y9000D01*
X1224335Y8994D01*
X1224332Y8991D01*
X1224544Y7910D01*
X1224550Y7905D01*
X1224547Y7900D01*
X1224994Y6894D01*
X1225001Y6890D01*
X1224999Y6884D01*
X1225659Y6003D01*
X1225667Y6000D01*
X1225667Y5995D01*
X1226506Y5282D01*
X1226514Y5282D01*
X1226515Y5276D01*
X1227492Y4768D01*
X1227500Y4769D01*
X1227502Y4764D01*
X1228567Y4486D01*
X1228575Y4489D01*
X1228578Y4485D01*
X1229679Y4451D01*
X1229684Y4455D01*
G37*
G36*
X498164Y4455D02*
X498164Y4455D01*
X498167Y4451D01*
X499243Y4606D01*
X499248Y4612D01*
X499253Y4609D01*
X500267Y4999D01*
X500271Y5006D01*
X500277Y5005D01*
X501179Y5611D01*
X501181Y5619D01*
X501187Y5618D01*
X501931Y6410D01*
X501932Y6418D01*
X501938Y6418D01*
X502487Y7356D01*
X502486Y7364D01*
X502492Y7366D01*
X502819Y8402D01*
X502816Y8410D01*
X502821Y8413D01*
X502909Y9496D01*
X502907Y9499D01*
X502909Y9500D01*
X502909Y15500D01*
X502906Y15504D01*
X502909Y15506D01*
X502759Y16639D01*
X502753Y16645D01*
X502756Y16650D01*
X502358Y17720D01*
X502351Y17724D01*
X502353Y17730D01*
X501726Y18685D01*
X501718Y18688D01*
X501719Y18693D01*
X500896Y19485D01*
X500888Y19486D01*
X500887Y19492D01*
X499908Y20081D01*
X499900Y20080D01*
X499898Y20085D01*
X498813Y20441D01*
X498805Y20439D01*
X498802Y20443D01*
X497665Y20549D01*
X497656Y20544D01*
X497651Y20548D01*
X496514Y20341D01*
X496508Y20335D01*
X496503Y20338D01*
X495441Y19883D01*
X495437Y19876D01*
X495431Y19878D01*
X494496Y19198D01*
X494494Y19190D01*
X494488Y19191D01*
X493728Y18320D01*
X493728Y18312D01*
X493722Y18311D01*
X493175Y17292D01*
X493176Y17284D01*
X493171Y17282D01*
X493167Y17269D01*
X493154Y17220D01*
X493153Y17220D01*
X493154Y17220D01*
X493140Y17171D01*
X493126Y17121D01*
X493113Y17072D01*
X493099Y17023D01*
X493086Y16974D01*
X493072Y16924D01*
X493059Y16875D01*
X493045Y16826D01*
X493031Y16777D01*
X493018Y16727D01*
X493004Y16678D01*
X492991Y16629D01*
X492977Y16580D01*
X492964Y16530D01*
X492950Y16481D01*
X492937Y16432D01*
X492936Y16432D01*
X492923Y16383D01*
X492909Y16333D01*
X492864Y16168D01*
X492867Y16160D01*
X492862Y16157D01*
X492811Y15002D01*
X492812Y15001D01*
X492811Y15000D01*
X492811Y9000D01*
X492815Y8994D01*
X492812Y8991D01*
X493024Y7910D01*
X493030Y7905D01*
X493027Y7900D01*
X493474Y6894D01*
X493481Y6890D01*
X493479Y6884D01*
X494139Y6003D01*
X494147Y6000D01*
X494147Y5995D01*
X494986Y5282D01*
X494994Y5282D01*
X494995Y5276D01*
X495972Y4768D01*
X495980Y4769D01*
X495982Y4764D01*
X497047Y4486D01*
X497055Y4489D01*
X497058Y4485D01*
X498159Y4451D01*
X498164Y4455D01*
G37*
G36*
X863924Y4455D02*
X863924Y4455D01*
X863927Y4451D01*
X865003Y4606D01*
X865008Y4612D01*
X865013Y4609D01*
X866027Y4999D01*
X866031Y5006D01*
X866037Y5005D01*
X866939Y5611D01*
X866941Y5619D01*
X866947Y5618D01*
X867691Y6410D01*
X867692Y6418D01*
X867698Y6418D01*
X868247Y7356D01*
X868246Y7364D01*
X868252Y7366D01*
X868579Y8402D01*
X868576Y8410D01*
X868581Y8413D01*
X868669Y9496D01*
X868667Y9499D01*
X868669Y9500D01*
X868669Y15500D01*
X868666Y15504D01*
X868669Y15506D01*
X868519Y16639D01*
X868513Y16645D01*
X868516Y16650D01*
X868118Y17720D01*
X868111Y17724D01*
X868113Y17730D01*
X867486Y18685D01*
X867478Y18688D01*
X867479Y18693D01*
X866656Y19485D01*
X866648Y19486D01*
X866647Y19492D01*
X865668Y20081D01*
X865660Y20080D01*
X865658Y20085D01*
X864573Y20441D01*
X864565Y20439D01*
X864562Y20443D01*
X863425Y20549D01*
X863416Y20544D01*
X863411Y20548D01*
X862274Y20341D01*
X862268Y20335D01*
X862263Y20338D01*
X861201Y19883D01*
X861197Y19876D01*
X861191Y19878D01*
X860256Y19198D01*
X860254Y19190D01*
X860248Y19191D01*
X859488Y18320D01*
X859488Y18312D01*
X859482Y18311D01*
X858935Y17292D01*
X858936Y17284D01*
X858931Y17282D01*
X858927Y17269D01*
X858914Y17220D01*
X858913Y17220D01*
X858914Y17220D01*
X858900Y17171D01*
X858886Y17121D01*
X858873Y17072D01*
X858859Y17023D01*
X858846Y16974D01*
X858832Y16924D01*
X858819Y16875D01*
X858805Y16826D01*
X858791Y16777D01*
X858778Y16727D01*
X858764Y16678D01*
X858751Y16629D01*
X858737Y16580D01*
X858724Y16530D01*
X858710Y16481D01*
X858697Y16432D01*
X858696Y16432D01*
X858683Y16383D01*
X858669Y16333D01*
X858624Y16168D01*
X858627Y16160D01*
X858622Y16157D01*
X858571Y15002D01*
X858572Y15001D01*
X858571Y15000D01*
X858571Y9000D01*
X858575Y8994D01*
X858572Y8991D01*
X858784Y7910D01*
X858790Y7905D01*
X858787Y7900D01*
X859234Y6894D01*
X859241Y6890D01*
X859239Y6884D01*
X859899Y6003D01*
X859907Y6000D01*
X859907Y5995D01*
X860746Y5282D01*
X860754Y5282D01*
X860755Y5276D01*
X861732Y4768D01*
X861740Y4769D01*
X861742Y4764D01*
X862807Y4486D01*
X862815Y4489D01*
X862818Y4485D01*
X863919Y4451D01*
X863924Y4455D01*
G37*
G36*
X681044Y4455D02*
X681044Y4455D01*
X681047Y4451D01*
X682123Y4606D01*
X682128Y4612D01*
X682133Y4609D01*
X683147Y4999D01*
X683151Y5006D01*
X683157Y5005D01*
X684059Y5611D01*
X684061Y5619D01*
X684067Y5618D01*
X684811Y6410D01*
X684812Y6418D01*
X684818Y6418D01*
X685367Y7356D01*
X685366Y7364D01*
X685372Y7366D01*
X685699Y8402D01*
X685696Y8410D01*
X685701Y8413D01*
X685789Y9496D01*
X685787Y9499D01*
X685789Y9500D01*
X685789Y15500D01*
X685786Y15504D01*
X685789Y15506D01*
X685639Y16639D01*
X685633Y16645D01*
X685636Y16650D01*
X685238Y17720D01*
X685231Y17724D01*
X685233Y17730D01*
X684606Y18685D01*
X684598Y18688D01*
X684599Y18693D01*
X683776Y19485D01*
X683768Y19486D01*
X683767Y19492D01*
X682788Y20081D01*
X682780Y20080D01*
X682778Y20085D01*
X681693Y20441D01*
X681685Y20439D01*
X681682Y20443D01*
X680545Y20549D01*
X680536Y20544D01*
X680531Y20548D01*
X679394Y20341D01*
X679388Y20335D01*
X679383Y20338D01*
X678321Y19883D01*
X678317Y19876D01*
X678311Y19878D01*
X677376Y19198D01*
X677374Y19190D01*
X677368Y19191D01*
X676608Y18320D01*
X676608Y18312D01*
X676602Y18311D01*
X676055Y17292D01*
X676056Y17284D01*
X676051Y17282D01*
X676047Y17269D01*
X676034Y17220D01*
X676033Y17220D01*
X676034Y17220D01*
X676020Y17171D01*
X676006Y17121D01*
X675993Y17072D01*
X675979Y17023D01*
X675966Y16974D01*
X675952Y16924D01*
X675939Y16875D01*
X675925Y16826D01*
X675911Y16777D01*
X675898Y16727D01*
X675884Y16678D01*
X675871Y16629D01*
X675857Y16580D01*
X675844Y16530D01*
X675830Y16481D01*
X675817Y16432D01*
X675816Y16432D01*
X675803Y16383D01*
X675789Y16333D01*
X675744Y16168D01*
X675747Y16160D01*
X675742Y16157D01*
X675691Y15002D01*
X675692Y15001D01*
X675691Y15000D01*
X675691Y9000D01*
X675695Y8994D01*
X675692Y8991D01*
X675904Y7910D01*
X675910Y7905D01*
X675907Y7900D01*
X676354Y6894D01*
X676361Y6890D01*
X676359Y6884D01*
X677019Y6003D01*
X677027Y6000D01*
X677027Y5995D01*
X677866Y5282D01*
X677874Y5282D01*
X677875Y5276D01*
X678852Y4768D01*
X678860Y4769D01*
X678862Y4764D01*
X679927Y4486D01*
X679935Y4489D01*
X679938Y4485D01*
X681039Y4451D01*
X681044Y4455D01*
G37*
G36*
X45902Y626755D02*
X45902Y626755D01*
X45907Y626751D01*
X46994Y626896D01*
X47000Y626902D01*
X47005Y626899D01*
X48033Y627283D01*
X48038Y627289D01*
X48043Y627288D01*
X48960Y627890D01*
X48963Y627898D01*
X48969Y627897D01*
X49729Y628689D01*
X49730Y628697D01*
X49736Y628698D01*
X50300Y629639D01*
X50300Y629642D01*
X50301Y629643D01*
X50300Y629645D01*
X50299Y629647D01*
X50305Y629649D01*
X50646Y630692D01*
X50644Y630700D01*
X50648Y630703D01*
X50749Y631796D01*
X50747Y631798D01*
X50749Y631800D01*
X50749Y637800D01*
X50747Y637803D01*
X50749Y637805D01*
X50648Y638897D01*
X50643Y638903D01*
X50646Y638908D01*
X50305Y639951D01*
X50298Y639956D01*
X50300Y639961D01*
X49736Y640902D01*
X49728Y640905D01*
X49729Y640911D01*
X48969Y641703D01*
X48961Y641704D01*
X48960Y641710D01*
X48043Y642313D01*
X48035Y642312D01*
X48033Y642318D01*
X47005Y642701D01*
X46997Y642699D01*
X46994Y642704D01*
X45907Y642849D01*
X45899Y642845D01*
X45895Y642849D01*
X44758Y642743D01*
X44752Y642738D01*
X44747Y642741D01*
X43662Y642385D01*
X43657Y642378D01*
X43652Y642381D01*
X42673Y641792D01*
X42670Y641784D01*
X42664Y641785D01*
X41841Y640993D01*
X41840Y640985D01*
X41834Y640985D01*
X41207Y640030D01*
X41208Y640022D01*
X41202Y640020D01*
X40804Y638950D01*
X40806Y638942D01*
X40801Y638939D01*
X40651Y637806D01*
X40654Y637802D01*
X40651Y637800D01*
X40651Y631800D01*
X40654Y631796D01*
X40651Y631794D01*
X40801Y630661D01*
X40807Y630655D01*
X40804Y630650D01*
X41202Y629580D01*
X41209Y629576D01*
X41207Y629570D01*
X41834Y628615D01*
X41842Y628612D01*
X41841Y628607D01*
X42664Y627815D01*
X42672Y627814D01*
X42673Y627808D01*
X43652Y627219D01*
X43660Y627220D01*
X43662Y627215D01*
X44747Y626859D01*
X44755Y626862D01*
X44758Y626857D01*
X45895Y626751D01*
X45902Y626755D01*
G37*
G36*
X594542Y626755D02*
X594542Y626755D01*
X594547Y626751D01*
X595634Y626896D01*
X595640Y626902D01*
X595645Y626899D01*
X596673Y627283D01*
X596678Y627289D01*
X596683Y627288D01*
X597600Y627890D01*
X597603Y627898D01*
X597609Y627897D01*
X598369Y628689D01*
X598370Y628697D01*
X598376Y628698D01*
X598940Y629639D01*
X598940Y629642D01*
X598941Y629643D01*
X598940Y629645D01*
X598939Y629647D01*
X598945Y629649D01*
X599286Y630692D01*
X599284Y630700D01*
X599288Y630703D01*
X599389Y631796D01*
X599387Y631798D01*
X599389Y631800D01*
X599389Y637800D01*
X599387Y637803D01*
X599389Y637805D01*
X599288Y638897D01*
X599283Y638903D01*
X599286Y638908D01*
X598945Y639951D01*
X598938Y639956D01*
X598940Y639961D01*
X598376Y640902D01*
X598368Y640905D01*
X598369Y640911D01*
X597609Y641703D01*
X597601Y641704D01*
X597600Y641710D01*
X596683Y642313D01*
X596675Y642312D01*
X596673Y642318D01*
X595645Y642701D01*
X595637Y642699D01*
X595634Y642704D01*
X594547Y642849D01*
X594539Y642845D01*
X594535Y642849D01*
X593398Y642743D01*
X593392Y642738D01*
X593387Y642741D01*
X592302Y642385D01*
X592297Y642378D01*
X592292Y642381D01*
X591313Y641792D01*
X591310Y641784D01*
X591304Y641785D01*
X590481Y640993D01*
X590480Y640985D01*
X590474Y640985D01*
X589847Y640030D01*
X589848Y640022D01*
X589842Y640020D01*
X589444Y638950D01*
X589446Y638942D01*
X589441Y638939D01*
X589291Y637806D01*
X589294Y637802D01*
X589291Y637800D01*
X589291Y631800D01*
X589294Y631796D01*
X589291Y631794D01*
X589441Y630661D01*
X589447Y630655D01*
X589444Y630650D01*
X589842Y629580D01*
X589849Y629576D01*
X589847Y629570D01*
X590474Y628615D01*
X590482Y628612D01*
X590481Y628607D01*
X591304Y627815D01*
X591312Y627814D01*
X591313Y627808D01*
X592292Y627219D01*
X592300Y627220D01*
X592302Y627215D01*
X593387Y626859D01*
X593395Y626862D01*
X593398Y626857D01*
X594535Y626751D01*
X594542Y626755D01*
G37*
G36*
X228782Y626755D02*
X228782Y626755D01*
X228787Y626751D01*
X229874Y626896D01*
X229880Y626902D01*
X229885Y626899D01*
X230913Y627283D01*
X230918Y627289D01*
X230923Y627288D01*
X231840Y627890D01*
X231843Y627898D01*
X231849Y627897D01*
X232609Y628689D01*
X232610Y628697D01*
X232616Y628698D01*
X233180Y629639D01*
X233180Y629642D01*
X233181Y629643D01*
X233180Y629645D01*
X233179Y629647D01*
X233185Y629649D01*
X233526Y630692D01*
X233524Y630700D01*
X233528Y630703D01*
X233629Y631796D01*
X233627Y631798D01*
X233629Y631800D01*
X233629Y637800D01*
X233627Y637803D01*
X233629Y637805D01*
X233528Y638897D01*
X233523Y638903D01*
X233526Y638908D01*
X233185Y639951D01*
X233178Y639956D01*
X233180Y639961D01*
X232616Y640902D01*
X232608Y640905D01*
X232609Y640911D01*
X231849Y641703D01*
X231841Y641704D01*
X231840Y641710D01*
X230923Y642313D01*
X230915Y642312D01*
X230913Y642318D01*
X229885Y642701D01*
X229877Y642699D01*
X229874Y642704D01*
X228787Y642849D01*
X228779Y642845D01*
X228775Y642849D01*
X227638Y642743D01*
X227632Y642738D01*
X227627Y642741D01*
X226542Y642385D01*
X226537Y642378D01*
X226532Y642381D01*
X225553Y641792D01*
X225550Y641784D01*
X225544Y641785D01*
X224721Y640993D01*
X224720Y640985D01*
X224714Y640985D01*
X224087Y640030D01*
X224088Y640022D01*
X224082Y640020D01*
X223684Y638950D01*
X223686Y638942D01*
X223681Y638939D01*
X223531Y637806D01*
X223534Y637802D01*
X223531Y637800D01*
X223531Y631800D01*
X223534Y631796D01*
X223531Y631794D01*
X223681Y630661D01*
X223687Y630655D01*
X223684Y630650D01*
X224082Y629580D01*
X224089Y629576D01*
X224087Y629570D01*
X224714Y628615D01*
X224722Y628612D01*
X224721Y628607D01*
X225544Y627815D01*
X225552Y627814D01*
X225553Y627808D01*
X226532Y627219D01*
X226540Y627220D01*
X226542Y627215D01*
X227627Y626859D01*
X227635Y626862D01*
X227638Y626857D01*
X228775Y626751D01*
X228782Y626755D01*
G37*
G36*
X1143182Y626755D02*
X1143182Y626755D01*
X1143187Y626751D01*
X1144274Y626896D01*
X1144280Y626902D01*
X1144285Y626899D01*
X1145313Y627283D01*
X1145318Y627289D01*
X1145323Y627288D01*
X1146240Y627890D01*
X1146243Y627898D01*
X1146249Y627897D01*
X1147009Y628689D01*
X1147010Y628697D01*
X1147016Y628698D01*
X1147580Y629639D01*
X1147580Y629642D01*
X1147581Y629643D01*
X1147580Y629645D01*
X1147579Y629647D01*
X1147585Y629649D01*
X1147926Y630692D01*
X1147924Y630700D01*
X1147928Y630703D01*
X1148029Y631796D01*
X1148027Y631798D01*
X1148029Y631800D01*
X1148029Y637800D01*
X1148027Y637803D01*
X1148029Y637805D01*
X1147928Y638897D01*
X1147923Y638903D01*
X1147926Y638908D01*
X1147585Y639951D01*
X1147578Y639956D01*
X1147580Y639961D01*
X1147016Y640902D01*
X1147008Y640905D01*
X1147009Y640911D01*
X1146249Y641703D01*
X1146241Y641704D01*
X1146240Y641710D01*
X1145323Y642313D01*
X1145315Y642312D01*
X1145313Y642318D01*
X1144285Y642701D01*
X1144277Y642699D01*
X1144274Y642704D01*
X1143187Y642849D01*
X1143179Y642845D01*
X1143175Y642849D01*
X1142038Y642743D01*
X1142032Y642738D01*
X1142027Y642741D01*
X1140942Y642385D01*
X1140937Y642378D01*
X1140932Y642381D01*
X1139953Y641792D01*
X1139950Y641784D01*
X1139944Y641785D01*
X1139121Y640993D01*
X1139120Y640985D01*
X1139114Y640985D01*
X1138487Y640030D01*
X1138488Y640022D01*
X1138482Y640020D01*
X1138084Y638950D01*
X1138086Y638942D01*
X1138081Y638939D01*
X1137931Y637806D01*
X1137934Y637802D01*
X1137931Y637800D01*
X1137931Y631800D01*
X1137934Y631796D01*
X1137931Y631794D01*
X1138081Y630661D01*
X1138087Y630655D01*
X1138084Y630650D01*
X1138482Y629580D01*
X1138489Y629576D01*
X1138487Y629570D01*
X1139114Y628615D01*
X1139122Y628612D01*
X1139121Y628607D01*
X1139944Y627815D01*
X1139952Y627814D01*
X1139953Y627808D01*
X1140932Y627219D01*
X1140940Y627220D01*
X1140942Y627215D01*
X1142027Y626859D01*
X1142035Y626862D01*
X1142038Y626857D01*
X1143175Y626751D01*
X1143182Y626755D01*
G37*
G36*
X960302Y626755D02*
X960302Y626755D01*
X960307Y626751D01*
X961394Y626896D01*
X961400Y626902D01*
X961405Y626899D01*
X962433Y627283D01*
X962438Y627289D01*
X962443Y627288D01*
X963360Y627890D01*
X963363Y627898D01*
X963369Y627897D01*
X964129Y628689D01*
X964130Y628697D01*
X964136Y628698D01*
X964700Y629639D01*
X964700Y629642D01*
X964701Y629643D01*
X964700Y629645D01*
X964699Y629647D01*
X964705Y629649D01*
X965046Y630692D01*
X965044Y630700D01*
X965048Y630703D01*
X965149Y631796D01*
X965147Y631798D01*
X965149Y631800D01*
X965149Y637800D01*
X965147Y637803D01*
X965149Y637805D01*
X965048Y638897D01*
X965043Y638903D01*
X965046Y638908D01*
X964705Y639951D01*
X964698Y639956D01*
X964700Y639961D01*
X964136Y640902D01*
X964128Y640905D01*
X964129Y640911D01*
X963369Y641703D01*
X963361Y641704D01*
X963360Y641710D01*
X962443Y642313D01*
X962435Y642312D01*
X962433Y642318D01*
X961405Y642701D01*
X961397Y642699D01*
X961394Y642704D01*
X960307Y642849D01*
X960299Y642845D01*
X960295Y642849D01*
X959158Y642743D01*
X959152Y642738D01*
X959147Y642741D01*
X958062Y642385D01*
X958057Y642378D01*
X958052Y642381D01*
X957073Y641792D01*
X957070Y641784D01*
X957064Y641785D01*
X956241Y640993D01*
X956240Y640985D01*
X956234Y640985D01*
X955607Y640030D01*
X955608Y640022D01*
X955602Y640020D01*
X955204Y638950D01*
X955206Y638942D01*
X955201Y638939D01*
X955051Y637806D01*
X955054Y637802D01*
X955051Y637800D01*
X955051Y631800D01*
X955054Y631796D01*
X955051Y631794D01*
X955201Y630661D01*
X955207Y630655D01*
X955204Y630650D01*
X955602Y629580D01*
X955609Y629576D01*
X955607Y629570D01*
X956234Y628615D01*
X956242Y628612D01*
X956241Y628607D01*
X957064Y627815D01*
X957072Y627814D01*
X957073Y627808D01*
X958052Y627219D01*
X958060Y627220D01*
X958062Y627215D01*
X959147Y626859D01*
X959155Y626862D01*
X959158Y626857D01*
X960295Y626751D01*
X960302Y626755D01*
G37*
G36*
X411662Y626755D02*
X411662Y626755D01*
X411667Y626751D01*
X412754Y626896D01*
X412760Y626902D01*
X412765Y626899D01*
X413793Y627283D01*
X413798Y627289D01*
X413803Y627288D01*
X414720Y627890D01*
X414723Y627898D01*
X414729Y627897D01*
X415489Y628689D01*
X415490Y628697D01*
X415496Y628698D01*
X416060Y629639D01*
X416060Y629642D01*
X416061Y629643D01*
X416060Y629645D01*
X416059Y629647D01*
X416065Y629649D01*
X416406Y630692D01*
X416404Y630700D01*
X416408Y630703D01*
X416509Y631796D01*
X416507Y631798D01*
X416509Y631800D01*
X416509Y637800D01*
X416507Y637803D01*
X416509Y637805D01*
X416408Y638897D01*
X416403Y638903D01*
X416406Y638908D01*
X416065Y639951D01*
X416058Y639956D01*
X416060Y639961D01*
X415496Y640902D01*
X415488Y640905D01*
X415489Y640911D01*
X414729Y641703D01*
X414721Y641704D01*
X414720Y641710D01*
X413803Y642313D01*
X413795Y642312D01*
X413793Y642318D01*
X412765Y642701D01*
X412757Y642699D01*
X412754Y642704D01*
X411667Y642849D01*
X411659Y642845D01*
X411655Y642849D01*
X410518Y642743D01*
X410512Y642738D01*
X410507Y642741D01*
X409422Y642385D01*
X409417Y642378D01*
X409412Y642381D01*
X408433Y641792D01*
X408430Y641784D01*
X408424Y641785D01*
X407601Y640993D01*
X407600Y640985D01*
X407594Y640985D01*
X406967Y640030D01*
X406968Y640022D01*
X406962Y640020D01*
X406564Y638950D01*
X406566Y638942D01*
X406561Y638939D01*
X406411Y637806D01*
X406414Y637802D01*
X406411Y637800D01*
X406411Y631800D01*
X406414Y631796D01*
X406411Y631794D01*
X406561Y630661D01*
X406567Y630655D01*
X406564Y630650D01*
X406962Y629580D01*
X406969Y629576D01*
X406967Y629570D01*
X407594Y628615D01*
X407602Y628612D01*
X407601Y628607D01*
X408424Y627815D01*
X408432Y627814D01*
X408433Y627808D01*
X409412Y627219D01*
X409420Y627220D01*
X409422Y627215D01*
X410507Y626859D01*
X410515Y626862D01*
X410518Y626857D01*
X411655Y626751D01*
X411662Y626755D01*
G37*
G36*
X777422Y626755D02*
X777422Y626755D01*
X777427Y626751D01*
X778514Y626896D01*
X778520Y626902D01*
X778525Y626899D01*
X779553Y627283D01*
X779558Y627289D01*
X779563Y627288D01*
X780480Y627890D01*
X780483Y627898D01*
X780489Y627897D01*
X781249Y628689D01*
X781250Y628697D01*
X781256Y628698D01*
X781820Y629639D01*
X781820Y629642D01*
X781821Y629643D01*
X781820Y629645D01*
X781819Y629647D01*
X781825Y629649D01*
X782166Y630692D01*
X782164Y630700D01*
X782168Y630703D01*
X782269Y631796D01*
X782267Y631798D01*
X782269Y631800D01*
X782269Y637800D01*
X782267Y637803D01*
X782269Y637805D01*
X782168Y638897D01*
X782163Y638903D01*
X782166Y638908D01*
X781825Y639951D01*
X781818Y639956D01*
X781820Y639961D01*
X781256Y640902D01*
X781248Y640905D01*
X781249Y640911D01*
X780489Y641703D01*
X780481Y641704D01*
X780480Y641710D01*
X779563Y642313D01*
X779555Y642312D01*
X779553Y642318D01*
X778525Y642701D01*
X778517Y642699D01*
X778514Y642704D01*
X777427Y642849D01*
X777419Y642845D01*
X777415Y642849D01*
X776278Y642743D01*
X776272Y642738D01*
X776267Y642741D01*
X775182Y642385D01*
X775177Y642378D01*
X775172Y642381D01*
X774193Y641792D01*
X774190Y641784D01*
X774184Y641785D01*
X773361Y640993D01*
X773360Y640985D01*
X773354Y640985D01*
X772727Y640030D01*
X772728Y640022D01*
X772722Y640020D01*
X772324Y638950D01*
X772326Y638942D01*
X772321Y638939D01*
X772171Y637806D01*
X772174Y637802D01*
X772171Y637800D01*
X772171Y631800D01*
X772174Y631796D01*
X772171Y631794D01*
X772321Y630661D01*
X772327Y630655D01*
X772324Y630650D01*
X772722Y629580D01*
X772729Y629576D01*
X772727Y629570D01*
X773354Y628615D01*
X773362Y628612D01*
X773361Y628607D01*
X774184Y627815D01*
X774192Y627814D01*
X774193Y627808D01*
X775172Y627219D01*
X775180Y627220D01*
X775182Y627215D01*
X776267Y626859D01*
X776275Y626862D01*
X776278Y626857D01*
X777415Y626751D01*
X777422Y626755D01*
G37*
G36*
X228782Y4455D02*
X228782Y4455D01*
X228787Y4451D01*
X229874Y4596D01*
X229880Y4602D01*
X229885Y4599D01*
X230913Y4983D01*
X230918Y4989D01*
X230923Y4988D01*
X231840Y5590D01*
X231843Y5598D01*
X231849Y5597D01*
X232609Y6389D01*
X232610Y6397D01*
X232616Y6398D01*
X233180Y7339D01*
X233180Y7342D01*
X233181Y7343D01*
X233180Y7345D01*
X233179Y7347D01*
X233185Y7349D01*
X233526Y8392D01*
X233524Y8400D01*
X233528Y8403D01*
X233629Y9496D01*
X233627Y9498D01*
X233629Y9500D01*
X233629Y15500D01*
X233627Y15503D01*
X233629Y15505D01*
X233528Y16597D01*
X233523Y16603D01*
X233526Y16608D01*
X233185Y17651D01*
X233178Y17656D01*
X233180Y17661D01*
X232616Y18602D01*
X232608Y18605D01*
X232609Y18611D01*
X231849Y19403D01*
X231841Y19404D01*
X231840Y19410D01*
X230923Y20013D01*
X230915Y20012D01*
X230913Y20018D01*
X229885Y20401D01*
X229877Y20399D01*
X229874Y20404D01*
X228787Y20549D01*
X228779Y20545D01*
X228775Y20549D01*
X227638Y20443D01*
X227632Y20438D01*
X227627Y20441D01*
X226542Y20085D01*
X226537Y20078D01*
X226532Y20081D01*
X225553Y19492D01*
X225550Y19484D01*
X225544Y19485D01*
X224721Y18693D01*
X224720Y18685D01*
X224714Y18685D01*
X224087Y17730D01*
X224088Y17722D01*
X224082Y17720D01*
X223684Y16650D01*
X223686Y16642D01*
X223681Y16639D01*
X223531Y15506D01*
X223534Y15502D01*
X223531Y15500D01*
X223531Y9500D01*
X223534Y9496D01*
X223531Y9494D01*
X223681Y8361D01*
X223687Y8355D01*
X223684Y8350D01*
X224082Y7280D01*
X224089Y7276D01*
X224087Y7270D01*
X224714Y6315D01*
X224722Y6312D01*
X224721Y6307D01*
X225544Y5515D01*
X225552Y5514D01*
X225553Y5508D01*
X226532Y4919D01*
X226540Y4920D01*
X226542Y4915D01*
X227627Y4559D01*
X227635Y4562D01*
X227638Y4557D01*
X228775Y4451D01*
X228782Y4455D01*
G37*
G36*
X960302Y4455D02*
X960302Y4455D01*
X960307Y4451D01*
X961394Y4596D01*
X961400Y4602D01*
X961405Y4599D01*
X962433Y4983D01*
X962438Y4989D01*
X962443Y4988D01*
X963360Y5590D01*
X963363Y5598D01*
X963369Y5597D01*
X964129Y6389D01*
X964130Y6397D01*
X964136Y6398D01*
X964700Y7339D01*
X964700Y7342D01*
X964701Y7343D01*
X964700Y7345D01*
X964699Y7347D01*
X964705Y7349D01*
X965046Y8392D01*
X965044Y8400D01*
X965048Y8403D01*
X965149Y9496D01*
X965147Y9498D01*
X965149Y9500D01*
X965149Y15500D01*
X965147Y15503D01*
X965149Y15505D01*
X965048Y16597D01*
X965043Y16603D01*
X965046Y16608D01*
X964705Y17651D01*
X964698Y17656D01*
X964700Y17661D01*
X964136Y18602D01*
X964128Y18605D01*
X964129Y18611D01*
X963369Y19403D01*
X963361Y19404D01*
X963360Y19410D01*
X962443Y20013D01*
X962435Y20012D01*
X962433Y20018D01*
X961405Y20401D01*
X961397Y20399D01*
X961394Y20404D01*
X960307Y20549D01*
X960299Y20545D01*
X960295Y20549D01*
X959158Y20443D01*
X959152Y20438D01*
X959147Y20441D01*
X958062Y20085D01*
X958057Y20078D01*
X958052Y20081D01*
X957073Y19492D01*
X957070Y19484D01*
X957064Y19485D01*
X956241Y18693D01*
X956240Y18685D01*
X956234Y18685D01*
X955607Y17730D01*
X955608Y17722D01*
X955602Y17720D01*
X955204Y16650D01*
X955206Y16642D01*
X955201Y16639D01*
X955051Y15506D01*
X955054Y15502D01*
X955051Y15500D01*
X955051Y9500D01*
X955054Y9496D01*
X955051Y9494D01*
X955201Y8361D01*
X955207Y8355D01*
X955204Y8350D01*
X955602Y7280D01*
X955609Y7276D01*
X955607Y7270D01*
X956234Y6315D01*
X956242Y6312D01*
X956241Y6307D01*
X957064Y5515D01*
X957072Y5514D01*
X957073Y5508D01*
X958052Y4919D01*
X958060Y4920D01*
X958062Y4915D01*
X959147Y4559D01*
X959155Y4562D01*
X959158Y4557D01*
X960295Y4451D01*
X960302Y4455D01*
G37*
G36*
X411662Y4455D02*
X411662Y4455D01*
X411667Y4451D01*
X412754Y4596D01*
X412760Y4602D01*
X412765Y4599D01*
X413793Y4983D01*
X413798Y4989D01*
X413803Y4988D01*
X414720Y5590D01*
X414723Y5598D01*
X414729Y5597D01*
X415489Y6389D01*
X415490Y6397D01*
X415496Y6398D01*
X416060Y7339D01*
X416060Y7342D01*
X416061Y7343D01*
X416060Y7345D01*
X416059Y7347D01*
X416065Y7349D01*
X416406Y8392D01*
X416404Y8400D01*
X416408Y8403D01*
X416509Y9496D01*
X416507Y9498D01*
X416509Y9500D01*
X416509Y15500D01*
X416507Y15503D01*
X416509Y15505D01*
X416408Y16597D01*
X416403Y16603D01*
X416406Y16608D01*
X416065Y17651D01*
X416058Y17656D01*
X416060Y17661D01*
X415496Y18602D01*
X415488Y18605D01*
X415489Y18611D01*
X414729Y19403D01*
X414721Y19404D01*
X414720Y19410D01*
X413803Y20013D01*
X413795Y20012D01*
X413793Y20018D01*
X412765Y20401D01*
X412757Y20399D01*
X412754Y20404D01*
X411667Y20549D01*
X411659Y20545D01*
X411655Y20549D01*
X410518Y20443D01*
X410512Y20438D01*
X410507Y20441D01*
X409422Y20085D01*
X409417Y20078D01*
X409412Y20081D01*
X408433Y19492D01*
X408430Y19484D01*
X408424Y19485D01*
X407601Y18693D01*
X407600Y18685D01*
X407594Y18685D01*
X406967Y17730D01*
X406968Y17722D01*
X406962Y17720D01*
X406564Y16650D01*
X406566Y16642D01*
X406561Y16639D01*
X406411Y15506D01*
X406414Y15502D01*
X406411Y15500D01*
X406411Y9500D01*
X406414Y9496D01*
X406411Y9494D01*
X406561Y8361D01*
X406567Y8355D01*
X406564Y8350D01*
X406962Y7280D01*
X406969Y7276D01*
X406967Y7270D01*
X407594Y6315D01*
X407602Y6312D01*
X407601Y6307D01*
X408424Y5515D01*
X408432Y5514D01*
X408433Y5508D01*
X409412Y4919D01*
X409420Y4920D01*
X409422Y4915D01*
X410507Y4559D01*
X410515Y4562D01*
X410518Y4557D01*
X411655Y4451D01*
X411662Y4455D01*
G37*
G36*
X594542Y4455D02*
X594542Y4455D01*
X594547Y4451D01*
X595634Y4596D01*
X595640Y4602D01*
X595645Y4599D01*
X596673Y4983D01*
X596678Y4989D01*
X596683Y4988D01*
X597600Y5590D01*
X597603Y5598D01*
X597609Y5597D01*
X598369Y6389D01*
X598370Y6397D01*
X598376Y6398D01*
X598940Y7339D01*
X598940Y7342D01*
X598941Y7343D01*
X598940Y7345D01*
X598939Y7347D01*
X598945Y7349D01*
X599286Y8392D01*
X599284Y8400D01*
X599288Y8403D01*
X599389Y9496D01*
X599387Y9498D01*
X599389Y9500D01*
X599389Y15500D01*
X599387Y15503D01*
X599389Y15505D01*
X599288Y16597D01*
X599283Y16603D01*
X599286Y16608D01*
X598945Y17651D01*
X598938Y17656D01*
X598940Y17661D01*
X598376Y18602D01*
X598368Y18605D01*
X598369Y18611D01*
X597609Y19403D01*
X597601Y19404D01*
X597600Y19410D01*
X596683Y20013D01*
X596675Y20012D01*
X596673Y20018D01*
X595645Y20401D01*
X595637Y20399D01*
X595634Y20404D01*
X594547Y20549D01*
X594539Y20545D01*
X594535Y20549D01*
X593398Y20443D01*
X593392Y20438D01*
X593387Y20441D01*
X592302Y20085D01*
X592297Y20078D01*
X592292Y20081D01*
X591313Y19492D01*
X591310Y19484D01*
X591304Y19485D01*
X590481Y18693D01*
X590480Y18685D01*
X590474Y18685D01*
X589847Y17730D01*
X589848Y17722D01*
X589842Y17720D01*
X589444Y16650D01*
X589446Y16642D01*
X589441Y16639D01*
X589291Y15506D01*
X589294Y15502D01*
X589291Y15500D01*
X589291Y9500D01*
X589294Y9496D01*
X589291Y9494D01*
X589441Y8361D01*
X589447Y8355D01*
X589444Y8350D01*
X589842Y7280D01*
X589849Y7276D01*
X589847Y7270D01*
X590474Y6315D01*
X590482Y6312D01*
X590481Y6307D01*
X591304Y5515D01*
X591312Y5514D01*
X591313Y5508D01*
X592292Y4919D01*
X592300Y4920D01*
X592302Y4915D01*
X593387Y4559D01*
X593395Y4562D01*
X593398Y4557D01*
X594535Y4451D01*
X594542Y4455D01*
G37*
G36*
X1143182Y4455D02*
X1143182Y4455D01*
X1143187Y4451D01*
X1144274Y4596D01*
X1144280Y4602D01*
X1144285Y4599D01*
X1145313Y4983D01*
X1145318Y4989D01*
X1145323Y4988D01*
X1146240Y5590D01*
X1146243Y5598D01*
X1146249Y5597D01*
X1147009Y6389D01*
X1147010Y6397D01*
X1147016Y6398D01*
X1147580Y7339D01*
X1147580Y7342D01*
X1147581Y7343D01*
X1147580Y7345D01*
X1147579Y7347D01*
X1147585Y7349D01*
X1147926Y8392D01*
X1147924Y8400D01*
X1147928Y8403D01*
X1148029Y9496D01*
X1148027Y9498D01*
X1148029Y9500D01*
X1148029Y15500D01*
X1148027Y15503D01*
X1148029Y15505D01*
X1147928Y16597D01*
X1147923Y16603D01*
X1147926Y16608D01*
X1147585Y17651D01*
X1147578Y17656D01*
X1147580Y17661D01*
X1147016Y18602D01*
X1147008Y18605D01*
X1147009Y18611D01*
X1146249Y19403D01*
X1146241Y19404D01*
X1146240Y19410D01*
X1145323Y20013D01*
X1145315Y20012D01*
X1145313Y20018D01*
X1144285Y20401D01*
X1144277Y20399D01*
X1144274Y20404D01*
X1143187Y20549D01*
X1143179Y20545D01*
X1143175Y20549D01*
X1142038Y20443D01*
X1142032Y20438D01*
X1142027Y20441D01*
X1140942Y20085D01*
X1140937Y20078D01*
X1140932Y20081D01*
X1139953Y19492D01*
X1139950Y19484D01*
X1139944Y19485D01*
X1139121Y18693D01*
X1139120Y18685D01*
X1139114Y18685D01*
X1138487Y17730D01*
X1138488Y17722D01*
X1138482Y17720D01*
X1138084Y16650D01*
X1138086Y16642D01*
X1138081Y16639D01*
X1137931Y15506D01*
X1137934Y15502D01*
X1137931Y15500D01*
X1137931Y9500D01*
X1137934Y9496D01*
X1137931Y9494D01*
X1138081Y8361D01*
X1138087Y8355D01*
X1138084Y8350D01*
X1138482Y7280D01*
X1138489Y7276D01*
X1138487Y7270D01*
X1139114Y6315D01*
X1139122Y6312D01*
X1139121Y6307D01*
X1139944Y5515D01*
X1139952Y5514D01*
X1139953Y5508D01*
X1140932Y4919D01*
X1140940Y4920D01*
X1140942Y4915D01*
X1142027Y4559D01*
X1142035Y4562D01*
X1142038Y4557D01*
X1143175Y4451D01*
X1143182Y4455D01*
G37*
G36*
X45902Y4455D02*
X45902Y4455D01*
X45907Y4451D01*
X46994Y4596D01*
X47000Y4602D01*
X47005Y4599D01*
X48033Y4983D01*
X48038Y4989D01*
X48043Y4988D01*
X48960Y5590D01*
X48963Y5598D01*
X48969Y5597D01*
X49729Y6389D01*
X49730Y6397D01*
X49736Y6398D01*
X50300Y7339D01*
X50300Y7342D01*
X50301Y7343D01*
X50300Y7345D01*
X50299Y7347D01*
X50305Y7349D01*
X50646Y8392D01*
X50644Y8400D01*
X50648Y8403D01*
X50749Y9496D01*
X50747Y9498D01*
X50749Y9500D01*
X50749Y15500D01*
X50747Y15503D01*
X50749Y15505D01*
X50648Y16597D01*
X50643Y16603D01*
X50646Y16608D01*
X50305Y17651D01*
X50298Y17656D01*
X50300Y17661D01*
X49736Y18602D01*
X49728Y18605D01*
X49729Y18611D01*
X48969Y19403D01*
X48961Y19404D01*
X48960Y19410D01*
X48043Y20013D01*
X48035Y20012D01*
X48033Y20018D01*
X47005Y20401D01*
X46997Y20399D01*
X46994Y20404D01*
X45907Y20549D01*
X45899Y20545D01*
X45895Y20549D01*
X44758Y20443D01*
X44752Y20438D01*
X44747Y20441D01*
X43662Y20085D01*
X43657Y20078D01*
X43652Y20081D01*
X42673Y19492D01*
X42670Y19484D01*
X42664Y19485D01*
X41841Y18693D01*
X41840Y18685D01*
X41834Y18685D01*
X41207Y17730D01*
X41208Y17722D01*
X41202Y17720D01*
X40804Y16650D01*
X40806Y16642D01*
X40801Y16639D01*
X40651Y15506D01*
X40654Y15502D01*
X40651Y15500D01*
X40651Y9500D01*
X40654Y9496D01*
X40651Y9494D01*
X40801Y8361D01*
X40807Y8355D01*
X40804Y8350D01*
X41202Y7280D01*
X41209Y7276D01*
X41207Y7270D01*
X41834Y6315D01*
X41842Y6312D01*
X41841Y6307D01*
X42664Y5515D01*
X42672Y5514D01*
X42673Y5508D01*
X43652Y4919D01*
X43660Y4920D01*
X43662Y4915D01*
X44747Y4559D01*
X44755Y4562D01*
X44758Y4557D01*
X45895Y4451D01*
X45902Y4455D01*
G37*
G36*
X777422Y4455D02*
X777422Y4455D01*
X777427Y4451D01*
X778514Y4596D01*
X778520Y4602D01*
X778525Y4599D01*
X779553Y4983D01*
X779558Y4989D01*
X779563Y4988D01*
X780480Y5590D01*
X780483Y5598D01*
X780489Y5597D01*
X781249Y6389D01*
X781250Y6397D01*
X781256Y6398D01*
X781820Y7339D01*
X781820Y7342D01*
X781821Y7343D01*
X781820Y7345D01*
X781819Y7347D01*
X781825Y7349D01*
X782166Y8392D01*
X782164Y8400D01*
X782168Y8403D01*
X782269Y9496D01*
X782267Y9498D01*
X782269Y9500D01*
X782269Y15500D01*
X782267Y15503D01*
X782269Y15505D01*
X782168Y16597D01*
X782163Y16603D01*
X782166Y16608D01*
X781825Y17651D01*
X781818Y17656D01*
X781820Y17661D01*
X781256Y18602D01*
X781248Y18605D01*
X781249Y18611D01*
X780489Y19403D01*
X780481Y19404D01*
X780480Y19410D01*
X779563Y20013D01*
X779555Y20012D01*
X779553Y20018D01*
X778525Y20401D01*
X778517Y20399D01*
X778514Y20404D01*
X777427Y20549D01*
X777419Y20545D01*
X777415Y20549D01*
X776278Y20443D01*
X776272Y20438D01*
X776267Y20441D01*
X775182Y20085D01*
X775177Y20078D01*
X775172Y20081D01*
X774193Y19492D01*
X774190Y19484D01*
X774184Y19485D01*
X773361Y18693D01*
X773360Y18685D01*
X773354Y18685D01*
X772727Y17730D01*
X772728Y17722D01*
X772722Y17720D01*
X772324Y16650D01*
X772326Y16642D01*
X772321Y16639D01*
X772171Y15506D01*
X772174Y15502D01*
X772171Y15500D01*
X772171Y9500D01*
X772174Y9496D01*
X772171Y9494D01*
X772321Y8361D01*
X772327Y8355D01*
X772324Y8350D01*
X772722Y7280D01*
X772729Y7276D01*
X772727Y7270D01*
X773354Y6315D01*
X773362Y6312D01*
X773361Y6307D01*
X774184Y5515D01*
X774192Y5514D01*
X774193Y5508D01*
X775172Y4919D01*
X775180Y4920D01*
X775182Y4915D01*
X776267Y4559D01*
X776275Y4562D01*
X776278Y4557D01*
X777415Y4451D01*
X777422Y4455D01*
G37*
D10*
X63420Y119380D03*
X53420Y119380D03*
D11*
X142550Y56070D02*
X149550Y56070D01*
X142550Y56070D02*
X142550Y63070D01*
X149550Y63070D01*
X149550Y56070D01*
X149550Y58920D02*
X142550Y58920D01*
X142550Y61770D02*
X149550Y61770D01*
X149550Y38530D02*
X142550Y38530D01*
X142550Y45530D01*
X149550Y45530D01*
X149550Y38530D01*
X149550Y41380D02*
X142550Y41380D01*
X142550Y44230D02*
X149550Y44230D01*
D10*
X146050Y30400D03*
X146050Y20400D03*
X63420Y130810D03*
X53420Y130810D03*
X31750Y30400D03*
X31750Y20400D03*
D11*
X35250Y56070D02*
X28250Y56070D01*
X28250Y63070D01*
X35250Y63070D01*
X35250Y56070D01*
X35250Y58920D02*
X28250Y58920D01*
X28250Y61770D02*
X35250Y61770D01*
X35250Y38530D02*
X28250Y38530D01*
X28250Y45530D01*
X35250Y45530D01*
X35250Y38530D01*
X35250Y41380D02*
X28250Y41380D01*
X28250Y44230D02*
X35250Y44230D01*
D10*
X124380Y85090D03*
X114380Y85090D03*
X53420Y85090D03*
X63420Y85090D03*
D12*
X78900Y85325D03*
X83900Y85325D03*
X88900Y85325D03*
X93900Y85325D03*
X98900Y85325D03*
X98900Y130575D03*
X93900Y130575D03*
X88900Y130575D03*
X83900Y130575D03*
X78900Y130575D03*
D13*
X96400Y60100D03*
X91400Y60100D03*
D14*
X121150Y60100D03*
X113400Y60100D03*
D13*
X106400Y60100D03*
X101400Y60100D03*
X81400Y60100D03*
X86400Y60100D03*
D14*
X56650Y60100D03*
X64400Y60100D03*
D13*
X71400Y60100D03*
X76400Y60100D03*
D15*
X76200Y307340D03*
X76200Y251460D03*
X38100Y307340D03*
X38100Y251460D03*
D16*
X14050Y218500D03*
X14050Y162500D03*
D17*
X50800Y205500D03*
X50800Y195500D03*
X50800Y185500D03*
X50800Y175500D03*
D10*
X71200Y175260D03*
X81200Y175260D03*
X71200Y185420D03*
X81200Y185420D03*
D18*
X88900Y481050D03*
X78900Y481050D03*
X83900Y481050D03*
X73900Y481050D03*
X68900Y481050D03*
X63900Y481050D03*
X58900Y481050D03*
X53900Y481050D03*
X48900Y481050D03*
X43900Y481050D03*
X93900Y481050D03*
X98900Y481050D03*
X103900Y481050D03*
X108900Y481050D03*
X113900Y481050D03*
X118900Y481050D03*
X123900Y481050D03*
X128900Y481050D03*
X133900Y481050D03*
D19*
X161400Y478650D02*
X161400Y498650D01*
X16400Y498650D02*
X16400Y478650D01*
X161400Y543250D02*
X161400Y553250D01*
X16400Y553250D02*
X16400Y543250D01*
D10*
X134620Y442040D03*
X134620Y452040D03*
D20*
X136000Y313690D03*
X118000Y313690D03*
D10*
X144780Y442040D03*
X144780Y452040D03*
X128190Y299720D03*
X118190Y299720D03*
X27940Y442040D03*
X27940Y452040D03*
X38100Y442040D03*
X38100Y452040D03*
X48260Y442040D03*
X48260Y452040D03*
X58420Y442040D03*
X58420Y452040D03*
X68580Y442040D03*
X68580Y452040D03*
X78740Y442040D03*
X78740Y452040D03*
X88900Y442040D03*
X88900Y452040D03*
X99060Y442040D03*
X99060Y452040D03*
X246300Y119380D03*
X236300Y119380D03*
D11*
X325430Y56070D02*
X332430Y56070D01*
X325430Y56070D02*
X325430Y63070D01*
X332430Y63070D01*
X332430Y56070D01*
X332430Y58920D02*
X325430Y58920D01*
X325430Y61770D02*
X332430Y61770D01*
X332430Y38530D02*
X325430Y38530D01*
X325430Y45530D01*
X332430Y45530D01*
X332430Y38530D01*
X332430Y41380D02*
X325430Y41380D01*
X325430Y44230D02*
X332430Y44230D01*
D10*
X328930Y30400D03*
X328930Y20400D03*
X246300Y130810D03*
X236300Y130810D03*
X214630Y30400D03*
X214630Y20400D03*
D11*
X218130Y56070D02*
X211130Y56070D01*
X211130Y63070D01*
X218130Y63070D01*
X218130Y56070D01*
X218130Y58920D02*
X211130Y58920D01*
X211130Y61770D02*
X218130Y61770D01*
X218130Y38530D02*
X211130Y38530D01*
X211130Y45530D01*
X218130Y45530D01*
X218130Y38530D01*
X218130Y41380D02*
X211130Y41380D01*
X211130Y44230D02*
X218130Y44230D01*
D10*
X307260Y85090D03*
X297260Y85090D03*
X236300Y85090D03*
X246300Y85090D03*
D12*
X261780Y85325D03*
X266780Y85325D03*
X271780Y85325D03*
X276780Y85325D03*
X281780Y85325D03*
X281780Y130575D03*
X276780Y130575D03*
X271780Y130575D03*
X266780Y130575D03*
X261780Y130575D03*
D13*
X279280Y60100D03*
X274280Y60100D03*
D14*
X304030Y60100D03*
X296280Y60100D03*
D13*
X289280Y60100D03*
X284280Y60100D03*
X264280Y60100D03*
X269280Y60100D03*
D14*
X239530Y60100D03*
X247280Y60100D03*
D13*
X254280Y60100D03*
X259280Y60100D03*
D15*
X259080Y307340D03*
X259080Y251460D03*
X220980Y307340D03*
X220980Y251460D03*
D16*
X196930Y218500D03*
X196930Y162500D03*
D17*
X233680Y205500D03*
X233680Y195500D03*
X233680Y185500D03*
X233680Y175500D03*
D10*
X254080Y175260D03*
X264080Y175260D03*
X254080Y185420D03*
X264080Y185420D03*
D18*
X271780Y481050D03*
X261780Y481050D03*
X266780Y481050D03*
X256780Y481050D03*
X251780Y481050D03*
X246780Y481050D03*
X241780Y481050D03*
X236780Y481050D03*
X231780Y481050D03*
X226780Y481050D03*
X276780Y481050D03*
X281780Y481050D03*
X286780Y481050D03*
X291780Y481050D03*
X296780Y481050D03*
X301780Y481050D03*
X306780Y481050D03*
X311780Y481050D03*
X316780Y481050D03*
D19*
X344280Y478650D02*
X344280Y498650D01*
X199280Y498650D02*
X199280Y478650D01*
X344280Y543250D02*
X344280Y553250D01*
X199280Y553250D02*
X199280Y543250D01*
D10*
X317500Y442040D03*
X317500Y452040D03*
D20*
X318880Y313690D03*
X300880Y313690D03*
D10*
X327660Y442040D03*
X327660Y452040D03*
X311070Y299720D03*
X301070Y299720D03*
X210820Y442040D03*
X210820Y452040D03*
X220980Y442040D03*
X220980Y452040D03*
X231140Y442040D03*
X231140Y452040D03*
X241300Y442040D03*
X241300Y452040D03*
X251460Y442040D03*
X251460Y452040D03*
X261620Y442040D03*
X261620Y452040D03*
X271780Y442040D03*
X271780Y452040D03*
X281940Y442040D03*
X281940Y452040D03*
X429180Y119380D03*
X419180Y119380D03*
D11*
X508310Y56070D02*
X515310Y56070D01*
X508310Y56070D02*
X508310Y63070D01*
X515310Y63070D01*
X515310Y56070D01*
X515310Y58920D02*
X508310Y58920D01*
X508310Y61770D02*
X515310Y61770D01*
X515310Y38530D02*
X508310Y38530D01*
X508310Y45530D01*
X515310Y45530D01*
X515310Y38530D01*
X515310Y41380D02*
X508310Y41380D01*
X508310Y44230D02*
X515310Y44230D01*
D10*
X511810Y30400D03*
X511810Y20400D03*
X429180Y130810D03*
X419180Y130810D03*
X397510Y30400D03*
X397510Y20400D03*
D11*
X401010Y56070D02*
X394010Y56070D01*
X394010Y63070D01*
X401010Y63070D01*
X401010Y56070D01*
X401010Y58920D02*
X394010Y58920D01*
X394010Y61770D02*
X401010Y61770D01*
X401010Y38530D02*
X394010Y38530D01*
X394010Y45530D01*
X401010Y45530D01*
X401010Y38530D01*
X401010Y41380D02*
X394010Y41380D01*
X394010Y44230D02*
X401010Y44230D01*
D10*
X490140Y85090D03*
X480140Y85090D03*
X419180Y85090D03*
X429180Y85090D03*
D12*
X444660Y85325D03*
X449660Y85325D03*
X454660Y85325D03*
X459660Y85325D03*
X464660Y85325D03*
X464660Y130575D03*
X459660Y130575D03*
X454660Y130575D03*
X449660Y130575D03*
X444660Y130575D03*
D13*
X462160Y60100D03*
X457160Y60100D03*
D14*
X486910Y60100D03*
X479160Y60100D03*
D13*
X472160Y60100D03*
X467160Y60100D03*
X447160Y60100D03*
X452160Y60100D03*
D14*
X422410Y60100D03*
X430160Y60100D03*
D13*
X437160Y60100D03*
X442160Y60100D03*
D15*
X441960Y307340D03*
X441960Y251460D03*
X403860Y307340D03*
X403860Y251460D03*
D16*
X379810Y218500D03*
X379810Y162500D03*
D17*
X416560Y205500D03*
X416560Y195500D03*
X416560Y185500D03*
X416560Y175500D03*
D10*
X436960Y175260D03*
X446960Y175260D03*
X436960Y185420D03*
X446960Y185420D03*
D18*
X454660Y481050D03*
X444660Y481050D03*
X449660Y481050D03*
X439660Y481050D03*
X434660Y481050D03*
X429660Y481050D03*
X424660Y481050D03*
X419660Y481050D03*
X414660Y481050D03*
X409660Y481050D03*
X459660Y481050D03*
X464660Y481050D03*
X469660Y481050D03*
X474660Y481050D03*
X479660Y481050D03*
X484660Y481050D03*
X489660Y481050D03*
X494660Y481050D03*
X499660Y481050D03*
D19*
X527160Y478650D02*
X527160Y498650D01*
X382160Y498650D02*
X382160Y478650D01*
X527160Y543250D02*
X527160Y553250D01*
X382160Y553250D02*
X382160Y543250D01*
D10*
X500380Y442040D03*
X500380Y452040D03*
D20*
X501760Y313690D03*
X483760Y313690D03*
D10*
X510540Y442040D03*
X510540Y452040D03*
X493950Y299720D03*
X483950Y299720D03*
X393700Y442040D03*
X393700Y452040D03*
X403860Y442040D03*
X403860Y452040D03*
X414020Y442040D03*
X414020Y452040D03*
X424180Y442040D03*
X424180Y452040D03*
X434340Y442040D03*
X434340Y452040D03*
X444500Y442040D03*
X444500Y452040D03*
X454660Y442040D03*
X454660Y452040D03*
X464820Y442040D03*
X464820Y452040D03*
X612060Y119380D03*
X602060Y119380D03*
D11*
X691190Y56070D02*
X698190Y56070D01*
X691190Y56070D02*
X691190Y63070D01*
X698190Y63070D01*
X698190Y56070D01*
X698190Y58920D02*
X691190Y58920D01*
X691190Y61770D02*
X698190Y61770D01*
X698190Y38530D02*
X691190Y38530D01*
X691190Y45530D01*
X698190Y45530D01*
X698190Y38530D01*
X698190Y41380D02*
X691190Y41380D01*
X691190Y44230D02*
X698190Y44230D01*
D10*
X694690Y30400D03*
X694690Y20400D03*
X612060Y130810D03*
X602060Y130810D03*
X580390Y30400D03*
X580390Y20400D03*
D11*
X583890Y56070D02*
X576890Y56070D01*
X576890Y63070D01*
X583890Y63070D01*
X583890Y56070D01*
X583890Y58920D02*
X576890Y58920D01*
X576890Y61770D02*
X583890Y61770D01*
X583890Y38530D02*
X576890Y38530D01*
X576890Y45530D01*
X583890Y45530D01*
X583890Y38530D01*
X583890Y41380D02*
X576890Y41380D01*
X576890Y44230D02*
X583890Y44230D01*
D10*
X673020Y85090D03*
X663020Y85090D03*
X602060Y85090D03*
X612060Y85090D03*
D12*
X627540Y85325D03*
X632540Y85325D03*
X637540Y85325D03*
X642540Y85325D03*
X647540Y85325D03*
X647540Y130575D03*
X642540Y130575D03*
X637540Y130575D03*
X632540Y130575D03*
X627540Y130575D03*
D13*
X645040Y60100D03*
X640040Y60100D03*
D14*
X669790Y60100D03*
X662040Y60100D03*
D13*
X655040Y60100D03*
X650040Y60100D03*
X630040Y60100D03*
X635040Y60100D03*
D14*
X605290Y60100D03*
X613040Y60100D03*
D13*
X620040Y60100D03*
X625040Y60100D03*
D15*
X624840Y307340D03*
X624840Y251460D03*
X586740Y307340D03*
X586740Y251460D03*
D16*
X562690Y218500D03*
X562690Y162500D03*
D17*
X599440Y205500D03*
X599440Y195500D03*
X599440Y185500D03*
X599440Y175500D03*
D10*
X619840Y175260D03*
X629840Y175260D03*
X619840Y185420D03*
X629840Y185420D03*
D18*
X637540Y481050D03*
X627540Y481050D03*
X632540Y481050D03*
X622540Y481050D03*
X617540Y481050D03*
X612540Y481050D03*
X607540Y481050D03*
X602540Y481050D03*
X597540Y481050D03*
X592540Y481050D03*
X642540Y481050D03*
X647540Y481050D03*
X652540Y481050D03*
X657540Y481050D03*
X662540Y481050D03*
X667540Y481050D03*
X672540Y481050D03*
X677540Y481050D03*
X682540Y481050D03*
D19*
X710040Y478650D02*
X710040Y498650D01*
X565040Y498650D02*
X565040Y478650D01*
X710040Y543250D02*
X710040Y553250D01*
X565040Y553250D02*
X565040Y543250D01*
D10*
X683260Y442040D03*
X683260Y452040D03*
D20*
X684640Y313690D03*
X666640Y313690D03*
D10*
X693420Y442040D03*
X693420Y452040D03*
X676830Y299720D03*
X666830Y299720D03*
X576580Y442040D03*
X576580Y452040D03*
X586740Y442040D03*
X586740Y452040D03*
X596900Y442040D03*
X596900Y452040D03*
X607060Y442040D03*
X607060Y452040D03*
X617220Y442040D03*
X617220Y452040D03*
X627380Y442040D03*
X627380Y452040D03*
X637540Y442040D03*
X637540Y452040D03*
X647700Y442040D03*
X647700Y452040D03*
X794940Y119380D03*
X784940Y119380D03*
D11*
X874070Y56070D02*
X881070Y56070D01*
X874070Y56070D02*
X874070Y63070D01*
X881070Y63070D01*
X881070Y56070D01*
X881070Y58920D02*
X874070Y58920D01*
X874070Y61770D02*
X881070Y61770D01*
X881070Y38530D02*
X874070Y38530D01*
X874070Y45530D01*
X881070Y45530D01*
X881070Y38530D01*
X881070Y41380D02*
X874070Y41380D01*
X874070Y44230D02*
X881070Y44230D01*
D10*
X877570Y30400D03*
X877570Y20400D03*
X794940Y130810D03*
X784940Y130810D03*
X763270Y30400D03*
X763270Y20400D03*
D11*
X766770Y56070D02*
X759770Y56070D01*
X759770Y63070D01*
X766770Y63070D01*
X766770Y56070D01*
X766770Y58920D02*
X759770Y58920D01*
X759770Y61770D02*
X766770Y61770D01*
X766770Y38530D02*
X759770Y38530D01*
X759770Y45530D01*
X766770Y45530D01*
X766770Y38530D01*
X766770Y41380D02*
X759770Y41380D01*
X759770Y44230D02*
X766770Y44230D01*
D10*
X855900Y85090D03*
X845900Y85090D03*
X784940Y85090D03*
X794940Y85090D03*
D12*
X810420Y85325D03*
X815420Y85325D03*
X820420Y85325D03*
X825420Y85325D03*
X830420Y85325D03*
X830420Y130575D03*
X825420Y130575D03*
X820420Y130575D03*
X815420Y130575D03*
X810420Y130575D03*
D13*
X827920Y60100D03*
X822920Y60100D03*
D14*
X852670Y60100D03*
X844920Y60100D03*
D13*
X837920Y60100D03*
X832920Y60100D03*
X812920Y60100D03*
X817920Y60100D03*
D14*
X788170Y60100D03*
X795920Y60100D03*
D13*
X802920Y60100D03*
X807920Y60100D03*
D15*
X807720Y307340D03*
X807720Y251460D03*
X769620Y307340D03*
X769620Y251460D03*
D16*
X745570Y218500D03*
X745570Y162500D03*
D17*
X782320Y205500D03*
X782320Y195500D03*
X782320Y185500D03*
X782320Y175500D03*
D10*
X802720Y175260D03*
X812720Y175260D03*
X802720Y185420D03*
X812720Y185420D03*
D18*
X820420Y481050D03*
X810420Y481050D03*
X815420Y481050D03*
X805420Y481050D03*
X800420Y481050D03*
X795420Y481050D03*
X790420Y481050D03*
X785420Y481050D03*
X780420Y481050D03*
X775420Y481050D03*
X825420Y481050D03*
X830420Y481050D03*
X835420Y481050D03*
X840420Y481050D03*
X845420Y481050D03*
X850420Y481050D03*
X855420Y481050D03*
X860420Y481050D03*
X865420Y481050D03*
D19*
X892920Y478650D02*
X892920Y498650D01*
X747920Y498650D02*
X747920Y478650D01*
X892920Y543250D02*
X892920Y553250D01*
X747920Y553250D02*
X747920Y543250D01*
D10*
X866140Y442040D03*
X866140Y452040D03*
D20*
X867520Y313690D03*
X849520Y313690D03*
D10*
X876300Y442040D03*
X876300Y452040D03*
X859710Y299720D03*
X849710Y299720D03*
X759460Y442040D03*
X759460Y452040D03*
X769620Y442040D03*
X769620Y452040D03*
X779780Y442040D03*
X779780Y452040D03*
X789940Y442040D03*
X789940Y452040D03*
X800100Y442040D03*
X800100Y452040D03*
X810260Y442040D03*
X810260Y452040D03*
X820420Y442040D03*
X820420Y452040D03*
X830580Y442040D03*
X830580Y452040D03*
X977820Y119380D03*
X967820Y119380D03*
D11*
X1056950Y56070D02*
X1063950Y56070D01*
X1056950Y56070D02*
X1056950Y63070D01*
X1063950Y63070D01*
X1063950Y56070D01*
X1063950Y58920D02*
X1056950Y58920D01*
X1056950Y61770D02*
X1063950Y61770D01*
X1063950Y38530D02*
X1056950Y38530D01*
X1056950Y45530D01*
X1063950Y45530D01*
X1063950Y38530D01*
X1063950Y41380D02*
X1056950Y41380D01*
X1056950Y44230D02*
X1063950Y44230D01*
D10*
X1060450Y30400D03*
X1060450Y20400D03*
X977820Y130810D03*
X967820Y130810D03*
X946150Y30400D03*
X946150Y20400D03*
D11*
X949650Y56070D02*
X942650Y56070D01*
X942650Y63070D01*
X949650Y63070D01*
X949650Y56070D01*
X949650Y58920D02*
X942650Y58920D01*
X942650Y61770D02*
X949650Y61770D01*
X949650Y38530D02*
X942650Y38530D01*
X942650Y45530D01*
X949650Y45530D01*
X949650Y38530D01*
X949650Y41380D02*
X942650Y41380D01*
X942650Y44230D02*
X949650Y44230D01*
D10*
X1038780Y85090D03*
X1028780Y85090D03*
X967820Y85090D03*
X977820Y85090D03*
D12*
X993300Y85325D03*
X998300Y85325D03*
X1003300Y85325D03*
X1008300Y85325D03*
X1013300Y85325D03*
X1013300Y130575D03*
X1008300Y130575D03*
X1003300Y130575D03*
X998300Y130575D03*
X993300Y130575D03*
D13*
X1010800Y60100D03*
X1005800Y60100D03*
D14*
X1035550Y60100D03*
X1027800Y60100D03*
D13*
X1020800Y60100D03*
X1015800Y60100D03*
X995800Y60100D03*
X1000800Y60100D03*
D14*
X971050Y60100D03*
X978800Y60100D03*
D13*
X985800Y60100D03*
X990800Y60100D03*
D15*
X990600Y307340D03*
X990600Y251460D03*
X952500Y307340D03*
X952500Y251460D03*
D16*
X928450Y218500D03*
X928450Y162500D03*
D17*
X965200Y205500D03*
X965200Y195500D03*
X965200Y185500D03*
X965200Y175500D03*
D10*
X985600Y175260D03*
X995600Y175260D03*
X985600Y185420D03*
X995600Y185420D03*
D18*
X1003300Y481050D03*
X993300Y481050D03*
X998300Y481050D03*
X988300Y481050D03*
X983300Y481050D03*
X978300Y481050D03*
X973300Y481050D03*
X968300Y481050D03*
X963300Y481050D03*
X958300Y481050D03*
X1008300Y481050D03*
X1013300Y481050D03*
X1018300Y481050D03*
X1023300Y481050D03*
X1028300Y481050D03*
X1033300Y481050D03*
X1038300Y481050D03*
X1043300Y481050D03*
X1048300Y481050D03*
D19*
X1075800Y478650D02*
X1075800Y498650D01*
X930800Y498650D02*
X930800Y478650D01*
X1075800Y543250D02*
X1075800Y553250D01*
X930800Y553250D02*
X930800Y543250D01*
D10*
X1049020Y442040D03*
X1049020Y452040D03*
D20*
X1050400Y313690D03*
X1032400Y313690D03*
D10*
X1059180Y442040D03*
X1059180Y452040D03*
X1042590Y299720D03*
X1032590Y299720D03*
X942340Y442040D03*
X942340Y452040D03*
X952500Y442040D03*
X952500Y452040D03*
X962660Y442040D03*
X962660Y452040D03*
X972820Y442040D03*
X972820Y452040D03*
X982980Y442040D03*
X982980Y452040D03*
X993140Y442040D03*
X993140Y452040D03*
X1003300Y442040D03*
X1003300Y452040D03*
X1013460Y442040D03*
X1013460Y452040D03*
X1160700Y119380D03*
X1150700Y119380D03*
D11*
X1239830Y56070D02*
X1246830Y56070D01*
X1239830Y56070D02*
X1239830Y63070D01*
X1246830Y63070D01*
X1246830Y56070D01*
X1246830Y58920D02*
X1239830Y58920D01*
X1239830Y61770D02*
X1246830Y61770D01*
X1246830Y38530D02*
X1239830Y38530D01*
X1239830Y45530D01*
X1246830Y45530D01*
X1246830Y38530D01*
X1246830Y41380D02*
X1239830Y41380D01*
X1239830Y44230D02*
X1246830Y44230D01*
D10*
X1243330Y30400D03*
X1243330Y20400D03*
X1160700Y130810D03*
X1150700Y130810D03*
X1129030Y30400D03*
X1129030Y20400D03*
D11*
X1132530Y56070D02*
X1125530Y56070D01*
X1125530Y63070D01*
X1132530Y63070D01*
X1132530Y56070D01*
X1132530Y58920D02*
X1125530Y58920D01*
X1125530Y61770D02*
X1132530Y61770D01*
X1132530Y38530D02*
X1125530Y38530D01*
X1125530Y45530D01*
X1132530Y45530D01*
X1132530Y38530D01*
X1132530Y41380D02*
X1125530Y41380D01*
X1125530Y44230D02*
X1132530Y44230D01*
D10*
X1221660Y85090D03*
X1211660Y85090D03*
X1150700Y85090D03*
X1160700Y85090D03*
D12*
X1176180Y85325D03*
X1181180Y85325D03*
X1186180Y85325D03*
X1191180Y85325D03*
X1196180Y85325D03*
X1196180Y130575D03*
X1191180Y130575D03*
X1186180Y130575D03*
X1181180Y130575D03*
X1176180Y130575D03*
D13*
X1193680Y60100D03*
X1188680Y60100D03*
D14*
X1218430Y60100D03*
X1210680Y60100D03*
D13*
X1203680Y60100D03*
X1198680Y60100D03*
X1178680Y60100D03*
X1183680Y60100D03*
D14*
X1153930Y60100D03*
X1161680Y60100D03*
D13*
X1168680Y60100D03*
X1173680Y60100D03*
D15*
X1173480Y307340D03*
X1173480Y251460D03*
X1135380Y307340D03*
X1135380Y251460D03*
D16*
X1111330Y218500D03*
X1111330Y162500D03*
D17*
X1148080Y205500D03*
X1148080Y195500D03*
X1148080Y185500D03*
X1148080Y175500D03*
D10*
X1168480Y175260D03*
X1178480Y175260D03*
X1168480Y185420D03*
X1178480Y185420D03*
D18*
X1186180Y481050D03*
X1176180Y481050D03*
X1181180Y481050D03*
X1171180Y481050D03*
X1166180Y481050D03*
X1161180Y481050D03*
X1156180Y481050D03*
X1151180Y481050D03*
X1146180Y481050D03*
X1141180Y481050D03*
X1191180Y481050D03*
X1196180Y481050D03*
X1201180Y481050D03*
X1206180Y481050D03*
X1211180Y481050D03*
X1216180Y481050D03*
X1221180Y481050D03*
X1226180Y481050D03*
X1231180Y481050D03*
D19*
X1258680Y478650D02*
X1258680Y498650D01*
X1113680Y498650D02*
X1113680Y478650D01*
X1258680Y543250D02*
X1258680Y553250D01*
X1113680Y553250D02*
X1113680Y543250D01*
D10*
X1231900Y442040D03*
X1231900Y452040D03*
D20*
X1233280Y313690D03*
X1215280Y313690D03*
D10*
X1242060Y442040D03*
X1242060Y452040D03*
X1225470Y299720D03*
X1215470Y299720D03*
X1125220Y442040D03*
X1125220Y452040D03*
X1135380Y442040D03*
X1135380Y452040D03*
X1145540Y442040D03*
X1145540Y452040D03*
X1155700Y442040D03*
X1155700Y452040D03*
X1165860Y442040D03*
X1165860Y452040D03*
X1176020Y442040D03*
X1176020Y452040D03*
X1186180Y442040D03*
X1186180Y452040D03*
X1196340Y442040D03*
X1196340Y452040D03*
X63420Y741680D03*
X53420Y741680D03*
D11*
X142550Y678370D02*
X149550Y678370D01*
X142550Y678370D02*
X142550Y685370D01*
X149550Y685370D01*
X149550Y678370D01*
X149550Y681220D02*
X142550Y681220D01*
X142550Y684070D02*
X149550Y684070D01*
X149550Y660830D02*
X142550Y660830D01*
X142550Y667830D01*
X149550Y667830D01*
X149550Y660830D01*
X149550Y663680D02*
X142550Y663680D01*
X142550Y666530D02*
X149550Y666530D01*
D10*
X146050Y652700D03*
X146050Y642700D03*
X63420Y753110D03*
X53420Y753110D03*
X31750Y652700D03*
X31750Y642700D03*
D11*
X35250Y678370D02*
X28250Y678370D01*
X28250Y685370D01*
X35250Y685370D01*
X35250Y678370D01*
X35250Y681220D02*
X28250Y681220D01*
X28250Y684070D02*
X35250Y684070D01*
X35250Y660830D02*
X28250Y660830D01*
X28250Y667830D01*
X35250Y667830D01*
X35250Y660830D01*
X35250Y663680D02*
X28250Y663680D01*
X28250Y666530D02*
X35250Y666530D01*
D10*
X124380Y707390D03*
X114380Y707390D03*
X53420Y707390D03*
X63420Y707390D03*
D12*
X78900Y707625D03*
X83900Y707625D03*
X88900Y707625D03*
X93900Y707625D03*
X98900Y707625D03*
X98900Y752875D03*
X93900Y752875D03*
X88900Y752875D03*
X83900Y752875D03*
X78900Y752875D03*
D13*
X96400Y682400D03*
X91400Y682400D03*
D14*
X121150Y682400D03*
X113400Y682400D03*
D13*
X106400Y682400D03*
X101400Y682400D03*
X81400Y682400D03*
X86400Y682400D03*
D14*
X56650Y682400D03*
X64400Y682400D03*
D13*
X71400Y682400D03*
X76400Y682400D03*
D15*
X76200Y929640D03*
X76200Y873760D03*
X38100Y929640D03*
X38100Y873760D03*
D16*
X14050Y840800D03*
X14050Y784800D03*
D17*
X50800Y827800D03*
X50800Y817800D03*
X50800Y807800D03*
X50800Y797800D03*
D10*
X71200Y797560D03*
X81200Y797560D03*
X71200Y807720D03*
X81200Y807720D03*
D18*
X88900Y1103350D03*
X78900Y1103350D03*
X83900Y1103350D03*
X73900Y1103350D03*
X68900Y1103350D03*
X63900Y1103350D03*
X58900Y1103350D03*
X53900Y1103350D03*
X48900Y1103350D03*
X43900Y1103350D03*
X93900Y1103350D03*
X98900Y1103350D03*
X103900Y1103350D03*
X108900Y1103350D03*
X113900Y1103350D03*
X118900Y1103350D03*
X123900Y1103350D03*
X128900Y1103350D03*
X133900Y1103350D03*
D19*
X161400Y1100950D02*
X161400Y1120950D01*
X16400Y1120950D02*
X16400Y1100950D01*
X161400Y1165550D02*
X161400Y1175550D01*
X16400Y1175550D02*
X16400Y1165550D01*
D10*
X134620Y1064340D03*
X134620Y1074340D03*
D20*
X136000Y935990D03*
X118000Y935990D03*
D10*
X144780Y1064340D03*
X144780Y1074340D03*
X128190Y922020D03*
X118190Y922020D03*
X27940Y1064340D03*
X27940Y1074340D03*
X38100Y1064340D03*
X38100Y1074340D03*
X48260Y1064340D03*
X48260Y1074340D03*
X58420Y1064340D03*
X58420Y1074340D03*
X68580Y1064340D03*
X68580Y1074340D03*
X78740Y1064340D03*
X78740Y1074340D03*
X88900Y1064340D03*
X88900Y1074340D03*
X99060Y1064340D03*
X99060Y1074340D03*
X246300Y741680D03*
X236300Y741680D03*
D11*
X325430Y678370D02*
X332430Y678370D01*
X325430Y678370D02*
X325430Y685370D01*
X332430Y685370D01*
X332430Y678370D01*
X332430Y681220D02*
X325430Y681220D01*
X325430Y684070D02*
X332430Y684070D01*
X332430Y660830D02*
X325430Y660830D01*
X325430Y667830D01*
X332430Y667830D01*
X332430Y660830D01*
X332430Y663680D02*
X325430Y663680D01*
X325430Y666530D02*
X332430Y666530D01*
D10*
X328930Y652700D03*
X328930Y642700D03*
X246300Y753110D03*
X236300Y753110D03*
X214630Y652700D03*
X214630Y642700D03*
D11*
X218130Y678370D02*
X211130Y678370D01*
X211130Y685370D01*
X218130Y685370D01*
X218130Y678370D01*
X218130Y681220D02*
X211130Y681220D01*
X211130Y684070D02*
X218130Y684070D01*
X218130Y660830D02*
X211130Y660830D01*
X211130Y667830D01*
X218130Y667830D01*
X218130Y660830D01*
X218130Y663680D02*
X211130Y663680D01*
X211130Y666530D02*
X218130Y666530D01*
D10*
X307260Y707390D03*
X297260Y707390D03*
X236300Y707390D03*
X246300Y707390D03*
D12*
X261780Y707625D03*
X266780Y707625D03*
X271780Y707625D03*
X276780Y707625D03*
X281780Y707625D03*
X281780Y752875D03*
X276780Y752875D03*
X271780Y752875D03*
X266780Y752875D03*
X261780Y752875D03*
D13*
X279280Y682400D03*
X274280Y682400D03*
D14*
X304030Y682400D03*
X296280Y682400D03*
D13*
X289280Y682400D03*
X284280Y682400D03*
X264280Y682400D03*
X269280Y682400D03*
D14*
X239530Y682400D03*
X247280Y682400D03*
D13*
X254280Y682400D03*
X259280Y682400D03*
D15*
X259080Y929640D03*
X259080Y873760D03*
X220980Y929640D03*
X220980Y873760D03*
D16*
X196930Y840800D03*
X196930Y784800D03*
D17*
X233680Y827800D03*
X233680Y817800D03*
X233680Y807800D03*
X233680Y797800D03*
D10*
X254080Y797560D03*
X264080Y797560D03*
X254080Y807720D03*
X264080Y807720D03*
D18*
X271780Y1103350D03*
X261780Y1103350D03*
X266780Y1103350D03*
X256780Y1103350D03*
X251780Y1103350D03*
X246780Y1103350D03*
X241780Y1103350D03*
X236780Y1103350D03*
X231780Y1103350D03*
X226780Y1103350D03*
X276780Y1103350D03*
X281780Y1103350D03*
X286780Y1103350D03*
X291780Y1103350D03*
X296780Y1103350D03*
X301780Y1103350D03*
X306780Y1103350D03*
X311780Y1103350D03*
X316780Y1103350D03*
D19*
X344280Y1100950D02*
X344280Y1120950D01*
X199280Y1120950D02*
X199280Y1100950D01*
X344280Y1165550D02*
X344280Y1175550D01*
X199280Y1175550D02*
X199280Y1165550D01*
D10*
X317500Y1064340D03*
X317500Y1074340D03*
D20*
X318880Y935990D03*
X300880Y935990D03*
D10*
X327660Y1064340D03*
X327660Y1074340D03*
X311070Y922020D03*
X301070Y922020D03*
X210820Y1064340D03*
X210820Y1074340D03*
X220980Y1064340D03*
X220980Y1074340D03*
X231140Y1064340D03*
X231140Y1074340D03*
X241300Y1064340D03*
X241300Y1074340D03*
X251460Y1064340D03*
X251460Y1074340D03*
X261620Y1064340D03*
X261620Y1074340D03*
X271780Y1064340D03*
X271780Y1074340D03*
X281940Y1064340D03*
X281940Y1074340D03*
X429180Y741680D03*
X419180Y741680D03*
D11*
X508310Y678370D02*
X515310Y678370D01*
X508310Y678370D02*
X508310Y685370D01*
X515310Y685370D01*
X515310Y678370D01*
X515310Y681220D02*
X508310Y681220D01*
X508310Y684070D02*
X515310Y684070D01*
X515310Y660830D02*
X508310Y660830D01*
X508310Y667830D01*
X515310Y667830D01*
X515310Y660830D01*
X515310Y663680D02*
X508310Y663680D01*
X508310Y666530D02*
X515310Y666530D01*
D10*
X511810Y652700D03*
X511810Y642700D03*
X429180Y753110D03*
X419180Y753110D03*
X397510Y652700D03*
X397510Y642700D03*
D11*
X401010Y678370D02*
X394010Y678370D01*
X394010Y685370D01*
X401010Y685370D01*
X401010Y678370D01*
X401010Y681220D02*
X394010Y681220D01*
X394010Y684070D02*
X401010Y684070D01*
X401010Y660830D02*
X394010Y660830D01*
X394010Y667830D01*
X401010Y667830D01*
X401010Y660830D01*
X401010Y663680D02*
X394010Y663680D01*
X394010Y666530D02*
X401010Y666530D01*
D10*
X490140Y707390D03*
X480140Y707390D03*
X419180Y707390D03*
X429180Y707390D03*
D12*
X444660Y707625D03*
X449660Y707625D03*
X454660Y707625D03*
X459660Y707625D03*
X464660Y707625D03*
X464660Y752875D03*
X459660Y752875D03*
X454660Y752875D03*
X449660Y752875D03*
X444660Y752875D03*
D13*
X462160Y682400D03*
X457160Y682400D03*
D14*
X486910Y682400D03*
X479160Y682400D03*
D13*
X472160Y682400D03*
X467160Y682400D03*
X447160Y682400D03*
X452160Y682400D03*
D14*
X422410Y682400D03*
X430160Y682400D03*
D13*
X437160Y682400D03*
X442160Y682400D03*
D15*
X441960Y929640D03*
X441960Y873760D03*
X403860Y929640D03*
X403860Y873760D03*
D16*
X379810Y840800D03*
X379810Y784800D03*
D17*
X416560Y827800D03*
X416560Y817800D03*
X416560Y807800D03*
X416560Y797800D03*
D10*
X436960Y797560D03*
X446960Y797560D03*
X436960Y807720D03*
X446960Y807720D03*
D18*
X454660Y1103350D03*
X444660Y1103350D03*
X449660Y1103350D03*
X439660Y1103350D03*
X434660Y1103350D03*
X429660Y1103350D03*
X424660Y1103350D03*
X419660Y1103350D03*
X414660Y1103350D03*
X409660Y1103350D03*
X459660Y1103350D03*
X464660Y1103350D03*
X469660Y1103350D03*
X474660Y1103350D03*
X479660Y1103350D03*
X484660Y1103350D03*
X489660Y1103350D03*
X494660Y1103350D03*
X499660Y1103350D03*
D19*
X527160Y1100950D02*
X527160Y1120950D01*
X382160Y1120950D02*
X382160Y1100950D01*
X527160Y1165550D02*
X527160Y1175550D01*
X382160Y1175550D02*
X382160Y1165550D01*
D10*
X500380Y1064340D03*
X500380Y1074340D03*
D20*
X501760Y935990D03*
X483760Y935990D03*
D10*
X510540Y1064340D03*
X510540Y1074340D03*
X493950Y922020D03*
X483950Y922020D03*
X393700Y1064340D03*
X393700Y1074340D03*
X403860Y1064340D03*
X403860Y1074340D03*
X414020Y1064340D03*
X414020Y1074340D03*
X424180Y1064340D03*
X424180Y1074340D03*
X434340Y1064340D03*
X434340Y1074340D03*
X444500Y1064340D03*
X444500Y1074340D03*
X454660Y1064340D03*
X454660Y1074340D03*
X464820Y1064340D03*
X464820Y1074340D03*
X612060Y741680D03*
X602060Y741680D03*
D11*
X691190Y678370D02*
X698190Y678370D01*
X691190Y678370D02*
X691190Y685370D01*
X698190Y685370D01*
X698190Y678370D01*
X698190Y681220D02*
X691190Y681220D01*
X691190Y684070D02*
X698190Y684070D01*
X698190Y660830D02*
X691190Y660830D01*
X691190Y667830D01*
X698190Y667830D01*
X698190Y660830D01*
X698190Y663680D02*
X691190Y663680D01*
X691190Y666530D02*
X698190Y666530D01*
D10*
X694690Y652700D03*
X694690Y642700D03*
X612060Y753110D03*
X602060Y753110D03*
X580390Y652700D03*
X580390Y642700D03*
D11*
X583890Y678370D02*
X576890Y678370D01*
X576890Y685370D01*
X583890Y685370D01*
X583890Y678370D01*
X583890Y681220D02*
X576890Y681220D01*
X576890Y684070D02*
X583890Y684070D01*
X583890Y660830D02*
X576890Y660830D01*
X576890Y667830D01*
X583890Y667830D01*
X583890Y660830D01*
X583890Y663680D02*
X576890Y663680D01*
X576890Y666530D02*
X583890Y666530D01*
D10*
X673020Y707390D03*
X663020Y707390D03*
X602060Y707390D03*
X612060Y707390D03*
D12*
X627540Y707625D03*
X632540Y707625D03*
X637540Y707625D03*
X642540Y707625D03*
X647540Y707625D03*
X647540Y752875D03*
X642540Y752875D03*
X637540Y752875D03*
X632540Y752875D03*
X627540Y752875D03*
D13*
X645040Y682400D03*
X640040Y682400D03*
D14*
X669790Y682400D03*
X662040Y682400D03*
D13*
X655040Y682400D03*
X650040Y682400D03*
X630040Y682400D03*
X635040Y682400D03*
D14*
X605290Y682400D03*
X613040Y682400D03*
D13*
X620040Y682400D03*
X625040Y682400D03*
D15*
X624840Y929640D03*
X624840Y873760D03*
X586740Y929640D03*
X586740Y873760D03*
D16*
X562690Y840800D03*
X562690Y784800D03*
D17*
X599440Y827800D03*
X599440Y817800D03*
X599440Y807800D03*
X599440Y797800D03*
D10*
X619840Y797560D03*
X629840Y797560D03*
X619840Y807720D03*
X629840Y807720D03*
D18*
X637540Y1103350D03*
X627540Y1103350D03*
X632540Y1103350D03*
X622540Y1103350D03*
X617540Y1103350D03*
X612540Y1103350D03*
X607540Y1103350D03*
X602540Y1103350D03*
X597540Y1103350D03*
X592540Y1103350D03*
X642540Y1103350D03*
X647540Y1103350D03*
X652540Y1103350D03*
X657540Y1103350D03*
X662540Y1103350D03*
X667540Y1103350D03*
X672540Y1103350D03*
X677540Y1103350D03*
X682540Y1103350D03*
D19*
X710040Y1100950D02*
X710040Y1120950D01*
X565040Y1120950D02*
X565040Y1100950D01*
X710040Y1165550D02*
X710040Y1175550D01*
X565040Y1175550D02*
X565040Y1165550D01*
D10*
X683260Y1064340D03*
X683260Y1074340D03*
D20*
X684640Y935990D03*
X666640Y935990D03*
D10*
X693420Y1064340D03*
X693420Y1074340D03*
X676830Y922020D03*
X666830Y922020D03*
X576580Y1064340D03*
X576580Y1074340D03*
X586740Y1064340D03*
X586740Y1074340D03*
X596900Y1064340D03*
X596900Y1074340D03*
X607060Y1064340D03*
X607060Y1074340D03*
X617220Y1064340D03*
X617220Y1074340D03*
X627380Y1064340D03*
X627380Y1074340D03*
X637540Y1064340D03*
X637540Y1074340D03*
X647700Y1064340D03*
X647700Y1074340D03*
X794940Y741680D03*
X784940Y741680D03*
D11*
X874070Y678370D02*
X881070Y678370D01*
X874070Y678370D02*
X874070Y685370D01*
X881070Y685370D01*
X881070Y678370D01*
X881070Y681220D02*
X874070Y681220D01*
X874070Y684070D02*
X881070Y684070D01*
X881070Y660830D02*
X874070Y660830D01*
X874070Y667830D01*
X881070Y667830D01*
X881070Y660830D01*
X881070Y663680D02*
X874070Y663680D01*
X874070Y666530D02*
X881070Y666530D01*
D10*
X877570Y652700D03*
X877570Y642700D03*
X794940Y753110D03*
X784940Y753110D03*
X763270Y652700D03*
X763270Y642700D03*
D11*
X766770Y678370D02*
X759770Y678370D01*
X759770Y685370D01*
X766770Y685370D01*
X766770Y678370D01*
X766770Y681220D02*
X759770Y681220D01*
X759770Y684070D02*
X766770Y684070D01*
X766770Y660830D02*
X759770Y660830D01*
X759770Y667830D01*
X766770Y667830D01*
X766770Y660830D01*
X766770Y663680D02*
X759770Y663680D01*
X759770Y666530D02*
X766770Y666530D01*
D10*
X855900Y707390D03*
X845900Y707390D03*
X784940Y707390D03*
X794940Y707390D03*
D12*
X810420Y707625D03*
X815420Y707625D03*
X820420Y707625D03*
X825420Y707625D03*
X830420Y707625D03*
X830420Y752875D03*
X825420Y752875D03*
X820420Y752875D03*
X815420Y752875D03*
X810420Y752875D03*
D13*
X827920Y682400D03*
X822920Y682400D03*
D14*
X852670Y682400D03*
X844920Y682400D03*
D13*
X837920Y682400D03*
X832920Y682400D03*
X812920Y682400D03*
X817920Y682400D03*
D14*
X788170Y682400D03*
X795920Y682400D03*
D13*
X802920Y682400D03*
X807920Y682400D03*
D15*
X807720Y929640D03*
X807720Y873760D03*
X769620Y929640D03*
X769620Y873760D03*
D16*
X745570Y840800D03*
X745570Y784800D03*
D17*
X782320Y827800D03*
X782320Y817800D03*
X782320Y807800D03*
X782320Y797800D03*
D10*
X802720Y797560D03*
X812720Y797560D03*
X802720Y807720D03*
X812720Y807720D03*
D18*
X820420Y1103350D03*
X810420Y1103350D03*
X815420Y1103350D03*
X805420Y1103350D03*
X800420Y1103350D03*
X795420Y1103350D03*
X790420Y1103350D03*
X785420Y1103350D03*
X780420Y1103350D03*
X775420Y1103350D03*
X825420Y1103350D03*
X830420Y1103350D03*
X835420Y1103350D03*
X840420Y1103350D03*
X845420Y1103350D03*
X850420Y1103350D03*
X855420Y1103350D03*
X860420Y1103350D03*
X865420Y1103350D03*
D19*
X892920Y1100950D02*
X892920Y1120950D01*
X747920Y1120950D02*
X747920Y1100950D01*
X892920Y1165550D02*
X892920Y1175550D01*
X747920Y1175550D02*
X747920Y1165550D01*
D10*
X866140Y1064340D03*
X866140Y1074340D03*
D20*
X867520Y935990D03*
X849520Y935990D03*
D10*
X876300Y1064340D03*
X876300Y1074340D03*
X859710Y922020D03*
X849710Y922020D03*
X759460Y1064340D03*
X759460Y1074340D03*
X769620Y1064340D03*
X769620Y1074340D03*
X779780Y1064340D03*
X779780Y1074340D03*
X789940Y1064340D03*
X789940Y1074340D03*
X800100Y1064340D03*
X800100Y1074340D03*
X810260Y1064340D03*
X810260Y1074340D03*
X820420Y1064340D03*
X820420Y1074340D03*
X830580Y1064340D03*
X830580Y1074340D03*
X977820Y741680D03*
X967820Y741680D03*
D11*
X1056950Y678370D02*
X1063950Y678370D01*
X1056950Y678370D02*
X1056950Y685370D01*
X1063950Y685370D01*
X1063950Y678370D01*
X1063950Y681220D02*
X1056950Y681220D01*
X1056950Y684070D02*
X1063950Y684070D01*
X1063950Y660830D02*
X1056950Y660830D01*
X1056950Y667830D01*
X1063950Y667830D01*
X1063950Y660830D01*
X1063950Y663680D02*
X1056950Y663680D01*
X1056950Y666530D02*
X1063950Y666530D01*
D10*
X1060450Y652700D03*
X1060450Y642700D03*
X977820Y753110D03*
X967820Y753110D03*
X946150Y652700D03*
X946150Y642700D03*
D11*
X949650Y678370D02*
X942650Y678370D01*
X942650Y685370D01*
X949650Y685370D01*
X949650Y678370D01*
X949650Y681220D02*
X942650Y681220D01*
X942650Y684070D02*
X949650Y684070D01*
X949650Y660830D02*
X942650Y660830D01*
X942650Y667830D01*
X949650Y667830D01*
X949650Y660830D01*
X949650Y663680D02*
X942650Y663680D01*
X942650Y666530D02*
X949650Y666530D01*
D10*
X1038780Y707390D03*
X1028780Y707390D03*
X967820Y707390D03*
X977820Y707390D03*
D12*
X993300Y707625D03*
X998300Y707625D03*
X1003300Y707625D03*
X1008300Y707625D03*
X1013300Y707625D03*
X1013300Y752875D03*
X1008300Y752875D03*
X1003300Y752875D03*
X998300Y752875D03*
X993300Y752875D03*
D13*
X1010800Y682400D03*
X1005800Y682400D03*
D14*
X1035550Y682400D03*
X1027800Y682400D03*
D13*
X1020800Y682400D03*
X1015800Y682400D03*
X995800Y682400D03*
X1000800Y682400D03*
D14*
X971050Y682400D03*
X978800Y682400D03*
D13*
X985800Y682400D03*
X990800Y682400D03*
D15*
X990600Y929640D03*
X990600Y873760D03*
X952500Y929640D03*
X952500Y873760D03*
D16*
X928450Y840800D03*
X928450Y784800D03*
D17*
X965200Y827800D03*
X965200Y817800D03*
X965200Y807800D03*
X965200Y797800D03*
D10*
X985600Y797560D03*
X995600Y797560D03*
X985600Y807720D03*
X995600Y807720D03*
D18*
X1003300Y1103350D03*
X993300Y1103350D03*
X998300Y1103350D03*
X988300Y1103350D03*
X983300Y1103350D03*
X978300Y1103350D03*
X973300Y1103350D03*
X968300Y1103350D03*
X963300Y1103350D03*
X958300Y1103350D03*
X1008300Y1103350D03*
X1013300Y1103350D03*
X1018300Y1103350D03*
X1023300Y1103350D03*
X1028300Y1103350D03*
X1033300Y1103350D03*
X1038300Y1103350D03*
X1043300Y1103350D03*
X1048300Y1103350D03*
D19*
X1075800Y1100950D02*
X1075800Y1120950D01*
X930800Y1120950D02*
X930800Y1100950D01*
X1075800Y1165550D02*
X1075800Y1175550D01*
X930800Y1175550D02*
X930800Y1165550D01*
D10*
X1049020Y1064340D03*
X1049020Y1074340D03*
D20*
X1050400Y935990D03*
X1032400Y935990D03*
D10*
X1059180Y1064340D03*
X1059180Y1074340D03*
X1042590Y922020D03*
X1032590Y922020D03*
X942340Y1064340D03*
X942340Y1074340D03*
X952500Y1064340D03*
X952500Y1074340D03*
X962660Y1064340D03*
X962660Y1074340D03*
X972820Y1064340D03*
X972820Y1074340D03*
X982980Y1064340D03*
X982980Y1074340D03*
X993140Y1064340D03*
X993140Y1074340D03*
X1003300Y1064340D03*
X1003300Y1074340D03*
X1013460Y1064340D03*
X1013460Y1074340D03*
X1160700Y741680D03*
X1150700Y741680D03*
D11*
X1239830Y678370D02*
X1246830Y678370D01*
X1239830Y678370D02*
X1239830Y685370D01*
X1246830Y685370D01*
X1246830Y678370D01*
X1246830Y681220D02*
X1239830Y681220D01*
X1239830Y684070D02*
X1246830Y684070D01*
X1246830Y660830D02*
X1239830Y660830D01*
X1239830Y667830D01*
X1246830Y667830D01*
X1246830Y660830D01*
X1246830Y663680D02*
X1239830Y663680D01*
X1239830Y666530D02*
X1246830Y666530D01*
D10*
X1243330Y652700D03*
X1243330Y642700D03*
X1160700Y753110D03*
X1150700Y753110D03*
X1129030Y652700D03*
X1129030Y642700D03*
D11*
X1132530Y678370D02*
X1125530Y678370D01*
X1125530Y685370D01*
X1132530Y685370D01*
X1132530Y678370D01*
X1132530Y681220D02*
X1125530Y681220D01*
X1125530Y684070D02*
X1132530Y684070D01*
X1132530Y660830D02*
X1125530Y660830D01*
X1125530Y667830D01*
X1132530Y667830D01*
X1132530Y660830D01*
X1132530Y663680D02*
X1125530Y663680D01*
X1125530Y666530D02*
X1132530Y666530D01*
D10*
X1221660Y707390D03*
X1211660Y707390D03*
X1150700Y707390D03*
X1160700Y707390D03*
D12*
X1176180Y707625D03*
X1181180Y707625D03*
X1186180Y707625D03*
X1191180Y707625D03*
X1196180Y707625D03*
X1196180Y752875D03*
X1191180Y752875D03*
X1186180Y752875D03*
X1181180Y752875D03*
X1176180Y752875D03*
D13*
X1193680Y682400D03*
X1188680Y682400D03*
D14*
X1218430Y682400D03*
X1210680Y682400D03*
D13*
X1203680Y682400D03*
X1198680Y682400D03*
X1178680Y682400D03*
X1183680Y682400D03*
D14*
X1153930Y682400D03*
X1161680Y682400D03*
D13*
X1168680Y682400D03*
X1173680Y682400D03*
D15*
X1173480Y929640D03*
X1173480Y873760D03*
X1135380Y929640D03*
X1135380Y873760D03*
D16*
X1111330Y840800D03*
X1111330Y784800D03*
D17*
X1148080Y827800D03*
X1148080Y817800D03*
X1148080Y807800D03*
X1148080Y797800D03*
D10*
X1168480Y797560D03*
X1178480Y797560D03*
X1168480Y807720D03*
X1178480Y807720D03*
D18*
X1186180Y1103350D03*
X1176180Y1103350D03*
X1181180Y1103350D03*
X1171180Y1103350D03*
X1166180Y1103350D03*
X1161180Y1103350D03*
X1156180Y1103350D03*
X1151180Y1103350D03*
X1146180Y1103350D03*
X1141180Y1103350D03*
X1191180Y1103350D03*
X1196180Y1103350D03*
X1201180Y1103350D03*
X1206180Y1103350D03*
X1211180Y1103350D03*
X1216180Y1103350D03*
X1221180Y1103350D03*
X1226180Y1103350D03*
X1231180Y1103350D03*
D19*
X1258680Y1100950D02*
X1258680Y1120950D01*
X1113680Y1120950D02*
X1113680Y1100950D01*
X1258680Y1165550D02*
X1258680Y1175550D01*
X1113680Y1175550D02*
X1113680Y1165550D01*
D10*
X1231900Y1064340D03*
X1231900Y1074340D03*
D20*
X1233280Y935990D03*
X1215280Y935990D03*
D10*
X1242060Y1064340D03*
X1242060Y1074340D03*
X1225470Y922020D03*
X1215470Y922020D03*
X1125220Y1064340D03*
X1125220Y1074340D03*
X1135380Y1064340D03*
X1135380Y1074340D03*
X1145540Y1064340D03*
X1145540Y1074340D03*
X1155700Y1064340D03*
X1155700Y1074340D03*
X1165860Y1064340D03*
X1165860Y1074340D03*
X1176020Y1064340D03*
X1176020Y1074340D03*
X1186180Y1064340D03*
X1186180Y1074340D03*
X1196340Y1064340D03*
X1196340Y1074340D03*
M02*
